G75*
%MOIN*%
%OFA0B0*%
%FSLAX25Y25*%
%IPPOS*%
%LPD*%
%AMOC8*
5,1,8,0,0,1.08239X$1,22.5*
%
%ADD10C,0.08474*%
%ADD11R,0.06600X0.06600*%
%ADD12OC8,0.06600*%
%ADD13R,0.05671X0.05671*%
%ADD14C,0.05671*%
%ADD15C,0.13277*%
%ADD16C,0.04556*%
D10*
X0010300Y0012000D03*
X0134300Y0012000D03*
X0148300Y0151000D03*
X0168300Y0215000D03*
X0168300Y0258000D03*
X0237300Y0215000D03*
X0237300Y0151000D03*
X0010300Y0218000D03*
X0010300Y0258000D03*
D11*
X0027402Y0028268D03*
X0127402Y0028268D03*
D12*
X0127402Y0038268D03*
X0117402Y0038268D03*
X0117402Y0028268D03*
X0117402Y0048268D03*
X0117402Y0058268D03*
X0117402Y0068268D03*
X0117402Y0078268D03*
X0117402Y0088268D03*
X0117402Y0098268D03*
X0117402Y0108268D03*
X0117402Y0118268D03*
X0117402Y0128268D03*
X0117402Y0138268D03*
X0117402Y0148268D03*
X0117402Y0158268D03*
X0117402Y0168268D03*
X0117402Y0178268D03*
X0117402Y0188268D03*
X0117402Y0198268D03*
X0127402Y0198268D03*
X0127402Y0188268D03*
X0127402Y0178268D03*
X0127402Y0168268D03*
X0127402Y0158268D03*
X0127402Y0148268D03*
X0127402Y0138268D03*
X0127402Y0128268D03*
X0127402Y0118268D03*
X0127402Y0108268D03*
X0127402Y0098268D03*
X0127402Y0088268D03*
X0127402Y0078268D03*
X0127402Y0068268D03*
X0127402Y0058268D03*
X0127402Y0048268D03*
X0027402Y0048268D03*
X0027402Y0058268D03*
X0027402Y0068268D03*
X0027402Y0078268D03*
X0027402Y0088268D03*
X0027402Y0098268D03*
X0027402Y0108268D03*
X0027402Y0118268D03*
X0027402Y0128268D03*
X0027402Y0138268D03*
X0027402Y0148268D03*
X0027402Y0158268D03*
X0027402Y0168268D03*
X0027402Y0178268D03*
X0027402Y0188268D03*
X0027402Y0198268D03*
X0017402Y0198268D03*
X0017402Y0188268D03*
X0017402Y0178268D03*
X0017402Y0168268D03*
X0017402Y0158268D03*
X0017402Y0148268D03*
X0017402Y0138268D03*
X0017402Y0128268D03*
X0017402Y0118268D03*
X0017402Y0108268D03*
X0017402Y0098268D03*
X0017402Y0088268D03*
X0017402Y0078268D03*
X0017402Y0068268D03*
X0017402Y0058268D03*
X0017402Y0048268D03*
X0017402Y0038268D03*
X0017402Y0028268D03*
X0027402Y0038268D03*
D13*
X0184300Y0196000D03*
D14*
X0194143Y0196000D03*
X0202017Y0196000D03*
X0211859Y0196000D03*
D15*
X0223946Y0185331D03*
X0172213Y0185331D03*
D16*
X0154548Y0238701D03*
X0146674Y0238701D03*
X0124548Y0238701D03*
X0116674Y0238701D03*
X0094548Y0238701D03*
X0086674Y0238701D03*
X0064548Y0238701D03*
X0056674Y0238701D03*
X0034548Y0238701D03*
X0026674Y0238701D03*
M02*
