G75*
%MOIN*%
%OFA0B0*%
%FSLAX25Y25*%
%IPPOS*%
%LPD*%
%AMOC8*
5,1,8,0,0,1.08239X$1,22.5*
%
%ADD10R,0.06000X0.06000*%
%ADD11OC8,0.06000*%
%ADD12R,0.03740X0.04060*%
%ADD13R,0.05071X0.05071*%
%ADD14C,0.05071*%
%ADD15C,0.12677*%
%ADD16C,0.03956*%
%ADD17C,0.00600*%
%ADD18C,0.01000*%
%ADD19C,0.02400*%
D10*
X0027402Y0028268D03*
X0127402Y0028268D03*
D11*
X0017402Y0028268D03*
X0017402Y0038268D03*
X0017402Y0048268D03*
X0017402Y0058268D03*
X0017402Y0068268D03*
X0017402Y0078268D03*
X0017402Y0088268D03*
X0017402Y0098268D03*
X0017402Y0108268D03*
X0017402Y0118268D03*
X0017402Y0128268D03*
X0017402Y0138268D03*
X0017402Y0148268D03*
X0017402Y0158268D03*
X0017402Y0168268D03*
X0017402Y0178268D03*
X0017402Y0188268D03*
X0017402Y0198268D03*
X0027402Y0198268D03*
X0027402Y0188268D03*
X0027402Y0178268D03*
X0027402Y0168268D03*
X0027402Y0158268D03*
X0027402Y0148268D03*
X0027402Y0138268D03*
X0027402Y0128268D03*
X0027402Y0118268D03*
X0027402Y0108268D03*
X0027402Y0098268D03*
X0027402Y0088268D03*
X0027402Y0078268D03*
X0027402Y0068268D03*
X0027402Y0058268D03*
X0027402Y0048268D03*
X0027402Y0038268D03*
X0117402Y0038268D03*
X0117402Y0028268D03*
X0127402Y0038268D03*
X0127402Y0048268D03*
X0127402Y0058268D03*
X0117402Y0058268D03*
X0117402Y0048268D03*
X0117402Y0068268D03*
X0117402Y0078268D03*
X0117402Y0088268D03*
X0117402Y0098268D03*
X0117402Y0108268D03*
X0117402Y0118268D03*
X0117402Y0128268D03*
X0117402Y0138268D03*
X0117402Y0148268D03*
X0117402Y0158268D03*
X0117402Y0168268D03*
X0117402Y0178268D03*
X0117402Y0188268D03*
X0117402Y0198268D03*
X0127402Y0198268D03*
X0127402Y0188268D03*
X0127402Y0178268D03*
X0127402Y0168268D03*
X0127402Y0158268D03*
X0127402Y0148268D03*
X0127402Y0138268D03*
X0127402Y0128268D03*
X0127402Y0118268D03*
X0127402Y0108268D03*
X0127402Y0098268D03*
X0127402Y0088268D03*
X0127402Y0078268D03*
X0127402Y0068268D03*
D12*
X0126950Y0225000D03*
X0120650Y0225000D03*
X0096950Y0225000D03*
X0090650Y0225000D03*
X0066950Y0225000D03*
X0060650Y0225000D03*
X0036950Y0225000D03*
X0030650Y0225000D03*
X0150650Y0225000D03*
X0156950Y0225000D03*
D13*
X0184300Y0196000D03*
D14*
X0194143Y0196000D03*
X0202017Y0196000D03*
X0211859Y0196000D03*
D15*
X0223946Y0185331D03*
X0172213Y0185331D03*
D16*
X0154548Y0238701D03*
X0146674Y0238701D03*
X0124548Y0238701D03*
X0116674Y0238701D03*
X0094548Y0238701D03*
X0086674Y0238701D03*
X0064548Y0238701D03*
X0056674Y0238701D03*
X0034548Y0238701D03*
X0026674Y0238701D03*
D17*
X0026374Y0238419D02*
X0016300Y0238419D01*
X0016300Y0237821D02*
X0023507Y0237821D01*
X0023522Y0237745D02*
X0023769Y0237148D01*
X0024128Y0236611D01*
X0024584Y0236155D01*
X0025121Y0235796D01*
X0025718Y0235549D01*
X0026351Y0235423D01*
X0026374Y0235423D01*
X0026374Y0238401D01*
X0023396Y0238401D01*
X0023396Y0238378D01*
X0023522Y0237745D01*
X0023738Y0237222D02*
X0016300Y0237222D01*
X0016300Y0236624D02*
X0024119Y0236624D01*
X0024778Y0236025D02*
X0016300Y0236025D01*
X0016300Y0235427D02*
X0026331Y0235427D01*
X0026374Y0235427D02*
X0026974Y0235427D01*
X0026974Y0235423D02*
X0026997Y0235423D01*
X0027630Y0235549D01*
X0028227Y0235796D01*
X0028764Y0236155D01*
X0029220Y0236611D01*
X0029579Y0237148D01*
X0029826Y0237745D01*
X0029952Y0238378D01*
X0029952Y0238401D01*
X0026974Y0238401D01*
X0026974Y0239001D01*
X0026374Y0239001D01*
X0026374Y0241979D01*
X0026351Y0241979D01*
X0025718Y0241853D01*
X0025121Y0241606D01*
X0024584Y0241247D01*
X0024128Y0240790D01*
X0023769Y0240253D01*
X0023522Y0239657D01*
X0023396Y0239024D01*
X0023396Y0239001D01*
X0026374Y0239001D01*
X0026374Y0238401D01*
X0026974Y0238401D01*
X0026974Y0235423D01*
X0027017Y0235427D02*
X0030300Y0235427D01*
X0030300Y0235000D02*
X0023800Y0235000D01*
X0023800Y0213000D01*
X0039300Y0213000D01*
X0039300Y0113000D01*
X0122300Y0113000D01*
X0122300Y0103000D01*
X0032300Y0103000D01*
X0032300Y0205000D01*
X0016300Y0205000D01*
X0016300Y0245000D01*
X0150300Y0245000D01*
X0150300Y0235000D01*
X0143300Y0235000D01*
X0143300Y0242000D01*
X0120300Y0242000D01*
X0120300Y0235000D01*
X0113300Y0235000D01*
X0113300Y0242000D01*
X0090300Y0242000D01*
X0090300Y0235000D01*
X0083300Y0235000D01*
X0083300Y0242000D01*
X0060300Y0242000D01*
X0060300Y0235000D01*
X0052800Y0235000D01*
X0052800Y0242000D01*
X0030300Y0242000D01*
X0030300Y0235000D01*
X0030300Y0236025D02*
X0028570Y0236025D01*
X0029229Y0236624D02*
X0030300Y0236624D01*
X0030300Y0237222D02*
X0029610Y0237222D01*
X0029841Y0237821D02*
X0030300Y0237821D01*
X0030300Y0238419D02*
X0026974Y0238419D01*
X0026974Y0239001D02*
X0029952Y0239001D01*
X0029952Y0239024D01*
X0029826Y0239657D01*
X0029579Y0240253D01*
X0029220Y0240790D01*
X0028764Y0241247D01*
X0028227Y0241606D01*
X0027630Y0241853D01*
X0026997Y0241979D01*
X0026974Y0241979D01*
X0026974Y0239001D01*
X0026974Y0239018D02*
X0026374Y0239018D01*
X0026374Y0239616D02*
X0026974Y0239616D01*
X0026974Y0240215D02*
X0026374Y0240215D01*
X0026374Y0240813D02*
X0026974Y0240813D01*
X0026974Y0241412D02*
X0026374Y0241412D01*
X0024831Y0241412D02*
X0016300Y0241412D01*
X0016300Y0242010D02*
X0150300Y0242010D01*
X0150300Y0241412D02*
X0148517Y0241412D01*
X0148764Y0241247D02*
X0148227Y0241606D01*
X0147630Y0241853D01*
X0146997Y0241979D01*
X0146974Y0241979D01*
X0146974Y0239001D01*
X0146374Y0239001D01*
X0146374Y0241979D01*
X0146351Y0241979D01*
X0145718Y0241853D01*
X0145121Y0241606D01*
X0144584Y0241247D01*
X0144128Y0240790D01*
X0143769Y0240253D01*
X0143522Y0239657D01*
X0143396Y0239024D01*
X0143396Y0239001D01*
X0146374Y0239001D01*
X0146374Y0238401D01*
X0143396Y0238401D01*
X0143396Y0238378D01*
X0143522Y0237745D01*
X0143769Y0237148D01*
X0144128Y0236611D01*
X0144584Y0236155D01*
X0145121Y0235796D01*
X0145718Y0235549D01*
X0146351Y0235423D01*
X0146374Y0235423D01*
X0146374Y0238401D01*
X0146974Y0238401D01*
X0146974Y0239001D01*
X0149952Y0239001D01*
X0149952Y0239024D01*
X0149826Y0239657D01*
X0149579Y0240253D01*
X0149220Y0240790D01*
X0148764Y0241247D01*
X0149197Y0240813D02*
X0150300Y0240813D01*
X0150300Y0240215D02*
X0149595Y0240215D01*
X0149834Y0239616D02*
X0150300Y0239616D01*
X0150300Y0239018D02*
X0149952Y0239018D01*
X0149952Y0238401D02*
X0146974Y0238401D01*
X0146974Y0235423D01*
X0146997Y0235423D01*
X0147630Y0235549D01*
X0148227Y0235796D01*
X0148764Y0236155D01*
X0149220Y0236611D01*
X0149579Y0237148D01*
X0149826Y0237745D01*
X0149952Y0238378D01*
X0149952Y0238401D01*
X0150300Y0238419D02*
X0146974Y0238419D01*
X0146974Y0237821D02*
X0146374Y0237821D01*
X0146374Y0238419D02*
X0143300Y0238419D01*
X0143300Y0237821D02*
X0143507Y0237821D01*
X0143300Y0237222D02*
X0143738Y0237222D01*
X0144119Y0236624D02*
X0143300Y0236624D01*
X0143300Y0236025D02*
X0144778Y0236025D01*
X0143300Y0235427D02*
X0146331Y0235427D01*
X0146374Y0235427D02*
X0146974Y0235427D01*
X0147017Y0235427D02*
X0150300Y0235427D01*
X0150300Y0236025D02*
X0148570Y0236025D01*
X0149229Y0236624D02*
X0150300Y0236624D01*
X0150300Y0237222D02*
X0149610Y0237222D01*
X0149841Y0237821D02*
X0150300Y0237821D01*
X0146974Y0237222D02*
X0146374Y0237222D01*
X0146374Y0236624D02*
X0146974Y0236624D01*
X0146974Y0236025D02*
X0146374Y0236025D01*
X0146374Y0239018D02*
X0146974Y0239018D01*
X0146974Y0239616D02*
X0146374Y0239616D01*
X0146374Y0240215D02*
X0146974Y0240215D01*
X0146974Y0240813D02*
X0146374Y0240813D01*
X0146374Y0241412D02*
X0146974Y0241412D01*
X0144831Y0241412D02*
X0143300Y0241412D01*
X0143300Y0240813D02*
X0144151Y0240813D01*
X0143753Y0240215D02*
X0143300Y0240215D01*
X0143300Y0239616D02*
X0143514Y0239616D01*
X0143396Y0239018D02*
X0143300Y0239018D01*
X0150300Y0242609D02*
X0016300Y0242609D01*
X0016300Y0243208D02*
X0150300Y0243208D01*
X0150300Y0243806D02*
X0016300Y0243806D01*
X0016300Y0244405D02*
X0150300Y0244405D01*
X0120300Y0241412D02*
X0118517Y0241412D01*
X0118764Y0241247D02*
X0118227Y0241606D01*
X0117630Y0241853D01*
X0116997Y0241979D01*
X0116974Y0241979D01*
X0116974Y0239001D01*
X0116374Y0239001D01*
X0116374Y0241979D01*
X0116351Y0241979D01*
X0115718Y0241853D01*
X0115121Y0241606D01*
X0114584Y0241247D01*
X0114128Y0240790D01*
X0113769Y0240253D01*
X0113522Y0239657D01*
X0113396Y0239024D01*
X0113396Y0239001D01*
X0116374Y0239001D01*
X0116374Y0238401D01*
X0113396Y0238401D01*
X0113396Y0238378D01*
X0113522Y0237745D01*
X0113769Y0237148D01*
X0114128Y0236611D01*
X0114584Y0236155D01*
X0115121Y0235796D01*
X0115718Y0235549D01*
X0116351Y0235423D01*
X0116374Y0235423D01*
X0116374Y0238401D01*
X0116974Y0238401D01*
X0116974Y0239001D01*
X0119952Y0239001D01*
X0119952Y0239024D01*
X0119826Y0239657D01*
X0119579Y0240253D01*
X0119220Y0240790D01*
X0118764Y0241247D01*
X0119197Y0240813D02*
X0120300Y0240813D01*
X0120300Y0240215D02*
X0119595Y0240215D01*
X0119834Y0239616D02*
X0120300Y0239616D01*
X0120300Y0239018D02*
X0119952Y0239018D01*
X0119952Y0238401D02*
X0116974Y0238401D01*
X0116974Y0235423D01*
X0116997Y0235423D01*
X0117630Y0235549D01*
X0118227Y0235796D01*
X0118764Y0236155D01*
X0119220Y0236611D01*
X0119579Y0237148D01*
X0119826Y0237745D01*
X0119952Y0238378D01*
X0119952Y0238401D01*
X0120300Y0238419D02*
X0116974Y0238419D01*
X0116974Y0237821D02*
X0116374Y0237821D01*
X0116374Y0238419D02*
X0113300Y0238419D01*
X0113300Y0237821D02*
X0113507Y0237821D01*
X0113300Y0237222D02*
X0113738Y0237222D01*
X0114119Y0236624D02*
X0113300Y0236624D01*
X0113300Y0236025D02*
X0114778Y0236025D01*
X0113300Y0235427D02*
X0116331Y0235427D01*
X0116374Y0235427D02*
X0116974Y0235427D01*
X0117017Y0235427D02*
X0120300Y0235427D01*
X0120300Y0236025D02*
X0118570Y0236025D01*
X0119229Y0236624D02*
X0120300Y0236624D01*
X0120300Y0237222D02*
X0119610Y0237222D01*
X0119841Y0237821D02*
X0120300Y0237821D01*
X0116974Y0237222D02*
X0116374Y0237222D01*
X0116374Y0236624D02*
X0116974Y0236624D01*
X0116974Y0236025D02*
X0116374Y0236025D01*
X0116374Y0239018D02*
X0116974Y0239018D01*
X0116974Y0239616D02*
X0116374Y0239616D01*
X0116374Y0240215D02*
X0116974Y0240215D01*
X0116974Y0240813D02*
X0116374Y0240813D01*
X0116374Y0241412D02*
X0116974Y0241412D01*
X0114831Y0241412D02*
X0113300Y0241412D01*
X0113300Y0240813D02*
X0114151Y0240813D01*
X0113753Y0240215D02*
X0113300Y0240215D01*
X0113300Y0239616D02*
X0113514Y0239616D01*
X0113396Y0239018D02*
X0113300Y0239018D01*
X0090300Y0239018D02*
X0089952Y0239018D01*
X0089952Y0239024D02*
X0089826Y0239657D01*
X0089579Y0240253D01*
X0089220Y0240790D01*
X0088764Y0241247D01*
X0088227Y0241606D01*
X0087630Y0241853D01*
X0086997Y0241979D01*
X0086974Y0241979D01*
X0086974Y0239001D01*
X0086374Y0239001D01*
X0086374Y0241979D01*
X0086351Y0241979D01*
X0085718Y0241853D01*
X0085121Y0241606D01*
X0084584Y0241247D01*
X0084128Y0240790D01*
X0083769Y0240253D01*
X0083522Y0239657D01*
X0083396Y0239024D01*
X0083396Y0239001D01*
X0086374Y0239001D01*
X0086374Y0238401D01*
X0083396Y0238401D01*
X0083396Y0238378D01*
X0083522Y0237745D01*
X0083769Y0237148D01*
X0084128Y0236611D01*
X0084584Y0236155D01*
X0085121Y0235796D01*
X0085718Y0235549D01*
X0086351Y0235423D01*
X0086374Y0235423D01*
X0086374Y0238401D01*
X0086974Y0238401D01*
X0086974Y0239001D01*
X0089952Y0239001D01*
X0089952Y0239024D01*
X0089834Y0239616D02*
X0090300Y0239616D01*
X0090300Y0240215D02*
X0089595Y0240215D01*
X0089197Y0240813D02*
X0090300Y0240813D01*
X0090300Y0241412D02*
X0088517Y0241412D01*
X0086974Y0241412D02*
X0086374Y0241412D01*
X0086374Y0240813D02*
X0086974Y0240813D01*
X0086974Y0240215D02*
X0086374Y0240215D01*
X0086374Y0239616D02*
X0086974Y0239616D01*
X0086974Y0239018D02*
X0086374Y0239018D01*
X0086374Y0238419D02*
X0083300Y0238419D01*
X0083300Y0237821D02*
X0083507Y0237821D01*
X0083300Y0237222D02*
X0083738Y0237222D01*
X0084119Y0236624D02*
X0083300Y0236624D01*
X0083300Y0236025D02*
X0084778Y0236025D01*
X0083300Y0235427D02*
X0086331Y0235427D01*
X0086374Y0235427D02*
X0086974Y0235427D01*
X0086974Y0235423D02*
X0086997Y0235423D01*
X0087630Y0235549D01*
X0088227Y0235796D01*
X0088764Y0236155D01*
X0089220Y0236611D01*
X0089579Y0237148D01*
X0089826Y0237745D01*
X0089952Y0238378D01*
X0089952Y0238401D01*
X0086974Y0238401D01*
X0086974Y0235423D01*
X0087017Y0235427D02*
X0090300Y0235427D01*
X0090300Y0236025D02*
X0088570Y0236025D01*
X0089229Y0236624D02*
X0090300Y0236624D01*
X0090300Y0237222D02*
X0089610Y0237222D01*
X0089841Y0237821D02*
X0090300Y0237821D01*
X0090300Y0238419D02*
X0086974Y0238419D01*
X0086974Y0237821D02*
X0086374Y0237821D01*
X0086374Y0237222D02*
X0086974Y0237222D01*
X0086974Y0236624D02*
X0086374Y0236624D01*
X0086374Y0236025D02*
X0086974Y0236025D01*
X0083396Y0239018D02*
X0083300Y0239018D01*
X0083300Y0239616D02*
X0083514Y0239616D01*
X0083300Y0240215D02*
X0083753Y0240215D01*
X0084151Y0240813D02*
X0083300Y0240813D01*
X0083300Y0241412D02*
X0084831Y0241412D01*
X0060300Y0241412D02*
X0058517Y0241412D01*
X0058764Y0241247D02*
X0058227Y0241606D01*
X0057630Y0241853D01*
X0056997Y0241979D01*
X0056974Y0241979D01*
X0056974Y0239001D01*
X0056374Y0239001D01*
X0056374Y0241979D01*
X0056351Y0241979D01*
X0055718Y0241853D01*
X0055121Y0241606D01*
X0054584Y0241247D01*
X0054128Y0240790D01*
X0053769Y0240253D01*
X0053522Y0239657D01*
X0053396Y0239024D01*
X0053396Y0239001D01*
X0056374Y0239001D01*
X0056374Y0238401D01*
X0053396Y0238401D01*
X0053396Y0238378D01*
X0053522Y0237745D01*
X0053769Y0237148D01*
X0054128Y0236611D01*
X0054584Y0236155D01*
X0055121Y0235796D01*
X0055718Y0235549D01*
X0056351Y0235423D01*
X0056374Y0235423D01*
X0056374Y0238401D01*
X0056974Y0238401D01*
X0056974Y0239001D01*
X0059952Y0239001D01*
X0059952Y0239024D01*
X0059826Y0239657D01*
X0059579Y0240253D01*
X0059220Y0240790D01*
X0058764Y0241247D01*
X0059197Y0240813D02*
X0060300Y0240813D01*
X0060300Y0240215D02*
X0059595Y0240215D01*
X0059834Y0239616D02*
X0060300Y0239616D01*
X0060300Y0239018D02*
X0059952Y0239018D01*
X0059952Y0238401D02*
X0056974Y0238401D01*
X0056974Y0235423D01*
X0056997Y0235423D01*
X0057630Y0235549D01*
X0058227Y0235796D01*
X0058764Y0236155D01*
X0059220Y0236611D01*
X0059579Y0237148D01*
X0059826Y0237745D01*
X0059952Y0238378D01*
X0059952Y0238401D01*
X0060300Y0238419D02*
X0056974Y0238419D01*
X0056974Y0237821D02*
X0056374Y0237821D01*
X0056374Y0238419D02*
X0052800Y0238419D01*
X0052800Y0237821D02*
X0053507Y0237821D01*
X0053738Y0237222D02*
X0052800Y0237222D01*
X0052800Y0236624D02*
X0054119Y0236624D01*
X0054778Y0236025D02*
X0052800Y0236025D01*
X0052800Y0235427D02*
X0056331Y0235427D01*
X0056374Y0235427D02*
X0056974Y0235427D01*
X0057017Y0235427D02*
X0060300Y0235427D01*
X0060300Y0236025D02*
X0058570Y0236025D01*
X0059229Y0236624D02*
X0060300Y0236624D01*
X0060300Y0237222D02*
X0059610Y0237222D01*
X0059841Y0237821D02*
X0060300Y0237821D01*
X0056974Y0237222D02*
X0056374Y0237222D01*
X0056374Y0236624D02*
X0056974Y0236624D01*
X0056974Y0236025D02*
X0056374Y0236025D01*
X0056374Y0239018D02*
X0056974Y0239018D01*
X0056974Y0239616D02*
X0056374Y0239616D01*
X0056374Y0240215D02*
X0056974Y0240215D01*
X0056974Y0240813D02*
X0056374Y0240813D01*
X0056374Y0241412D02*
X0056974Y0241412D01*
X0054831Y0241412D02*
X0052800Y0241412D01*
X0052800Y0240813D02*
X0054151Y0240813D01*
X0053753Y0240215D02*
X0052800Y0240215D01*
X0052800Y0239616D02*
X0053514Y0239616D01*
X0053396Y0239018D02*
X0052800Y0239018D01*
X0030300Y0239018D02*
X0029952Y0239018D01*
X0029834Y0239616D02*
X0030300Y0239616D01*
X0030300Y0240215D02*
X0029595Y0240215D01*
X0029197Y0240813D02*
X0030300Y0240813D01*
X0030300Y0241412D02*
X0028517Y0241412D01*
X0026974Y0237821D02*
X0026374Y0237821D01*
X0026374Y0237222D02*
X0026974Y0237222D01*
X0026974Y0236624D02*
X0026374Y0236624D01*
X0026374Y0236025D02*
X0026974Y0236025D01*
X0023800Y0234828D02*
X0016300Y0234828D01*
X0016300Y0234230D02*
X0023800Y0234230D01*
X0023800Y0233631D02*
X0016300Y0233631D01*
X0016300Y0233033D02*
X0023800Y0233033D01*
X0023800Y0232434D02*
X0016300Y0232434D01*
X0016300Y0231836D02*
X0023800Y0231836D01*
X0023800Y0231237D02*
X0016300Y0231237D01*
X0016300Y0230639D02*
X0023800Y0230639D01*
X0023800Y0230040D02*
X0016300Y0230040D01*
X0016300Y0229442D02*
X0023800Y0229442D01*
X0023800Y0228843D02*
X0016300Y0228843D01*
X0016300Y0228245D02*
X0023800Y0228245D01*
X0023800Y0227646D02*
X0016300Y0227646D01*
X0016300Y0227048D02*
X0023800Y0227048D01*
X0023800Y0226449D02*
X0016300Y0226449D01*
X0016300Y0225851D02*
X0023800Y0225851D01*
X0023800Y0225252D02*
X0016300Y0225252D01*
X0016300Y0224654D02*
X0023800Y0224654D01*
X0023800Y0224055D02*
X0016300Y0224055D01*
X0016300Y0223457D02*
X0023800Y0223457D01*
X0023800Y0222858D02*
X0016300Y0222858D01*
X0016300Y0222260D02*
X0023800Y0222260D01*
X0023800Y0221661D02*
X0016300Y0221661D01*
X0016300Y0221063D02*
X0023800Y0221063D01*
X0023800Y0220464D02*
X0016300Y0220464D01*
X0016300Y0219866D02*
X0023800Y0219866D01*
X0023800Y0219267D02*
X0016300Y0219267D01*
X0016300Y0218669D02*
X0023800Y0218669D01*
X0023800Y0218070D02*
X0016300Y0218070D01*
X0016300Y0217472D02*
X0023800Y0217472D01*
X0023800Y0216873D02*
X0016300Y0216873D01*
X0016300Y0216274D02*
X0023800Y0216274D01*
X0023800Y0215676D02*
X0016300Y0215676D01*
X0016300Y0215077D02*
X0023800Y0215077D01*
X0023800Y0214479D02*
X0016300Y0214479D01*
X0016300Y0213880D02*
X0023800Y0213880D01*
X0023800Y0213282D02*
X0016300Y0213282D01*
X0016300Y0212683D02*
X0039300Y0212683D01*
X0039300Y0212085D02*
X0016300Y0212085D01*
X0016300Y0211486D02*
X0039300Y0211486D01*
X0039300Y0210888D02*
X0016300Y0210888D01*
X0016300Y0210289D02*
X0039300Y0210289D01*
X0039300Y0209691D02*
X0016300Y0209691D01*
X0016300Y0209092D02*
X0039300Y0209092D01*
X0039300Y0208494D02*
X0016300Y0208494D01*
X0016300Y0207895D02*
X0039300Y0207895D01*
X0039300Y0207297D02*
X0016300Y0207297D01*
X0016300Y0206698D02*
X0039300Y0206698D01*
X0039300Y0206100D02*
X0016300Y0206100D01*
X0016300Y0205501D02*
X0039300Y0205501D01*
X0039300Y0204903D02*
X0032300Y0204903D01*
X0032300Y0204304D02*
X0039300Y0204304D01*
X0039300Y0203706D02*
X0032300Y0203706D01*
X0032300Y0203107D02*
X0039300Y0203107D01*
X0039300Y0202509D02*
X0032300Y0202509D01*
X0032300Y0201910D02*
X0039300Y0201910D01*
X0039300Y0201312D02*
X0032300Y0201312D01*
X0032300Y0200713D02*
X0039300Y0200713D01*
X0039300Y0200115D02*
X0032300Y0200115D01*
X0032300Y0199516D02*
X0039300Y0199516D01*
X0039300Y0198918D02*
X0032300Y0198918D01*
X0032300Y0198319D02*
X0039300Y0198319D01*
X0039300Y0197721D02*
X0032300Y0197721D01*
X0032300Y0197122D02*
X0039300Y0197122D01*
X0039300Y0196524D02*
X0032300Y0196524D01*
X0032300Y0195925D02*
X0039300Y0195925D01*
X0039300Y0195327D02*
X0032300Y0195327D01*
X0032300Y0194728D02*
X0039300Y0194728D01*
X0039300Y0194130D02*
X0032300Y0194130D01*
X0032300Y0193531D02*
X0039300Y0193531D01*
X0039300Y0192933D02*
X0032300Y0192933D01*
X0032300Y0192334D02*
X0039300Y0192334D01*
X0039300Y0191736D02*
X0032300Y0191736D01*
X0032300Y0191137D02*
X0039300Y0191137D01*
X0039300Y0190539D02*
X0032300Y0190539D01*
X0032300Y0189940D02*
X0039300Y0189940D01*
X0039300Y0189341D02*
X0032300Y0189341D01*
X0032300Y0188743D02*
X0039300Y0188743D01*
X0039300Y0188144D02*
X0032300Y0188144D01*
X0032300Y0187546D02*
X0039300Y0187546D01*
X0039300Y0186947D02*
X0032300Y0186947D01*
X0032300Y0186349D02*
X0039300Y0186349D01*
X0039300Y0185750D02*
X0032300Y0185750D01*
X0032300Y0185152D02*
X0039300Y0185152D01*
X0039300Y0184553D02*
X0032300Y0184553D01*
X0032300Y0183955D02*
X0039300Y0183955D01*
X0039300Y0183356D02*
X0032300Y0183356D01*
X0032300Y0182758D02*
X0039300Y0182758D01*
X0039300Y0182159D02*
X0032300Y0182159D01*
X0032300Y0181561D02*
X0039300Y0181561D01*
X0039300Y0180962D02*
X0032300Y0180962D01*
X0032300Y0180364D02*
X0039300Y0180364D01*
X0039300Y0179765D02*
X0032300Y0179765D01*
X0032300Y0179167D02*
X0039300Y0179167D01*
X0039300Y0178568D02*
X0032300Y0178568D01*
X0032300Y0177970D02*
X0039300Y0177970D01*
X0039300Y0177371D02*
X0032300Y0177371D01*
X0032300Y0176773D02*
X0039300Y0176773D01*
X0039300Y0176174D02*
X0032300Y0176174D01*
X0032300Y0175576D02*
X0039300Y0175576D01*
X0039300Y0174977D02*
X0032300Y0174977D01*
X0032300Y0174379D02*
X0039300Y0174379D01*
X0039300Y0173780D02*
X0032300Y0173780D01*
X0032300Y0173182D02*
X0039300Y0173182D01*
X0039300Y0172583D02*
X0032300Y0172583D01*
X0032300Y0171985D02*
X0039300Y0171985D01*
X0039300Y0171386D02*
X0032300Y0171386D01*
X0032300Y0170788D02*
X0039300Y0170788D01*
X0039300Y0170189D02*
X0032300Y0170189D01*
X0032300Y0169591D02*
X0039300Y0169591D01*
X0039300Y0168992D02*
X0032300Y0168992D01*
X0032300Y0168394D02*
X0039300Y0168394D01*
X0039300Y0167795D02*
X0032300Y0167795D01*
X0032300Y0167197D02*
X0039300Y0167197D01*
X0039300Y0166598D02*
X0032300Y0166598D01*
X0032300Y0166000D02*
X0039300Y0166000D01*
X0039300Y0165401D02*
X0032300Y0165401D01*
X0032300Y0164803D02*
X0039300Y0164803D01*
X0039300Y0164204D02*
X0032300Y0164204D01*
X0032300Y0163605D02*
X0039300Y0163605D01*
X0039300Y0163007D02*
X0032300Y0163007D01*
X0032300Y0162408D02*
X0039300Y0162408D01*
X0039300Y0161810D02*
X0032300Y0161810D01*
X0032300Y0161211D02*
X0039300Y0161211D01*
X0039300Y0160613D02*
X0032300Y0160613D01*
X0032300Y0160014D02*
X0039300Y0160014D01*
X0039300Y0159416D02*
X0032300Y0159416D01*
X0032300Y0158817D02*
X0039300Y0158817D01*
X0039300Y0158219D02*
X0032300Y0158219D01*
X0032300Y0157620D02*
X0039300Y0157620D01*
X0039300Y0157022D02*
X0032300Y0157022D01*
X0032300Y0156423D02*
X0039300Y0156423D01*
X0039300Y0155825D02*
X0032300Y0155825D01*
X0032300Y0155226D02*
X0039300Y0155226D01*
X0039300Y0154628D02*
X0032300Y0154628D01*
X0032300Y0154029D02*
X0039300Y0154029D01*
X0039300Y0153431D02*
X0032300Y0153431D01*
X0032300Y0152832D02*
X0039300Y0152832D01*
X0039300Y0152234D02*
X0032300Y0152234D01*
X0032300Y0151635D02*
X0039300Y0151635D01*
X0039300Y0151037D02*
X0032300Y0151037D01*
X0032300Y0150438D02*
X0039300Y0150438D01*
X0039300Y0149840D02*
X0032300Y0149840D01*
X0032300Y0149241D02*
X0039300Y0149241D01*
X0039300Y0148643D02*
X0032300Y0148643D01*
X0032300Y0148044D02*
X0039300Y0148044D01*
X0039300Y0147446D02*
X0032300Y0147446D01*
X0032300Y0146847D02*
X0039300Y0146847D01*
X0039300Y0146249D02*
X0032300Y0146249D01*
X0032300Y0145650D02*
X0039300Y0145650D01*
X0039300Y0145052D02*
X0032300Y0145052D01*
X0032300Y0144453D02*
X0039300Y0144453D01*
X0039300Y0143855D02*
X0032300Y0143855D01*
X0032300Y0143256D02*
X0039300Y0143256D01*
X0039300Y0142658D02*
X0032300Y0142658D01*
X0032300Y0142059D02*
X0039300Y0142059D01*
X0039300Y0141461D02*
X0032300Y0141461D01*
X0032300Y0140862D02*
X0039300Y0140862D01*
X0039300Y0140264D02*
X0032300Y0140264D01*
X0032300Y0139665D02*
X0039300Y0139665D01*
X0039300Y0139067D02*
X0032300Y0139067D01*
X0032300Y0138468D02*
X0039300Y0138468D01*
X0039300Y0137870D02*
X0032300Y0137870D01*
X0032300Y0137271D02*
X0039300Y0137271D01*
X0039300Y0136672D02*
X0032300Y0136672D01*
X0032300Y0136074D02*
X0039300Y0136074D01*
X0039300Y0135475D02*
X0032300Y0135475D01*
X0032300Y0134877D02*
X0039300Y0134877D01*
X0039300Y0134278D02*
X0032300Y0134278D01*
X0032300Y0133680D02*
X0039300Y0133680D01*
X0039300Y0133081D02*
X0032300Y0133081D01*
X0032300Y0132483D02*
X0039300Y0132483D01*
X0039300Y0131884D02*
X0032300Y0131884D01*
X0032300Y0131286D02*
X0039300Y0131286D01*
X0039300Y0130687D02*
X0032300Y0130687D01*
X0032300Y0130089D02*
X0039300Y0130089D01*
X0039300Y0129490D02*
X0032300Y0129490D01*
X0032300Y0128892D02*
X0039300Y0128892D01*
X0039300Y0128293D02*
X0032300Y0128293D01*
X0032300Y0127695D02*
X0039300Y0127695D01*
X0039300Y0127096D02*
X0032300Y0127096D01*
X0032300Y0126498D02*
X0039300Y0126498D01*
X0039300Y0125899D02*
X0032300Y0125899D01*
X0032300Y0125301D02*
X0039300Y0125301D01*
X0039300Y0124702D02*
X0032300Y0124702D01*
X0032300Y0124104D02*
X0039300Y0124104D01*
X0039300Y0123505D02*
X0032300Y0123505D01*
X0032300Y0122907D02*
X0039300Y0122907D01*
X0039300Y0122308D02*
X0032300Y0122308D01*
X0032300Y0121710D02*
X0039300Y0121710D01*
X0039300Y0121111D02*
X0032300Y0121111D01*
X0032300Y0120513D02*
X0039300Y0120513D01*
X0039300Y0119914D02*
X0032300Y0119914D01*
X0032300Y0119316D02*
X0039300Y0119316D01*
X0039300Y0118717D02*
X0032300Y0118717D01*
X0032300Y0118119D02*
X0039300Y0118119D01*
X0039300Y0117520D02*
X0032300Y0117520D01*
X0032300Y0116922D02*
X0039300Y0116922D01*
X0039300Y0116323D02*
X0032300Y0116323D01*
X0032300Y0115725D02*
X0039300Y0115725D01*
X0039300Y0115126D02*
X0032300Y0115126D01*
X0032300Y0114528D02*
X0039300Y0114528D01*
X0039300Y0113929D02*
X0032300Y0113929D01*
X0032300Y0113331D02*
X0039300Y0113331D01*
X0032300Y0112732D02*
X0122300Y0112732D01*
X0122300Y0112134D02*
X0119618Y0112134D01*
X0119183Y0112568D02*
X0121702Y0110049D01*
X0121702Y0108568D01*
X0117702Y0108568D01*
X0117102Y0108568D01*
X0117102Y0107968D01*
X0113102Y0107968D01*
X0113102Y0106487D01*
X0115621Y0103968D01*
X0117102Y0103968D01*
X0117102Y0107968D01*
X0117702Y0107968D01*
X0117702Y0103968D01*
X0119183Y0103968D01*
X0121702Y0106487D01*
X0121702Y0107968D01*
X0117702Y0107968D01*
X0117702Y0108568D01*
X0117702Y0112568D01*
X0119183Y0112568D01*
X0120216Y0111535D02*
X0122300Y0111535D01*
X0122300Y0110937D02*
X0120815Y0110937D01*
X0121413Y0110338D02*
X0122300Y0110338D01*
X0122300Y0109739D02*
X0121702Y0109739D01*
X0121702Y0109141D02*
X0122300Y0109141D01*
X0122300Y0108542D02*
X0117702Y0108542D01*
X0117702Y0107944D02*
X0117102Y0107944D01*
X0117102Y0108542D02*
X0032300Y0108542D01*
X0032300Y0107944D02*
X0113102Y0107944D01*
X0113102Y0107345D02*
X0032300Y0107345D01*
X0032300Y0106747D02*
X0113102Y0106747D01*
X0113441Y0106148D02*
X0032300Y0106148D01*
X0032300Y0105550D02*
X0114039Y0105550D01*
X0114638Y0104951D02*
X0032300Y0104951D01*
X0032300Y0104353D02*
X0115236Y0104353D01*
X0117102Y0104353D02*
X0117702Y0104353D01*
X0117702Y0104951D02*
X0117102Y0104951D01*
X0117102Y0105550D02*
X0117702Y0105550D01*
X0117702Y0106148D02*
X0117102Y0106148D01*
X0117102Y0106747D02*
X0117702Y0106747D01*
X0117702Y0107345D02*
X0117102Y0107345D01*
X0117102Y0108568D02*
X0113102Y0108568D01*
X0113102Y0110049D01*
X0115621Y0112568D01*
X0117102Y0112568D01*
X0117102Y0108568D01*
X0117102Y0109141D02*
X0117702Y0109141D01*
X0117702Y0109739D02*
X0117102Y0109739D01*
X0117102Y0110338D02*
X0117702Y0110338D01*
X0117702Y0110937D02*
X0117102Y0110937D01*
X0117102Y0111535D02*
X0117702Y0111535D01*
X0117702Y0112134D02*
X0117102Y0112134D01*
X0115187Y0112134D02*
X0032300Y0112134D01*
X0032300Y0111535D02*
X0114589Y0111535D01*
X0113990Y0110937D02*
X0032300Y0110937D01*
X0032300Y0110338D02*
X0113392Y0110338D01*
X0113102Y0109739D02*
X0032300Y0109739D01*
X0032300Y0109141D02*
X0113102Y0109141D01*
X0119569Y0104353D02*
X0122300Y0104353D01*
X0122300Y0104951D02*
X0120167Y0104951D01*
X0120766Y0105550D02*
X0122300Y0105550D01*
X0122300Y0106148D02*
X0121364Y0106148D01*
X0121702Y0106747D02*
X0122300Y0106747D01*
X0122300Y0107345D02*
X0121702Y0107345D01*
X0121702Y0107944D02*
X0122300Y0107944D01*
X0122300Y0103754D02*
X0032300Y0103754D01*
X0032300Y0103156D02*
X0122300Y0103156D01*
X0023396Y0239018D02*
X0016300Y0239018D01*
X0016300Y0239616D02*
X0023514Y0239616D01*
X0023753Y0240215D02*
X0016300Y0240215D01*
X0016300Y0240813D02*
X0024151Y0240813D01*
D18*
X0034548Y0238701D02*
X0034548Y0228898D01*
X0030650Y0225000D01*
X0036950Y0225000D02*
X0042300Y0225000D01*
X0045300Y0227949D02*
X0045300Y0194006D01*
X0115538Y0123768D01*
X0121902Y0123768D01*
X0127402Y0118268D01*
X0127402Y0128268D02*
X0121902Y0133768D01*
X0115538Y0133768D01*
X0075300Y0174006D01*
X0075300Y0227949D01*
X0064548Y0238701D01*
X0064548Y0228898D01*
X0060650Y0225000D01*
X0066950Y0225000D02*
X0072300Y0225000D01*
X0090650Y0225000D02*
X0094548Y0228898D01*
X0094548Y0238701D01*
X0105300Y0227949D01*
X0105300Y0164006D01*
X0115538Y0153768D01*
X0121902Y0153768D01*
X0127402Y0148268D01*
X0132300Y0143165D02*
X0132300Y0213453D01*
X0154548Y0235701D01*
X0154548Y0238701D01*
X0158548Y0238701D01*
X0159774Y0237474D01*
X0159774Y0236124D01*
X0150650Y0227000D01*
X0150650Y0225000D01*
X0156950Y0225000D02*
X0162300Y0225000D01*
X0132320Y0224349D02*
X0132320Y0230929D01*
X0124548Y0238701D01*
X0124548Y0228898D01*
X0120650Y0225000D01*
X0121300Y0219350D02*
X0121300Y0219000D01*
X0121300Y0219350D02*
X0126950Y0225000D01*
X0132320Y0224349D02*
X0122902Y0214931D01*
X0122902Y0166404D01*
X0127402Y0161904D01*
X0127402Y0158268D01*
X0132300Y0143165D02*
X0127402Y0138268D01*
X0102300Y0225000D02*
X0096950Y0225000D01*
X0045300Y0227949D02*
X0034548Y0238701D01*
D19*
X0042300Y0225000D03*
X0072300Y0225000D03*
X0102300Y0225000D03*
X0121300Y0219000D03*
X0162300Y0225000D03*
M02*
