G75*
%MOIN*%
%OFA0B0*%
%FSLAX25Y25*%
%IPPOS*%
%LPD*%
%AMOC8*
5,1,8,0,0,1.08239X$1,22.5*
%
%ADD10C,0.04900*%
%ADD11C,0.05071*%
%ADD12C,0.12677*%
%ADD13C,0.03956*%
%ADD14C,0.01500*%
%ADD15C,0.01000*%
%ADD16C,0.02400*%
D10*
X0017402Y0028268D03*
X0017402Y0038268D03*
X0017402Y0048268D03*
X0017402Y0058268D03*
X0017402Y0068268D03*
X0017402Y0078268D03*
X0017402Y0088268D03*
X0017402Y0098268D03*
X0017402Y0108268D03*
X0017402Y0118268D03*
X0017402Y0128268D03*
X0017402Y0138268D03*
X0017402Y0148268D03*
X0017402Y0158268D03*
X0017402Y0168268D03*
X0017402Y0178268D03*
X0017402Y0188268D03*
X0017402Y0198268D03*
X0027402Y0198268D03*
X0027402Y0188268D03*
X0027402Y0178268D03*
X0027402Y0168268D03*
X0027402Y0158268D03*
X0027402Y0148268D03*
X0027402Y0138268D03*
X0027402Y0128268D03*
X0027402Y0118268D03*
X0027402Y0108268D03*
X0027402Y0098268D03*
X0027402Y0088268D03*
X0027402Y0078268D03*
X0027402Y0068268D03*
X0027402Y0058268D03*
X0027402Y0048268D03*
X0027402Y0038268D03*
X0027402Y0028268D03*
X0117402Y0028268D03*
X0117402Y0038268D03*
X0117402Y0048268D03*
X0117402Y0058268D03*
X0117402Y0068268D03*
X0117402Y0078268D03*
X0117402Y0088268D03*
X0117402Y0098268D03*
X0117402Y0108268D03*
X0117402Y0118268D03*
X0117402Y0128268D03*
X0117402Y0138268D03*
X0117402Y0148268D03*
X0117402Y0158268D03*
X0117402Y0168268D03*
X0117402Y0178268D03*
X0117402Y0188268D03*
X0117402Y0198268D03*
X0127402Y0198268D03*
X0127402Y0188268D03*
X0127402Y0178268D03*
X0127402Y0168268D03*
X0127402Y0158268D03*
X0127402Y0148268D03*
X0127402Y0138268D03*
X0127402Y0128268D03*
X0127402Y0118268D03*
X0127402Y0108268D03*
X0127402Y0098268D03*
X0127402Y0088268D03*
X0127402Y0078268D03*
X0127402Y0068268D03*
X0127402Y0058268D03*
X0127402Y0048268D03*
X0127402Y0038268D03*
X0127402Y0028268D03*
D11*
X0184300Y0196000D03*
X0194143Y0196000D03*
X0202017Y0196000D03*
X0211859Y0196000D03*
D12*
X0223946Y0185331D03*
X0172213Y0185331D03*
D13*
X0154548Y0238701D03*
X0146674Y0238701D03*
X0124548Y0238701D03*
X0116674Y0238701D03*
X0094548Y0238701D03*
X0086674Y0238701D03*
X0064548Y0238701D03*
X0056674Y0238701D03*
X0034548Y0238701D03*
X0026674Y0238701D03*
D14*
X0138300Y0147000D02*
X0138300Y0064000D01*
X0138298Y0063850D01*
X0138292Y0063700D01*
X0138282Y0063550D01*
X0138269Y0063401D01*
X0138251Y0063252D01*
X0138229Y0063103D01*
X0138204Y0062955D01*
X0138175Y0062808D01*
X0138142Y0062662D01*
X0138105Y0062516D01*
X0138064Y0062372D01*
X0138019Y0062229D01*
X0137971Y0062087D01*
X0137919Y0061946D01*
X0137864Y0061806D01*
X0137804Y0061669D01*
X0137742Y0061532D01*
X0137675Y0061398D01*
X0137605Y0061265D01*
X0137532Y0061134D01*
X0137455Y0061005D01*
X0137375Y0060878D01*
X0137292Y0060753D01*
X0137205Y0060631D01*
X0137116Y0060511D01*
X0137023Y0060393D01*
X0136927Y0060277D01*
X0136828Y0060165D01*
X0136726Y0060054D01*
X0136621Y0059947D01*
X0136514Y0059842D01*
X0136403Y0059740D01*
X0136291Y0059641D01*
X0136175Y0059545D01*
X0136057Y0059452D01*
X0135937Y0059363D01*
X0135815Y0059276D01*
X0135690Y0059193D01*
X0135563Y0059113D01*
X0135434Y0059036D01*
X0135303Y0058963D01*
X0135170Y0058893D01*
X0135036Y0058826D01*
X0134899Y0058764D01*
X0134762Y0058704D01*
X0134622Y0058649D01*
X0134481Y0058597D01*
X0134339Y0058549D01*
X0134196Y0058504D01*
X0134052Y0058463D01*
X0133906Y0058426D01*
X0133760Y0058393D01*
X0133613Y0058364D01*
X0133465Y0058339D01*
X0133316Y0058317D01*
X0133167Y0058299D01*
X0133018Y0058286D01*
X0132868Y0058276D01*
X0132718Y0058270D01*
X0132568Y0058268D01*
X0127402Y0058268D01*
X0127402Y0048268D01*
X0138300Y0147000D02*
X0138303Y0147242D01*
X0138312Y0147483D01*
X0138326Y0147724D01*
X0138347Y0147965D01*
X0138373Y0148205D01*
X0138405Y0148445D01*
X0138443Y0148684D01*
X0138486Y0148921D01*
X0138536Y0149158D01*
X0138591Y0149393D01*
X0138651Y0149627D01*
X0138718Y0149859D01*
X0138789Y0150090D01*
X0138867Y0150319D01*
X0138950Y0150546D01*
X0139038Y0150771D01*
X0139132Y0150994D01*
X0139231Y0151214D01*
X0139336Y0151432D01*
X0139445Y0151647D01*
X0139560Y0151860D01*
X0139680Y0152070D01*
X0139805Y0152276D01*
X0139935Y0152480D01*
X0140070Y0152681D01*
X0140210Y0152878D01*
X0140354Y0153072D01*
X0140503Y0153262D01*
X0140657Y0153448D01*
X0140815Y0153631D01*
X0140977Y0153810D01*
X0141144Y0153985D01*
X0141315Y0154156D01*
X0141490Y0154323D01*
X0141669Y0154485D01*
X0141852Y0154643D01*
X0142038Y0154797D01*
X0142228Y0154946D01*
X0142422Y0155090D01*
X0142619Y0155230D01*
X0142820Y0155365D01*
X0143024Y0155495D01*
X0143230Y0155620D01*
X0143440Y0155740D01*
X0143653Y0155855D01*
X0143868Y0155964D01*
X0144086Y0156069D01*
X0144306Y0156168D01*
X0144529Y0156262D01*
X0144754Y0156350D01*
X0144981Y0156433D01*
X0145210Y0156511D01*
X0145441Y0156582D01*
X0145673Y0156649D01*
X0145907Y0156709D01*
X0146142Y0156764D01*
X0146379Y0156814D01*
X0146616Y0156857D01*
X0146855Y0156895D01*
X0147095Y0156927D01*
X0147335Y0156953D01*
X0147576Y0156974D01*
X0147817Y0156988D01*
X0148058Y0156997D01*
X0148300Y0157000D01*
X0174300Y0157000D01*
X0174542Y0157003D01*
X0174783Y0157012D01*
X0175024Y0157026D01*
X0175265Y0157047D01*
X0175505Y0157073D01*
X0175745Y0157105D01*
X0175984Y0157143D01*
X0176221Y0157186D01*
X0176458Y0157236D01*
X0176693Y0157291D01*
X0176927Y0157351D01*
X0177159Y0157418D01*
X0177390Y0157489D01*
X0177619Y0157567D01*
X0177846Y0157650D01*
X0178071Y0157738D01*
X0178294Y0157832D01*
X0178514Y0157931D01*
X0178732Y0158036D01*
X0178947Y0158145D01*
X0179160Y0158260D01*
X0179370Y0158380D01*
X0179576Y0158505D01*
X0179780Y0158635D01*
X0179981Y0158770D01*
X0180178Y0158910D01*
X0180372Y0159054D01*
X0180562Y0159203D01*
X0180748Y0159357D01*
X0180931Y0159515D01*
X0181110Y0159677D01*
X0181285Y0159844D01*
X0181456Y0160015D01*
X0181623Y0160190D01*
X0181785Y0160369D01*
X0181943Y0160552D01*
X0182097Y0160738D01*
X0182246Y0160928D01*
X0182390Y0161122D01*
X0182530Y0161319D01*
X0182665Y0161520D01*
X0182795Y0161724D01*
X0182920Y0161930D01*
X0183040Y0162140D01*
X0183155Y0162353D01*
X0183264Y0162568D01*
X0183369Y0162786D01*
X0183468Y0163006D01*
X0183562Y0163229D01*
X0183650Y0163454D01*
X0183733Y0163681D01*
X0183811Y0163910D01*
X0183882Y0164141D01*
X0183949Y0164373D01*
X0184009Y0164607D01*
X0184064Y0164842D01*
X0184114Y0165079D01*
X0184157Y0165316D01*
X0184195Y0165555D01*
X0184227Y0165795D01*
X0184253Y0166035D01*
X0184274Y0166276D01*
X0184288Y0166517D01*
X0184297Y0166758D01*
X0184300Y0167000D01*
X0184300Y0196000D01*
D15*
X0194143Y0199000D02*
X0194141Y0199193D01*
X0194134Y0199387D01*
X0194122Y0199579D01*
X0194106Y0199772D01*
X0194085Y0199964D01*
X0194059Y0200156D01*
X0194029Y0200347D01*
X0193994Y0200537D01*
X0193955Y0200726D01*
X0193911Y0200915D01*
X0193862Y0201102D01*
X0193809Y0201288D01*
X0193751Y0201472D01*
X0193689Y0201655D01*
X0193623Y0201837D01*
X0193552Y0202017D01*
X0193477Y0202195D01*
X0193398Y0202371D01*
X0193314Y0202546D01*
X0193227Y0202718D01*
X0193135Y0202888D01*
X0193039Y0203056D01*
X0192939Y0203221D01*
X0192835Y0203384D01*
X0192727Y0203545D01*
X0192615Y0203702D01*
X0192500Y0203857D01*
X0192380Y0204009D01*
X0192258Y0204159D01*
X0192131Y0204305D01*
X0192001Y0204448D01*
X0191868Y0204588D01*
X0191731Y0204725D01*
X0191591Y0204858D01*
X0191448Y0204988D01*
X0191302Y0205115D01*
X0191152Y0205237D01*
X0191000Y0205357D01*
X0190845Y0205472D01*
X0190688Y0205584D01*
X0190527Y0205692D01*
X0190364Y0205796D01*
X0190199Y0205896D01*
X0190031Y0205992D01*
X0189861Y0206084D01*
X0189689Y0206171D01*
X0189514Y0206255D01*
X0189338Y0206334D01*
X0189160Y0206409D01*
X0188980Y0206480D01*
X0188798Y0206546D01*
X0188615Y0206608D01*
X0188431Y0206666D01*
X0188245Y0206719D01*
X0188058Y0206768D01*
X0187869Y0206812D01*
X0187680Y0206851D01*
X0187490Y0206886D01*
X0187299Y0206916D01*
X0187107Y0206942D01*
X0186915Y0206963D01*
X0186722Y0206979D01*
X0186530Y0206991D01*
X0186336Y0206998D01*
X0186143Y0207000D01*
X0144300Y0207000D01*
X0142300Y0209000D02*
X0192017Y0209000D01*
X0192259Y0208997D01*
X0192500Y0208988D01*
X0192741Y0208974D01*
X0192982Y0208953D01*
X0193222Y0208927D01*
X0193462Y0208895D01*
X0193701Y0208857D01*
X0193938Y0208814D01*
X0194175Y0208764D01*
X0194410Y0208709D01*
X0194644Y0208649D01*
X0194876Y0208582D01*
X0195107Y0208511D01*
X0195336Y0208433D01*
X0195563Y0208350D01*
X0195788Y0208262D01*
X0196011Y0208168D01*
X0196231Y0208069D01*
X0196449Y0207964D01*
X0196664Y0207855D01*
X0196877Y0207740D01*
X0197087Y0207620D01*
X0197293Y0207495D01*
X0197497Y0207365D01*
X0197698Y0207230D01*
X0197895Y0207090D01*
X0198089Y0206946D01*
X0198279Y0206797D01*
X0198465Y0206643D01*
X0198648Y0206485D01*
X0198827Y0206323D01*
X0199002Y0206156D01*
X0199173Y0205985D01*
X0199340Y0205810D01*
X0199502Y0205631D01*
X0199660Y0205448D01*
X0199814Y0205262D01*
X0199963Y0205072D01*
X0200107Y0204878D01*
X0200247Y0204681D01*
X0200382Y0204480D01*
X0200512Y0204276D01*
X0200637Y0204070D01*
X0200757Y0203860D01*
X0200872Y0203647D01*
X0200981Y0203432D01*
X0201086Y0203214D01*
X0201185Y0202994D01*
X0201279Y0202771D01*
X0201367Y0202546D01*
X0201450Y0202319D01*
X0201528Y0202090D01*
X0201599Y0201859D01*
X0201666Y0201627D01*
X0201726Y0201393D01*
X0201781Y0201158D01*
X0201831Y0200921D01*
X0201874Y0200684D01*
X0201912Y0200445D01*
X0201944Y0200205D01*
X0201970Y0199965D01*
X0201991Y0199724D01*
X0202005Y0199483D01*
X0202014Y0199242D01*
X0202017Y0199000D01*
X0202017Y0196000D01*
X0194143Y0196000D02*
X0194143Y0199000D01*
X0144300Y0207000D02*
X0144058Y0206997D01*
X0143817Y0206988D01*
X0143576Y0206974D01*
X0143335Y0206953D01*
X0143095Y0206927D01*
X0142855Y0206895D01*
X0142616Y0206857D01*
X0142379Y0206814D01*
X0142142Y0206764D01*
X0141907Y0206709D01*
X0141673Y0206649D01*
X0141441Y0206582D01*
X0141210Y0206511D01*
X0140981Y0206433D01*
X0140754Y0206350D01*
X0140529Y0206262D01*
X0140306Y0206168D01*
X0140086Y0206069D01*
X0139868Y0205964D01*
X0139653Y0205855D01*
X0139440Y0205740D01*
X0139230Y0205620D01*
X0139024Y0205495D01*
X0138820Y0205365D01*
X0138619Y0205230D01*
X0138422Y0205090D01*
X0138228Y0204946D01*
X0138038Y0204797D01*
X0137852Y0204643D01*
X0137669Y0204485D01*
X0137490Y0204323D01*
X0137315Y0204156D01*
X0137144Y0203985D01*
X0136977Y0203810D01*
X0136815Y0203631D01*
X0136657Y0203448D01*
X0136503Y0203262D01*
X0136354Y0203072D01*
X0136210Y0202878D01*
X0136070Y0202681D01*
X0135935Y0202480D01*
X0135805Y0202276D01*
X0135680Y0202070D01*
X0135560Y0201860D01*
X0135445Y0201647D01*
X0135336Y0201432D01*
X0135231Y0201214D01*
X0135132Y0200994D01*
X0135038Y0200771D01*
X0134950Y0200546D01*
X0134867Y0200319D01*
X0134789Y0200090D01*
X0134718Y0199859D01*
X0134651Y0199627D01*
X0134591Y0199393D01*
X0134536Y0199158D01*
X0134486Y0198921D01*
X0134443Y0198684D01*
X0134405Y0198445D01*
X0134373Y0198205D01*
X0134347Y0197965D01*
X0134326Y0197724D01*
X0134312Y0197483D01*
X0134303Y0197242D01*
X0134300Y0197000D01*
X0134300Y0071000D01*
X0134298Y0070898D01*
X0134292Y0070796D01*
X0134283Y0070694D01*
X0134269Y0070593D01*
X0134252Y0070492D01*
X0134232Y0070392D01*
X0134207Y0070293D01*
X0134179Y0070195D01*
X0134147Y0070098D01*
X0134111Y0070002D01*
X0134072Y0069907D01*
X0134029Y0069815D01*
X0133983Y0069723D01*
X0133934Y0069634D01*
X0133881Y0069546D01*
X0133825Y0069461D01*
X0133766Y0069378D01*
X0133704Y0069297D01*
X0133639Y0069218D01*
X0133571Y0069142D01*
X0133500Y0069068D01*
X0133426Y0068997D01*
X0133350Y0068929D01*
X0133271Y0068864D01*
X0133190Y0068802D01*
X0133107Y0068743D01*
X0133022Y0068687D01*
X0132934Y0068634D01*
X0132845Y0068585D01*
X0132753Y0068539D01*
X0132661Y0068496D01*
X0132566Y0068457D01*
X0132470Y0068421D01*
X0132373Y0068389D01*
X0132275Y0068361D01*
X0132176Y0068336D01*
X0132076Y0068316D01*
X0131975Y0068299D01*
X0131874Y0068285D01*
X0131772Y0068276D01*
X0131670Y0068270D01*
X0131568Y0068268D01*
X0127402Y0068268D01*
X0127402Y0078267D02*
X0127539Y0078269D01*
X0127677Y0078275D01*
X0127814Y0078284D01*
X0127950Y0078298D01*
X0128087Y0078315D01*
X0128222Y0078336D01*
X0128358Y0078361D01*
X0128492Y0078390D01*
X0128625Y0078422D01*
X0128758Y0078458D01*
X0128889Y0078498D01*
X0129020Y0078542D01*
X0129149Y0078589D01*
X0129276Y0078640D01*
X0129403Y0078694D01*
X0129527Y0078752D01*
X0129650Y0078813D01*
X0129771Y0078878D01*
X0129891Y0078946D01*
X0130008Y0079018D01*
X0130123Y0079092D01*
X0130236Y0079170D01*
X0130347Y0079251D01*
X0130456Y0079336D01*
X0130562Y0079423D01*
X0130666Y0079513D01*
X0130767Y0079606D01*
X0130865Y0079702D01*
X0130961Y0079800D01*
X0131054Y0079901D01*
X0131144Y0080005D01*
X0131231Y0080111D01*
X0131316Y0080220D01*
X0131397Y0080331D01*
X0131475Y0080444D01*
X0131549Y0080559D01*
X0131621Y0080676D01*
X0131689Y0080796D01*
X0131754Y0080917D01*
X0131815Y0081040D01*
X0131873Y0081164D01*
X0131927Y0081291D01*
X0131978Y0081418D01*
X0132025Y0081547D01*
X0132069Y0081678D01*
X0132109Y0081809D01*
X0132145Y0081942D01*
X0132177Y0082075D01*
X0132206Y0082209D01*
X0132231Y0082345D01*
X0132252Y0082480D01*
X0132269Y0082617D01*
X0132283Y0082753D01*
X0132292Y0082890D01*
X0132298Y0083028D01*
X0132300Y0083165D01*
X0132300Y0199000D01*
X0132303Y0199242D01*
X0132312Y0199483D01*
X0132326Y0199724D01*
X0132347Y0199965D01*
X0132373Y0200205D01*
X0132405Y0200445D01*
X0132443Y0200684D01*
X0132486Y0200921D01*
X0132536Y0201158D01*
X0132591Y0201393D01*
X0132651Y0201627D01*
X0132718Y0201859D01*
X0132789Y0202090D01*
X0132867Y0202319D01*
X0132950Y0202546D01*
X0133038Y0202771D01*
X0133132Y0202994D01*
X0133231Y0203214D01*
X0133336Y0203432D01*
X0133445Y0203647D01*
X0133560Y0203860D01*
X0133680Y0204070D01*
X0133805Y0204276D01*
X0133935Y0204480D01*
X0134070Y0204681D01*
X0134210Y0204878D01*
X0134354Y0205072D01*
X0134503Y0205262D01*
X0134657Y0205448D01*
X0134815Y0205631D01*
X0134977Y0205810D01*
X0135144Y0205985D01*
X0135315Y0206156D01*
X0135490Y0206323D01*
X0135669Y0206485D01*
X0135852Y0206643D01*
X0136038Y0206797D01*
X0136228Y0206946D01*
X0136422Y0207090D01*
X0136619Y0207230D01*
X0136820Y0207365D01*
X0137024Y0207495D01*
X0137230Y0207620D01*
X0137440Y0207740D01*
X0137653Y0207855D01*
X0137868Y0207964D01*
X0138086Y0208069D01*
X0138306Y0208168D01*
X0138529Y0208262D01*
X0138754Y0208350D01*
X0138981Y0208433D01*
X0139210Y0208511D01*
X0139441Y0208582D01*
X0139673Y0208649D01*
X0139907Y0208709D01*
X0140142Y0208764D01*
X0140379Y0208814D01*
X0140616Y0208857D01*
X0140855Y0208895D01*
X0141095Y0208927D01*
X0141335Y0208953D01*
X0141576Y0208974D01*
X0141817Y0208988D01*
X0142058Y0208997D01*
X0142300Y0209000D01*
D16*
X0162300Y0225000D03*
X0121300Y0219000D03*
X0102300Y0225000D03*
X0072300Y0225000D03*
X0042300Y0225000D03*
M02*
