G75*
%MOIN*%
%OFA0B0*%
%FSLAX25Y25*%
%IPPOS*%
%LPD*%
%AMOC8*
5,1,8,0,0,1.08239X$1,22.5*
%
%ADD10C,0.00300*%
%ADD11C,0.00600*%
%ADD12C,0.00800*%
%ADD13R,0.02000X0.02000*%
%ADD14C,0.01000*%
%ADD15C,0.00500*%
%ADD16C,0.01181*%
D10*
X0146648Y0161150D02*
X0149550Y0161150D01*
X0149550Y0163085D01*
X0149550Y0164097D02*
X0146648Y0164097D01*
X0149550Y0166031D01*
X0146648Y0166031D01*
X0147131Y0167043D02*
X0146648Y0167527D01*
X0146648Y0168494D01*
X0147131Y0168978D01*
X0148099Y0168978D02*
X0148099Y0168011D01*
X0148099Y0168978D02*
X0149066Y0168978D01*
X0149550Y0168494D01*
X0149550Y0167527D01*
X0149066Y0167043D01*
X0147131Y0167043D01*
X0146648Y0169990D02*
X0146648Y0170957D01*
X0146648Y0170473D02*
X0149550Y0170473D01*
X0149550Y0169990D02*
X0149550Y0170957D01*
X0151931Y0169491D02*
X0153866Y0169491D01*
X0154350Y0169975D01*
X0154350Y0170972D02*
X0152415Y0170972D01*
X0152415Y0171939D02*
X0153383Y0170972D01*
X0152415Y0171939D02*
X0152415Y0172423D01*
X0152415Y0173427D02*
X0153866Y0173427D01*
X0154350Y0173911D01*
X0154350Y0175362D01*
X0152415Y0175362D01*
X0152415Y0176374D02*
X0152415Y0176857D01*
X0152899Y0177341D01*
X0152415Y0177825D01*
X0152899Y0178309D01*
X0154350Y0178309D01*
X0154350Y0177341D02*
X0152899Y0177341D01*
X0152415Y0176374D02*
X0154350Y0176374D01*
X0156248Y0176850D02*
X0157215Y0177818D01*
X0159150Y0177818D01*
X0157699Y0177818D02*
X0157699Y0175883D01*
X0157215Y0175883D02*
X0156248Y0176850D01*
X0157215Y0175883D02*
X0159150Y0175883D01*
X0159150Y0174871D02*
X0159150Y0172936D01*
X0159150Y0173904D02*
X0156248Y0173904D01*
X0157215Y0172936D01*
X0158183Y0168978D02*
X0156248Y0168978D01*
X0158183Y0168978D02*
X0159150Y0168011D01*
X0158183Y0167043D01*
X0156248Y0167043D01*
X0156248Y0166031D02*
X0156248Y0164097D01*
X0159150Y0164097D01*
X0159150Y0166031D01*
X0157699Y0165064D02*
X0157699Y0164097D01*
X0157699Y0163085D02*
X0158183Y0162601D01*
X0158183Y0161150D01*
X0159150Y0161150D02*
X0156248Y0161150D01*
X0156248Y0162601D01*
X0156731Y0163085D01*
X0157699Y0163085D01*
X0158183Y0162117D02*
X0159150Y0163085D01*
X0154350Y0163114D02*
X0152415Y0163114D01*
X0152415Y0164566D01*
X0152899Y0165049D01*
X0154350Y0165049D01*
X0154350Y0166061D02*
X0154350Y0167512D01*
X0153866Y0167996D01*
X0153383Y0167512D01*
X0153383Y0166545D01*
X0152899Y0166061D01*
X0152415Y0166545D01*
X0152415Y0167996D01*
X0152415Y0169007D02*
X0152415Y0169975D01*
X0149066Y0174900D02*
X0149550Y0175384D01*
X0149550Y0176352D01*
X0149066Y0176835D01*
X0148583Y0176835D01*
X0148099Y0176352D01*
X0148099Y0175868D01*
X0148099Y0176352D02*
X0147615Y0176835D01*
X0147131Y0176835D01*
X0146648Y0176352D01*
X0146648Y0175384D01*
X0147131Y0174900D01*
X0147131Y0177847D02*
X0146648Y0178331D01*
X0146648Y0179298D01*
X0147131Y0179782D01*
X0149066Y0177847D01*
X0149550Y0178331D01*
X0149550Y0179298D01*
X0149066Y0179782D01*
X0147131Y0179782D01*
X0147615Y0180793D02*
X0146648Y0181761D01*
X0149550Y0181761D01*
X0149550Y0182728D02*
X0149550Y0180793D01*
X0152415Y0180771D02*
X0152415Y0179804D01*
X0152899Y0179320D01*
X0153866Y0179320D01*
X0154350Y0179804D01*
X0154350Y0180771D01*
X0153383Y0181255D02*
X0153383Y0179320D01*
X0152415Y0180771D02*
X0152899Y0181255D01*
X0153383Y0181255D01*
X0154350Y0182267D02*
X0152415Y0182267D01*
X0152415Y0183718D01*
X0152899Y0184202D01*
X0154350Y0184202D01*
X0153866Y0185697D02*
X0154350Y0186181D01*
X0153866Y0185697D02*
X0151931Y0185697D01*
X0152415Y0185213D02*
X0152415Y0186181D01*
X0151931Y0190124D02*
X0151448Y0190608D01*
X0151448Y0191575D01*
X0151931Y0192059D01*
X0152899Y0192059D02*
X0152899Y0191092D01*
X0152899Y0192059D02*
X0153866Y0192059D01*
X0154350Y0191575D01*
X0154350Y0190608D01*
X0153866Y0190124D01*
X0151931Y0190124D01*
X0151448Y0193071D02*
X0151448Y0193554D01*
X0154350Y0193554D01*
X0154350Y0193071D02*
X0154350Y0194038D01*
X0153866Y0195035D02*
X0154350Y0195519D01*
X0154350Y0196486D01*
X0153866Y0196970D01*
X0152899Y0196970D01*
X0152415Y0196486D01*
X0152415Y0195519D01*
X0152899Y0195035D01*
X0153866Y0195035D01*
X0152415Y0197981D02*
X0154350Y0198949D01*
X0152415Y0199916D01*
X0152899Y0200928D02*
X0152415Y0201412D01*
X0152415Y0202379D01*
X0152899Y0202863D01*
X0153383Y0202863D01*
X0153383Y0200928D01*
X0153866Y0200928D02*
X0152899Y0200928D01*
X0153866Y0200928D02*
X0154350Y0201412D01*
X0154350Y0202379D01*
X0149066Y0177847D02*
X0147131Y0177847D01*
X0146648Y0163085D02*
X0146648Y0161150D01*
X0148099Y0161150D02*
X0148099Y0162117D01*
X0151448Y0162117D02*
X0151448Y0161150D01*
X0151448Y0161634D02*
X0154350Y0161634D01*
X0154350Y0162117D02*
X0154350Y0161150D01*
X0159417Y0148052D02*
X0160385Y0148052D01*
X0159901Y0148052D02*
X0159901Y0145634D01*
X0159417Y0145150D01*
X0158934Y0145150D01*
X0158450Y0145634D01*
X0161397Y0145634D02*
X0161880Y0145150D01*
X0162848Y0145150D01*
X0163331Y0145634D01*
X0163331Y0146117D01*
X0162848Y0146601D01*
X0161397Y0146601D01*
X0161397Y0145634D01*
X0161397Y0146601D02*
X0162364Y0147569D01*
X0163331Y0148052D01*
X0160455Y0227950D02*
X0159487Y0227950D01*
X0159003Y0228434D01*
X0157992Y0227950D02*
X0157024Y0228917D01*
X0157508Y0228917D02*
X0156057Y0228917D01*
X0156057Y0227950D02*
X0156057Y0230852D01*
X0157508Y0230852D01*
X0157992Y0230369D01*
X0157992Y0229401D01*
X0157508Y0228917D01*
X0159003Y0230369D02*
X0159487Y0230852D01*
X0160455Y0230852D01*
X0160938Y0230369D01*
X0160938Y0229885D01*
X0160455Y0229401D01*
X0160938Y0228917D01*
X0160938Y0228434D01*
X0160455Y0227950D01*
X0160455Y0229401D02*
X0159971Y0229401D01*
X0145331Y0229117D02*
X0145331Y0228634D01*
X0144848Y0228150D01*
X0143880Y0228150D01*
X0143397Y0228634D01*
X0144364Y0229601D02*
X0144848Y0229601D01*
X0145331Y0229117D01*
X0144848Y0229601D02*
X0145331Y0230085D01*
X0145331Y0230569D01*
X0144848Y0231052D01*
X0143880Y0231052D01*
X0143397Y0230569D01*
X0142385Y0231052D02*
X0141417Y0231052D01*
X0141901Y0231052D02*
X0141901Y0228634D01*
X0141417Y0228150D01*
X0140934Y0228150D01*
X0140450Y0228634D01*
X0130938Y0228434D02*
X0130455Y0227950D01*
X0129487Y0227950D01*
X0129003Y0228434D01*
X0129003Y0229401D02*
X0129971Y0229885D01*
X0130455Y0229885D01*
X0130938Y0229401D01*
X0130938Y0228434D01*
X0129003Y0229401D02*
X0129003Y0230852D01*
X0130938Y0230852D01*
X0127992Y0230369D02*
X0127992Y0229401D01*
X0127508Y0228917D01*
X0126057Y0228917D01*
X0126057Y0227950D02*
X0126057Y0230852D01*
X0127508Y0230852D01*
X0127992Y0230369D01*
X0127024Y0228917D02*
X0127992Y0227950D01*
X0120331Y0228634D02*
X0119848Y0228150D01*
X0118880Y0228150D01*
X0118397Y0228634D01*
X0118397Y0229601D02*
X0119364Y0230085D01*
X0119848Y0230085D01*
X0120331Y0229601D01*
X0120331Y0228634D01*
X0118397Y0229601D02*
X0118397Y0231052D01*
X0120331Y0231052D01*
X0117385Y0231052D02*
X0116417Y0231052D01*
X0116901Y0231052D02*
X0116901Y0228634D01*
X0116417Y0228150D01*
X0115934Y0228150D01*
X0115450Y0228634D01*
X0100938Y0229401D02*
X0099003Y0229401D01*
X0100455Y0230852D01*
X0100455Y0227950D01*
X0097992Y0227950D02*
X0097024Y0228917D01*
X0097508Y0228917D02*
X0096057Y0228917D01*
X0096057Y0227950D02*
X0096057Y0230852D01*
X0097508Y0230852D01*
X0097992Y0230369D01*
X0097992Y0229401D01*
X0097508Y0228917D01*
X0090331Y0229601D02*
X0088397Y0229601D01*
X0089848Y0231052D01*
X0089848Y0228150D01*
X0087385Y0231052D02*
X0086417Y0231052D01*
X0086901Y0231052D02*
X0086901Y0228634D01*
X0086417Y0228150D01*
X0085934Y0228150D01*
X0085450Y0228634D01*
X0070938Y0227950D02*
X0069003Y0227950D01*
X0070938Y0229885D01*
X0070938Y0230369D01*
X0070455Y0230852D01*
X0069487Y0230852D01*
X0069003Y0230369D01*
X0067992Y0230369D02*
X0067992Y0229401D01*
X0067508Y0228917D01*
X0066057Y0228917D01*
X0066057Y0227950D02*
X0066057Y0230852D01*
X0067508Y0230852D01*
X0067992Y0230369D01*
X0067024Y0228917D02*
X0067992Y0227950D01*
X0060331Y0228150D02*
X0058397Y0228150D01*
X0060331Y0230085D01*
X0060331Y0230569D01*
X0059848Y0231052D01*
X0058880Y0231052D01*
X0058397Y0230569D01*
X0057385Y0231052D02*
X0056417Y0231052D01*
X0056901Y0231052D02*
X0056901Y0228634D01*
X0056417Y0228150D01*
X0055934Y0228150D01*
X0055450Y0228634D01*
X0040938Y0227950D02*
X0039003Y0227950D01*
X0039971Y0227950D02*
X0039971Y0230852D01*
X0039003Y0229885D01*
X0037992Y0230369D02*
X0037992Y0229401D01*
X0037508Y0228917D01*
X0036057Y0228917D01*
X0036057Y0227950D02*
X0036057Y0230852D01*
X0037508Y0230852D01*
X0037992Y0230369D01*
X0037024Y0228917D02*
X0037992Y0227950D01*
X0030331Y0228150D02*
X0028397Y0228150D01*
X0029364Y0228150D02*
X0029364Y0231052D01*
X0028397Y0230085D01*
X0027385Y0231052D02*
X0026417Y0231052D01*
X0026901Y0231052D02*
X0026901Y0228634D01*
X0026417Y0228150D01*
X0025934Y0228150D01*
X0025450Y0228634D01*
X0009364Y0210052D02*
X0009364Y0207150D01*
X0008397Y0207150D02*
X0010331Y0207150D01*
X0008397Y0209085D02*
X0009364Y0210052D01*
X0007385Y0210052D02*
X0007385Y0207634D01*
X0006901Y0207150D01*
X0005934Y0207150D01*
X0005450Y0207634D01*
X0005450Y0210052D01*
D11*
X0018800Y0231811D02*
X0018800Y0263307D01*
X0042422Y0263307D01*
X0042422Y0231811D01*
X0018800Y0231811D01*
X0030611Y0253465D02*
X0030611Y0261339D01*
X0032580Y0259370D01*
X0030611Y0261339D02*
X0028643Y0259370D01*
X0048800Y0263307D02*
X0072422Y0263307D01*
X0072422Y0231811D01*
X0048800Y0231811D01*
X0048800Y0263307D01*
X0058643Y0259370D02*
X0060611Y0261339D01*
X0062580Y0259370D01*
X0060611Y0261339D02*
X0060611Y0253465D01*
X0078800Y0263307D02*
X0078800Y0231811D01*
X0102422Y0231811D01*
X0102422Y0263307D01*
X0078800Y0263307D01*
X0088643Y0259370D02*
X0090611Y0261339D01*
X0092580Y0259370D01*
X0090611Y0261339D02*
X0090611Y0253465D01*
X0108800Y0263307D02*
X0108800Y0231811D01*
X0132422Y0231811D01*
X0132422Y0263307D01*
X0108800Y0263307D01*
X0118643Y0259370D02*
X0120611Y0261339D01*
X0122580Y0259370D01*
X0120611Y0261339D02*
X0120611Y0253465D01*
X0138800Y0263307D02*
X0138800Y0231811D01*
X0162422Y0231811D01*
X0162422Y0263307D01*
X0138800Y0263307D01*
X0148643Y0259370D02*
X0150611Y0261339D01*
X0152580Y0259370D01*
X0150611Y0261339D02*
X0150611Y0253465D01*
X0166300Y0243000D02*
X0165800Y0240000D01*
X0166300Y0239000D01*
X0167300Y0238000D01*
X0169300Y0237500D01*
X0171300Y0238000D01*
X0172300Y0239000D01*
X0172300Y0240500D01*
X0171800Y0242500D01*
X0170300Y0243500D01*
X0168800Y0243500D01*
X0167800Y0242500D01*
X0167300Y0240500D01*
X0166300Y0243000D02*
X0170300Y0250000D01*
X0170300Y0251000D01*
X0169300Y0252000D01*
X0168300Y0252000D01*
X0167300Y0251000D01*
X0167300Y0250000D01*
X0168800Y0243500D01*
X0170300Y0237000D01*
X0170300Y0236000D01*
X0169300Y0234000D01*
X0167300Y0233000D01*
X0166300Y0233000D01*
X0165300Y0234000D01*
X0164800Y0234500D01*
X0164800Y0235000D01*
X0165300Y0235500D01*
X0165800Y0235500D01*
X0166300Y0235000D01*
X0166300Y0234500D01*
X0165800Y0234000D01*
X0165300Y0234000D01*
X0175300Y0219000D02*
X0178300Y0219000D01*
X0178300Y0218000D01*
X0176300Y0218000D01*
X0176300Y0217000D01*
X0178300Y0217000D01*
X0178300Y0216000D01*
X0176300Y0216000D01*
X0176300Y0215000D01*
X0178300Y0215000D01*
X0178300Y0214000D01*
X0175300Y0214000D01*
X0175300Y0219000D01*
X0180300Y0219000D02*
X0180300Y0214000D01*
X0183300Y0214000D01*
X0183300Y0215000D01*
X0181300Y0215000D01*
X0181300Y0216000D01*
X0183300Y0216000D01*
X0183300Y0217000D01*
X0181300Y0217000D01*
X0181300Y0218000D01*
X0183300Y0218000D01*
X0183300Y0219000D01*
X0180300Y0219000D01*
X0185300Y0219000D02*
X0186300Y0214000D01*
X0187300Y0214000D01*
X0188300Y0219000D01*
X0187300Y0219000D01*
X0186800Y0216500D01*
X0186300Y0219000D01*
X0185300Y0219000D01*
X0208300Y0216000D02*
X0214300Y0217000D01*
X0214300Y0215000D01*
X0208300Y0214000D01*
X0208300Y0209000D01*
X0208300Y0208500D01*
X0207800Y0208000D01*
X0207300Y0208000D01*
X0206800Y0208500D01*
X0206800Y0209000D01*
X0207300Y0209500D01*
X0207800Y0209500D01*
X0208300Y0209000D01*
X0212800Y0209500D02*
X0213300Y0209000D01*
X0213800Y0209000D01*
X0214300Y0209500D01*
X0214300Y0210000D01*
X0213800Y0210500D01*
X0213300Y0210500D01*
X0212800Y0210000D01*
X0212800Y0209500D01*
X0214300Y0210000D02*
X0214300Y0215000D01*
X0208300Y0216000D02*
X0208300Y0214000D01*
X0223300Y0214000D02*
X0223300Y0207000D01*
X0223300Y0206500D01*
X0222800Y0206000D01*
X0222300Y0206000D01*
X0221800Y0206500D01*
X0221800Y0207000D01*
X0222300Y0207500D01*
X0222800Y0207500D01*
X0223300Y0207000D01*
X0224300Y0210000D02*
X0225300Y0211000D01*
X0225300Y0212000D01*
X0223300Y0214000D01*
X0161300Y0205000D02*
X0161300Y0159000D01*
X0144300Y0159000D01*
X0144300Y0205000D01*
X0161300Y0205000D01*
X0076300Y0210000D02*
X0071300Y0215000D01*
X0066300Y0210000D01*
X0071300Y0215000D02*
X0071300Y0200000D01*
X0071300Y0025000D02*
X0071300Y0010000D01*
X0066300Y0015000D01*
X0071300Y0010000D02*
X0076300Y0015000D01*
D12*
X0075466Y0028400D02*
X0073398Y0028400D01*
X0072363Y0029434D01*
X0072363Y0034605D01*
X0070055Y0031503D02*
X0069021Y0032537D01*
X0066952Y0032537D01*
X0065918Y0031503D01*
X0065918Y0029434D01*
X0066952Y0028400D01*
X0069021Y0028400D01*
X0070055Y0029434D01*
X0070055Y0031503D01*
X0075466Y0028400D02*
X0076500Y0029434D01*
X0076500Y0034605D01*
X0078809Y0033571D02*
X0078809Y0032537D01*
X0079843Y0031503D01*
X0081912Y0031503D01*
X0082946Y0030468D01*
X0082946Y0029434D01*
X0081912Y0028400D01*
X0079843Y0028400D01*
X0078809Y0029434D01*
X0078809Y0033571D02*
X0079843Y0034605D01*
X0081912Y0034605D01*
X0082946Y0033571D01*
X0085254Y0034605D02*
X0088357Y0034605D01*
X0089391Y0033571D01*
X0089391Y0032537D01*
X0088357Y0031503D01*
X0085254Y0031503D01*
X0085254Y0034605D02*
X0085254Y0028400D01*
X0088357Y0028400D01*
X0089391Y0029434D01*
X0089391Y0030468D01*
X0088357Y0031503D01*
X0105254Y0019605D02*
X0105254Y0013400D01*
X0105254Y0015468D02*
X0108357Y0015468D01*
X0109391Y0016503D01*
X0109391Y0018571D01*
X0108357Y0019605D01*
X0105254Y0019605D01*
X0111700Y0017537D02*
X0113768Y0019605D01*
X0113768Y0013400D01*
X0111700Y0013400D02*
X0115837Y0013400D01*
X0063649Y0032537D02*
X0062615Y0032537D01*
X0060547Y0030468D01*
X0060547Y0028400D02*
X0060547Y0032537D01*
X0058238Y0032537D02*
X0055135Y0032537D01*
X0054101Y0031503D01*
X0054101Y0029434D01*
X0055135Y0028400D01*
X0058238Y0028400D01*
X0051873Y0028400D02*
X0049804Y0028400D01*
X0050838Y0028400D02*
X0050838Y0032537D01*
X0049804Y0032537D01*
X0050838Y0034605D02*
X0050838Y0035640D01*
X0047496Y0031503D02*
X0046461Y0032537D01*
X0045427Y0031503D01*
X0045427Y0028400D01*
X0043359Y0028400D02*
X0043359Y0032537D01*
X0044393Y0032537D01*
X0045427Y0031503D01*
X0047496Y0031503D02*
X0047496Y0028400D01*
X0035837Y0018571D02*
X0035837Y0017537D01*
X0031700Y0013400D01*
X0035837Y0013400D01*
X0035837Y0018571D02*
X0034803Y0019605D01*
X0032734Y0019605D01*
X0031700Y0018571D01*
X0029391Y0018571D02*
X0029391Y0016503D01*
X0028357Y0015468D01*
X0025254Y0015468D01*
X0025254Y0013400D02*
X0025254Y0019605D01*
X0028357Y0019605D01*
X0029391Y0018571D01*
X0069695Y0080400D02*
X0069695Y0083503D01*
X0070729Y0084537D01*
X0072797Y0084537D01*
X0073832Y0083503D01*
X0073832Y0080400D01*
X0075900Y0080400D02*
X0069695Y0080400D01*
X0072797Y0086845D02*
X0071763Y0087880D01*
X0071763Y0089948D01*
X0072797Y0090982D01*
X0074866Y0090982D01*
X0075900Y0089948D01*
X0075900Y0087880D01*
X0074866Y0086845D01*
X0072797Y0086845D01*
X0072797Y0093291D02*
X0071763Y0094325D01*
X0071763Y0097428D01*
X0069695Y0099736D02*
X0075900Y0099736D01*
X0073832Y0099736D02*
X0075900Y0102839D01*
X0074866Y0105108D02*
X0072797Y0105108D01*
X0071763Y0106142D01*
X0071763Y0108210D01*
X0072797Y0109245D01*
X0073832Y0109245D01*
X0073832Y0105108D01*
X0074866Y0105108D02*
X0075900Y0106142D01*
X0075900Y0108210D01*
X0074866Y0112587D02*
X0070729Y0112587D01*
X0071763Y0111553D02*
X0071763Y0113622D01*
X0072797Y0115850D02*
X0072797Y0118953D01*
X0073832Y0119987D01*
X0074866Y0119987D01*
X0075900Y0118953D01*
X0075900Y0115850D01*
X0069695Y0115850D01*
X0069695Y0118953D01*
X0070729Y0119987D01*
X0071763Y0119987D01*
X0072797Y0118953D01*
X0072797Y0122296D02*
X0071763Y0123330D01*
X0071763Y0125398D01*
X0072797Y0126433D01*
X0073832Y0126433D01*
X0073832Y0122296D01*
X0074866Y0122296D02*
X0072797Y0122296D01*
X0074866Y0122296D02*
X0075900Y0123330D01*
X0075900Y0125398D01*
X0074866Y0128741D02*
X0073832Y0129775D01*
X0073832Y0132878D01*
X0072797Y0132878D02*
X0075900Y0132878D01*
X0075900Y0129775D01*
X0074866Y0128741D01*
X0071763Y0131844D02*
X0072797Y0132878D01*
X0071763Y0131844D02*
X0071763Y0129775D01*
X0072797Y0135187D02*
X0074866Y0135187D01*
X0075900Y0136221D01*
X0075900Y0139324D01*
X0076934Y0139324D02*
X0071763Y0139324D01*
X0071763Y0136221D01*
X0072797Y0135187D01*
X0077968Y0137255D02*
X0077968Y0138289D01*
X0076934Y0139324D01*
X0075900Y0141632D02*
X0075900Y0143701D01*
X0075900Y0142666D02*
X0069695Y0142666D01*
X0069695Y0141632D01*
X0072797Y0145929D02*
X0071763Y0146963D01*
X0071763Y0149032D01*
X0072797Y0150066D01*
X0073832Y0150066D01*
X0073832Y0145929D01*
X0074866Y0145929D02*
X0072797Y0145929D01*
X0074866Y0145929D02*
X0075900Y0146963D01*
X0075900Y0149032D01*
X0075900Y0113622D02*
X0074866Y0112587D01*
X0071763Y0102839D02*
X0073832Y0099736D01*
X0075900Y0097428D02*
X0075900Y0094325D01*
X0074866Y0093291D01*
X0072797Y0093291D01*
X0073398Y0188400D02*
X0072363Y0189434D01*
X0072363Y0191503D01*
X0073398Y0192537D01*
X0075466Y0192537D01*
X0076500Y0191503D01*
X0076500Y0189434D01*
X0075466Y0188400D01*
X0073398Y0188400D01*
X0070095Y0192537D02*
X0069061Y0192537D01*
X0066992Y0190468D01*
X0066992Y0188400D02*
X0066992Y0192537D01*
X0064684Y0192537D02*
X0061581Y0192537D01*
X0060547Y0191503D01*
X0060547Y0189434D01*
X0061581Y0188400D01*
X0064684Y0188400D01*
X0058318Y0188400D02*
X0056250Y0188400D01*
X0057284Y0188400D02*
X0057284Y0192537D01*
X0056250Y0192537D01*
X0057284Y0194605D02*
X0057284Y0195640D01*
X0053941Y0191503D02*
X0053941Y0188400D01*
X0051873Y0188400D02*
X0051873Y0191503D01*
X0052907Y0192537D01*
X0053941Y0191503D01*
X0051873Y0191503D02*
X0050838Y0192537D01*
X0049804Y0192537D01*
X0049804Y0188400D01*
X0078809Y0189434D02*
X0079843Y0188400D01*
X0081912Y0188400D01*
X0082946Y0189434D01*
X0082946Y0190468D01*
X0081912Y0191503D01*
X0079843Y0191503D01*
X0078809Y0192537D01*
X0078809Y0193571D01*
X0079843Y0194605D01*
X0081912Y0194605D01*
X0082946Y0193571D01*
X0085254Y0194605D02*
X0088357Y0194605D01*
X0089391Y0193571D01*
X0089391Y0189434D01*
X0088357Y0188400D01*
X0085254Y0188400D01*
X0085254Y0194605D01*
X0085155Y0243865D02*
X0084121Y0244899D01*
X0085155Y0243865D02*
X0086190Y0243865D01*
X0087224Y0244899D01*
X0087224Y0250070D01*
X0086190Y0250070D02*
X0088258Y0250070D01*
X0090567Y0249036D02*
X0090567Y0248001D01*
X0091601Y0246967D01*
X0093669Y0246967D01*
X0094704Y0245933D01*
X0094704Y0244899D01*
X0093669Y0243865D01*
X0091601Y0243865D01*
X0090567Y0244899D01*
X0090567Y0249036D02*
X0091601Y0250070D01*
X0093669Y0250070D01*
X0094704Y0249036D01*
X0097012Y0250070D02*
X0101149Y0250070D01*
X0099081Y0250070D02*
X0099081Y0243865D01*
X0114121Y0244899D02*
X0115155Y0243865D01*
X0116190Y0243865D01*
X0117224Y0244899D01*
X0117224Y0250070D01*
X0116190Y0250070D02*
X0118258Y0250070D01*
X0120567Y0249036D02*
X0120567Y0248001D01*
X0121601Y0246967D01*
X0123669Y0246967D01*
X0124704Y0245933D01*
X0124704Y0244899D01*
X0123669Y0243865D01*
X0121601Y0243865D01*
X0120567Y0244899D01*
X0120567Y0249036D02*
X0121601Y0250070D01*
X0123669Y0250070D01*
X0124704Y0249036D01*
X0127012Y0250070D02*
X0131149Y0250070D01*
X0129081Y0250070D02*
X0129081Y0243865D01*
X0144121Y0244899D02*
X0145155Y0243865D01*
X0146190Y0243865D01*
X0147224Y0244899D01*
X0147224Y0250070D01*
X0146190Y0250070D02*
X0148258Y0250070D01*
X0150567Y0249036D02*
X0150567Y0248001D01*
X0151601Y0246967D01*
X0153669Y0246967D01*
X0154704Y0245933D01*
X0154704Y0244899D01*
X0153669Y0243865D01*
X0151601Y0243865D01*
X0150567Y0244899D01*
X0150567Y0249036D02*
X0151601Y0250070D01*
X0153669Y0250070D01*
X0154704Y0249036D01*
X0157012Y0250070D02*
X0161149Y0250070D01*
X0159081Y0250070D02*
X0159081Y0243865D01*
X0183700Y0153605D02*
X0183700Y0148434D01*
X0184734Y0147400D01*
X0186803Y0147400D01*
X0187837Y0148434D01*
X0187837Y0153605D01*
X0190145Y0152571D02*
X0190145Y0151537D01*
X0191180Y0150503D01*
X0193248Y0150503D01*
X0194282Y0149468D01*
X0194282Y0148434D01*
X0193248Y0147400D01*
X0191180Y0147400D01*
X0190145Y0148434D01*
X0190145Y0152571D02*
X0191180Y0153605D01*
X0193248Y0153605D01*
X0194282Y0152571D01*
X0196591Y0153605D02*
X0199694Y0153605D01*
X0200728Y0152571D01*
X0200728Y0151537D01*
X0199694Y0150503D01*
X0196591Y0150503D01*
X0196591Y0153605D02*
X0196591Y0147400D01*
X0199694Y0147400D01*
X0200728Y0148434D01*
X0200728Y0149468D01*
X0199694Y0150503D01*
X0209482Y0150503D02*
X0213619Y0150503D01*
X0213619Y0151537D02*
X0211550Y0153605D01*
X0209482Y0151537D01*
X0209482Y0147400D01*
X0213619Y0147400D02*
X0213619Y0151537D01*
X0071149Y0250070D02*
X0067012Y0250070D01*
X0069081Y0250070D02*
X0069081Y0243865D01*
X0064704Y0244899D02*
X0063669Y0243865D01*
X0061601Y0243865D01*
X0060567Y0244899D01*
X0061601Y0246967D02*
X0063669Y0246967D01*
X0064704Y0245933D01*
X0064704Y0244899D01*
X0061601Y0246967D02*
X0060567Y0248001D01*
X0060567Y0249036D01*
X0061601Y0250070D01*
X0063669Y0250070D01*
X0064704Y0249036D01*
X0058258Y0250070D02*
X0056190Y0250070D01*
X0057224Y0250070D02*
X0057224Y0244899D01*
X0056190Y0243865D01*
X0055155Y0243865D01*
X0054121Y0244899D01*
X0041149Y0250070D02*
X0037012Y0250070D01*
X0039081Y0250070D02*
X0039081Y0243865D01*
X0034704Y0244899D02*
X0033669Y0243865D01*
X0031601Y0243865D01*
X0030567Y0244899D01*
X0031601Y0246967D02*
X0033669Y0246967D01*
X0034704Y0245933D01*
X0034704Y0244899D01*
X0031601Y0246967D02*
X0030567Y0248001D01*
X0030567Y0249036D01*
X0031601Y0250070D01*
X0033669Y0250070D01*
X0034704Y0249036D01*
X0028258Y0250070D02*
X0026190Y0250070D01*
X0027224Y0250070D02*
X0027224Y0244899D01*
X0026190Y0243865D01*
X0025155Y0243865D01*
X0024121Y0244899D01*
D13*
X0017402Y0028268D03*
X0017402Y0038268D03*
X0017402Y0048268D03*
X0017402Y0058268D03*
X0017402Y0068268D03*
X0017402Y0078268D03*
X0017402Y0088268D03*
X0017402Y0098268D03*
X0017402Y0108268D03*
X0017402Y0118268D03*
X0017402Y0128268D03*
X0017402Y0138268D03*
X0017402Y0148268D03*
X0017402Y0158268D03*
X0017402Y0168268D03*
X0017402Y0178268D03*
X0017402Y0188268D03*
X0017402Y0198268D03*
X0027402Y0198268D03*
X0027402Y0188268D03*
X0027402Y0178268D03*
X0027402Y0168268D03*
X0027402Y0158268D03*
X0027402Y0148268D03*
X0027402Y0138268D03*
X0027402Y0128268D03*
X0027402Y0118268D03*
X0027402Y0108268D03*
X0027402Y0098268D03*
X0027402Y0088268D03*
X0027402Y0078268D03*
X0027402Y0068268D03*
X0027402Y0058268D03*
X0027402Y0048268D03*
X0027402Y0038268D03*
X0027402Y0028268D03*
X0117402Y0028268D03*
X0117402Y0038268D03*
X0117402Y0048268D03*
X0117402Y0058268D03*
X0117402Y0068268D03*
X0117402Y0078268D03*
X0117402Y0088268D03*
X0117402Y0098268D03*
X0117402Y0108268D03*
X0117402Y0118268D03*
X0117402Y0128268D03*
X0117402Y0138268D03*
X0117402Y0148268D03*
X0117402Y0158268D03*
X0117402Y0168268D03*
X0117402Y0178268D03*
X0117402Y0188268D03*
X0117402Y0198268D03*
X0127402Y0198268D03*
X0127402Y0188268D03*
X0127402Y0178268D03*
X0127402Y0168268D03*
X0127402Y0158268D03*
X0127402Y0148268D03*
X0127402Y0138268D03*
X0127402Y0128268D03*
X0127402Y0118268D03*
X0127402Y0108268D03*
X0127402Y0098268D03*
X0127402Y0088268D03*
X0127402Y0078268D03*
X0127402Y0068268D03*
X0127402Y0058268D03*
X0127402Y0048268D03*
X0127402Y0038268D03*
X0127402Y0028268D03*
D14*
X0141300Y0044370D02*
X0141300Y0182165D01*
X0141289Y0183116D01*
X0141254Y0184067D01*
X0141197Y0185017D01*
X0141116Y0185965D01*
X0141013Y0186911D01*
X0140887Y0187854D01*
X0140738Y0188793D01*
X0140567Y0189729D01*
X0140372Y0190660D01*
X0140156Y0191587D01*
X0139917Y0192508D01*
X0139656Y0193423D01*
X0139373Y0194331D01*
X0139068Y0195232D01*
X0138742Y0196126D01*
X0138393Y0197011D01*
X0138024Y0197888D01*
X0137634Y0198756D01*
X0137222Y0199613D01*
X0136790Y0200461D01*
X0136338Y0201298D01*
X0135866Y0202124D01*
X0135374Y0202938D01*
X0134862Y0203740D01*
X0134331Y0204530D01*
X0133781Y0205306D01*
X0133213Y0206069D01*
X0132626Y0206818D01*
X0132021Y0207552D01*
X0131399Y0208272D01*
X0130759Y0208977D01*
X0130103Y0209665D01*
X0129430Y0210338D01*
X0128742Y0210994D01*
X0128037Y0211634D01*
X0127317Y0212256D01*
X0126583Y0212861D01*
X0125834Y0213448D01*
X0125071Y0214016D01*
X0124295Y0214566D01*
X0123505Y0215097D01*
X0122703Y0215609D01*
X0121889Y0216101D01*
X0121063Y0216573D01*
X0120226Y0217025D01*
X0119378Y0217457D01*
X0118521Y0217869D01*
X0117653Y0218259D01*
X0116776Y0218628D01*
X0115891Y0218977D01*
X0114997Y0219303D01*
X0114096Y0219608D01*
X0113188Y0219891D01*
X0112273Y0220152D01*
X0111352Y0220391D01*
X0110425Y0220607D01*
X0109494Y0220802D01*
X0108558Y0220973D01*
X0107619Y0221122D01*
X0106676Y0221248D01*
X0105730Y0221351D01*
X0104782Y0221432D01*
X0103832Y0221489D01*
X0102881Y0221524D01*
X0101930Y0221535D01*
X0042875Y0221535D01*
X0041924Y0221524D01*
X0040973Y0221489D01*
X0040023Y0221432D01*
X0039075Y0221351D01*
X0038129Y0221248D01*
X0037186Y0221122D01*
X0036247Y0220973D01*
X0035311Y0220802D01*
X0034380Y0220607D01*
X0033453Y0220391D01*
X0032532Y0220152D01*
X0031617Y0219891D01*
X0030709Y0219608D01*
X0029808Y0219303D01*
X0028914Y0218977D01*
X0028029Y0218628D01*
X0027152Y0218259D01*
X0026284Y0217869D01*
X0025427Y0217457D01*
X0024579Y0217025D01*
X0023742Y0216573D01*
X0022916Y0216101D01*
X0022102Y0215609D01*
X0021300Y0215097D01*
X0020510Y0214566D01*
X0019734Y0214016D01*
X0018971Y0213448D01*
X0018222Y0212861D01*
X0017488Y0212256D01*
X0016768Y0211634D01*
X0016063Y0210994D01*
X0015375Y0210338D01*
X0014702Y0209665D01*
X0014046Y0208977D01*
X0013406Y0208272D01*
X0012784Y0207552D01*
X0012179Y0206818D01*
X0011592Y0206069D01*
X0011024Y0205306D01*
X0010474Y0204530D01*
X0009943Y0203740D01*
X0009431Y0202938D01*
X0008939Y0202124D01*
X0008467Y0201298D01*
X0008015Y0200461D01*
X0007583Y0199613D01*
X0007171Y0198756D01*
X0006781Y0197888D01*
X0006412Y0197011D01*
X0006063Y0196126D01*
X0005737Y0195232D01*
X0005432Y0194331D01*
X0005149Y0193423D01*
X0004888Y0192508D01*
X0004649Y0191587D01*
X0004433Y0190660D01*
X0004238Y0189729D01*
X0004067Y0188793D01*
X0003918Y0187854D01*
X0003792Y0186911D01*
X0003689Y0185965D01*
X0003608Y0185017D01*
X0003551Y0184067D01*
X0003516Y0183116D01*
X0003505Y0182165D01*
X0003505Y0044370D01*
X0003516Y0043419D01*
X0003551Y0042468D01*
X0003608Y0041518D01*
X0003689Y0040570D01*
X0003792Y0039624D01*
X0003918Y0038681D01*
X0004067Y0037742D01*
X0004238Y0036806D01*
X0004433Y0035875D01*
X0004649Y0034948D01*
X0004888Y0034027D01*
X0005149Y0033112D01*
X0005432Y0032204D01*
X0005737Y0031303D01*
X0006063Y0030409D01*
X0006412Y0029524D01*
X0006781Y0028647D01*
X0007171Y0027779D01*
X0007583Y0026922D01*
X0008015Y0026074D01*
X0008467Y0025237D01*
X0008939Y0024411D01*
X0009431Y0023597D01*
X0009943Y0022795D01*
X0010474Y0022005D01*
X0011024Y0021229D01*
X0011592Y0020466D01*
X0012179Y0019717D01*
X0012784Y0018983D01*
X0013406Y0018263D01*
X0014046Y0017558D01*
X0014702Y0016870D01*
X0015375Y0016197D01*
X0016063Y0015541D01*
X0016768Y0014901D01*
X0017488Y0014279D01*
X0018222Y0013674D01*
X0018971Y0013087D01*
X0019734Y0012519D01*
X0020510Y0011969D01*
X0021300Y0011438D01*
X0022102Y0010926D01*
X0022916Y0010434D01*
X0023742Y0009962D01*
X0024579Y0009510D01*
X0025427Y0009078D01*
X0026284Y0008666D01*
X0027152Y0008276D01*
X0028029Y0007907D01*
X0028914Y0007558D01*
X0029808Y0007232D01*
X0030709Y0006927D01*
X0031617Y0006644D01*
X0032532Y0006383D01*
X0033453Y0006144D01*
X0034380Y0005928D01*
X0035311Y0005733D01*
X0036247Y0005562D01*
X0037186Y0005413D01*
X0038129Y0005287D01*
X0039075Y0005184D01*
X0040023Y0005103D01*
X0040973Y0005046D01*
X0041924Y0005011D01*
X0042875Y0005000D01*
X0101930Y0005000D01*
X0102881Y0005011D01*
X0103832Y0005046D01*
X0104782Y0005103D01*
X0105730Y0005184D01*
X0106676Y0005287D01*
X0107619Y0005413D01*
X0108558Y0005562D01*
X0109494Y0005733D01*
X0110425Y0005928D01*
X0111352Y0006144D01*
X0112273Y0006383D01*
X0113188Y0006644D01*
X0114096Y0006927D01*
X0114997Y0007232D01*
X0115891Y0007558D01*
X0116776Y0007907D01*
X0117653Y0008276D01*
X0118521Y0008666D01*
X0119378Y0009078D01*
X0120226Y0009510D01*
X0121063Y0009962D01*
X0121889Y0010434D01*
X0122703Y0010926D01*
X0123505Y0011438D01*
X0124295Y0011969D01*
X0125071Y0012519D01*
X0125834Y0013087D01*
X0126583Y0013674D01*
X0127317Y0014279D01*
X0128037Y0014901D01*
X0128742Y0015541D01*
X0129430Y0016197D01*
X0130103Y0016870D01*
X0130759Y0017558D01*
X0131399Y0018263D01*
X0132021Y0018983D01*
X0132626Y0019717D01*
X0133213Y0020466D01*
X0133781Y0021229D01*
X0134331Y0022005D01*
X0134862Y0022795D01*
X0135374Y0023597D01*
X0135866Y0024411D01*
X0136338Y0025237D01*
X0136790Y0026074D01*
X0137222Y0026922D01*
X0137634Y0027779D01*
X0138024Y0028647D01*
X0138393Y0029524D01*
X0138742Y0030409D01*
X0139068Y0031303D01*
X0139373Y0032204D01*
X0139656Y0033112D01*
X0139917Y0034027D01*
X0140156Y0034948D01*
X0140372Y0035875D01*
X0140567Y0036806D01*
X0140738Y0037742D01*
X0140887Y0038681D01*
X0141013Y0039624D01*
X0141116Y0040570D01*
X0141197Y0041518D01*
X0141254Y0042468D01*
X0141289Y0043419D01*
X0141300Y0044370D01*
D15*
X0172233Y0144858D02*
X0172233Y0176000D01*
X0172233Y0194031D02*
X0172233Y0199976D01*
X0223926Y0199976D01*
X0223926Y0194031D01*
X0223926Y0176000D02*
X0223926Y0144858D01*
X0172233Y0144858D01*
X0153800Y0223000D02*
X0153800Y0227000D01*
X0123800Y0227000D02*
X0123800Y0223000D01*
X0093800Y0223000D02*
X0093800Y0227000D01*
X0063800Y0227000D02*
X0063800Y0223000D01*
X0033800Y0223000D02*
X0033800Y0227000D01*
D16*
X0183709Y0202693D02*
X0183711Y0202741D01*
X0183717Y0202789D01*
X0183727Y0202836D01*
X0183740Y0202882D01*
X0183758Y0202927D01*
X0183778Y0202971D01*
X0183803Y0203013D01*
X0183831Y0203052D01*
X0183861Y0203089D01*
X0183895Y0203123D01*
X0183932Y0203155D01*
X0183970Y0203184D01*
X0184011Y0203209D01*
X0184054Y0203231D01*
X0184099Y0203249D01*
X0184145Y0203263D01*
X0184192Y0203274D01*
X0184240Y0203281D01*
X0184288Y0203284D01*
X0184336Y0203283D01*
X0184384Y0203278D01*
X0184432Y0203269D01*
X0184478Y0203257D01*
X0184523Y0203240D01*
X0184567Y0203220D01*
X0184609Y0203197D01*
X0184649Y0203170D01*
X0184687Y0203140D01*
X0184722Y0203107D01*
X0184754Y0203071D01*
X0184784Y0203033D01*
X0184810Y0202992D01*
X0184832Y0202949D01*
X0184852Y0202905D01*
X0184867Y0202860D01*
X0184879Y0202813D01*
X0184887Y0202765D01*
X0184891Y0202717D01*
X0184891Y0202669D01*
X0184887Y0202621D01*
X0184879Y0202573D01*
X0184867Y0202526D01*
X0184852Y0202481D01*
X0184832Y0202437D01*
X0184810Y0202394D01*
X0184784Y0202353D01*
X0184754Y0202315D01*
X0184722Y0202279D01*
X0184687Y0202246D01*
X0184649Y0202216D01*
X0184609Y0202189D01*
X0184567Y0202166D01*
X0184523Y0202146D01*
X0184478Y0202129D01*
X0184432Y0202117D01*
X0184384Y0202108D01*
X0184336Y0202103D01*
X0184288Y0202102D01*
X0184240Y0202105D01*
X0184192Y0202112D01*
X0184145Y0202123D01*
X0184099Y0202137D01*
X0184054Y0202155D01*
X0184011Y0202177D01*
X0183970Y0202202D01*
X0183932Y0202231D01*
X0183895Y0202263D01*
X0183861Y0202297D01*
X0183831Y0202334D01*
X0183803Y0202373D01*
X0183778Y0202415D01*
X0183758Y0202459D01*
X0183740Y0202504D01*
X0183727Y0202550D01*
X0183717Y0202597D01*
X0183711Y0202645D01*
X0183709Y0202693D01*
M02*
