G75*
%MOIN*%
%OFA0B0*%
%FSLAX25Y25*%
%IPPOS*%
%LPD*%
%AMOC8*
5,1,8,0,0,1.08239X$1,22.5*
%
%ADD10C,0.04900*%
%ADD11C,0.05071*%
%ADD12C,0.12677*%
%ADD13C,0.03956*%
%ADD14C,0.00600*%
%ADD15C,0.02400*%
D10*
X0017402Y0028268D03*
X0017402Y0038268D03*
X0017402Y0048268D03*
X0017402Y0058268D03*
X0017402Y0068268D03*
X0017402Y0078268D03*
X0017402Y0088268D03*
X0017402Y0098268D03*
X0017402Y0108268D03*
X0017402Y0118268D03*
X0017402Y0128268D03*
X0017402Y0138268D03*
X0017402Y0148268D03*
X0017402Y0158268D03*
X0017402Y0168268D03*
X0017402Y0178268D03*
X0017402Y0188268D03*
X0017402Y0198268D03*
X0027402Y0198268D03*
X0027402Y0188268D03*
X0027402Y0178268D03*
X0027402Y0168268D03*
X0027402Y0158268D03*
X0027402Y0148268D03*
X0027402Y0138268D03*
X0027402Y0128268D03*
X0027402Y0118268D03*
X0027402Y0108268D03*
X0027402Y0098268D03*
X0027402Y0088268D03*
X0027402Y0078268D03*
X0027402Y0068268D03*
X0027402Y0058268D03*
X0027402Y0048268D03*
X0027402Y0038268D03*
X0027402Y0028268D03*
X0117402Y0028268D03*
X0117402Y0038268D03*
X0117402Y0048268D03*
X0117402Y0058268D03*
X0117402Y0068268D03*
X0117402Y0078268D03*
X0117402Y0088268D03*
X0117402Y0098268D03*
X0117402Y0108268D03*
X0117402Y0118268D03*
X0117402Y0128268D03*
X0117402Y0138268D03*
X0117402Y0148268D03*
X0117402Y0158268D03*
X0117402Y0168268D03*
X0117402Y0178268D03*
X0117402Y0188268D03*
X0117402Y0198268D03*
X0127402Y0198268D03*
X0127402Y0188268D03*
X0127402Y0178268D03*
X0127402Y0168268D03*
X0127402Y0158268D03*
X0127402Y0148268D03*
X0127402Y0138268D03*
X0127402Y0128268D03*
X0127402Y0118268D03*
X0127402Y0108268D03*
X0127402Y0098268D03*
X0127402Y0088268D03*
X0127402Y0078268D03*
X0127402Y0068268D03*
X0127402Y0058268D03*
X0127402Y0048268D03*
X0127402Y0038268D03*
X0127402Y0028268D03*
D11*
X0184300Y0196000D03*
X0194143Y0196000D03*
X0202017Y0196000D03*
X0211859Y0196000D03*
D12*
X0223946Y0185331D03*
X0172213Y0185331D03*
D13*
X0154548Y0238701D03*
X0146674Y0238701D03*
X0124548Y0238701D03*
X0116674Y0238701D03*
X0094548Y0238701D03*
X0086674Y0238701D03*
X0064548Y0238701D03*
X0056674Y0238701D03*
X0034548Y0238701D03*
X0026674Y0238701D03*
D14*
X0004900Y0263400D02*
X0004900Y0006600D01*
X0139700Y0006600D01*
X0139700Y0144663D01*
X0140637Y0145600D01*
X0242700Y0145600D01*
X0242700Y0220400D01*
X0174637Y0220400D01*
X0173700Y0221337D01*
X0173700Y0263400D01*
X0004900Y0263400D01*
X0004900Y0262958D02*
X0008586Y0262958D01*
X0009258Y0263237D02*
X0007333Y0262440D01*
X0005860Y0260967D01*
X0005063Y0259042D01*
X0005063Y0256958D01*
X0005860Y0255033D01*
X0007333Y0253560D01*
X0009258Y0252763D01*
X0011342Y0252763D01*
X0013267Y0253560D01*
X0014740Y0255033D01*
X0015537Y0256958D01*
X0015537Y0259042D01*
X0014740Y0260967D01*
X0013267Y0262440D01*
X0011342Y0263237D01*
X0009258Y0263237D01*
X0007254Y0262360D02*
X0004900Y0262360D01*
X0004900Y0261761D02*
X0006655Y0261761D01*
X0006057Y0261163D02*
X0004900Y0261163D01*
X0004900Y0260564D02*
X0005694Y0260564D01*
X0005446Y0259966D02*
X0004900Y0259966D01*
X0004900Y0259367D02*
X0005198Y0259367D01*
X0005063Y0258769D02*
X0004900Y0258769D01*
X0004900Y0258170D02*
X0005063Y0258170D01*
X0005063Y0257572D02*
X0004900Y0257572D01*
X0004900Y0256973D02*
X0005063Y0256973D01*
X0004900Y0256375D02*
X0005305Y0256375D01*
X0005553Y0255776D02*
X0004900Y0255776D01*
X0004900Y0255178D02*
X0005801Y0255178D01*
X0006315Y0254579D02*
X0004900Y0254579D01*
X0004900Y0253981D02*
X0006913Y0253981D01*
X0007763Y0253382D02*
X0004900Y0253382D01*
X0004900Y0252784D02*
X0009208Y0252784D01*
X0011392Y0252784D02*
X0167208Y0252784D01*
X0167258Y0252763D02*
X0169342Y0252763D01*
X0171267Y0253560D01*
X0172740Y0255033D01*
X0173537Y0256958D01*
X0173537Y0259042D01*
X0172740Y0260967D01*
X0171267Y0262440D01*
X0169342Y0263237D01*
X0167258Y0263237D01*
X0165333Y0262440D01*
X0163860Y0260967D01*
X0163063Y0259042D01*
X0163063Y0256958D01*
X0163860Y0255033D01*
X0165333Y0253560D01*
X0167258Y0252763D01*
X0165763Y0253382D02*
X0012837Y0253382D01*
X0013687Y0253981D02*
X0164913Y0253981D01*
X0164315Y0254579D02*
X0014285Y0254579D01*
X0014799Y0255178D02*
X0163801Y0255178D01*
X0163553Y0255776D02*
X0015047Y0255776D01*
X0015295Y0256375D02*
X0163305Y0256375D01*
X0163063Y0256973D02*
X0015537Y0256973D01*
X0015537Y0257572D02*
X0163063Y0257572D01*
X0163063Y0258170D02*
X0015537Y0258170D01*
X0015537Y0258769D02*
X0163063Y0258769D01*
X0163198Y0259367D02*
X0015402Y0259367D01*
X0015154Y0259966D02*
X0163446Y0259966D01*
X0163694Y0260564D02*
X0014906Y0260564D01*
X0014543Y0261163D02*
X0164057Y0261163D01*
X0164655Y0261761D02*
X0013945Y0261761D01*
X0013346Y0262360D02*
X0165254Y0262360D01*
X0166586Y0262958D02*
X0012014Y0262958D01*
X0004900Y0252185D02*
X0173700Y0252185D01*
X0173700Y0251587D02*
X0004900Y0251587D01*
X0004900Y0250988D02*
X0173700Y0250988D01*
X0173700Y0250390D02*
X0004900Y0250390D01*
X0004900Y0249791D02*
X0173700Y0249791D01*
X0173700Y0249193D02*
X0004900Y0249193D01*
X0004900Y0248594D02*
X0173700Y0248594D01*
X0173700Y0247996D02*
X0004900Y0247996D01*
X0004900Y0247397D02*
X0173700Y0247397D01*
X0173700Y0246799D02*
X0004900Y0246799D01*
X0004900Y0246200D02*
X0173700Y0246200D01*
X0173700Y0245602D02*
X0004900Y0245602D01*
X0004900Y0245003D02*
X0173700Y0245003D01*
X0173700Y0244405D02*
X0004900Y0244405D01*
X0004900Y0243806D02*
X0173700Y0243806D01*
X0173700Y0243208D02*
X0004900Y0243208D01*
X0004900Y0242609D02*
X0173700Y0242609D01*
X0173700Y0242010D02*
X0004900Y0242010D01*
X0004900Y0241412D02*
X0024749Y0241412D01*
X0024817Y0241480D02*
X0023895Y0240558D01*
X0023396Y0239353D01*
X0023396Y0238049D01*
X0023895Y0236844D01*
X0024817Y0235922D01*
X0026022Y0235423D01*
X0027326Y0235423D01*
X0028531Y0235922D01*
X0029453Y0236844D01*
X0029952Y0238049D01*
X0029952Y0239353D01*
X0029453Y0240558D01*
X0028531Y0241480D01*
X0027326Y0241979D01*
X0026022Y0241979D01*
X0024817Y0241480D01*
X0024151Y0240813D02*
X0004900Y0240813D01*
X0004900Y0240215D02*
X0023753Y0240215D01*
X0023505Y0239616D02*
X0004900Y0239616D01*
X0004900Y0239018D02*
X0023396Y0239018D01*
X0023396Y0238419D02*
X0004900Y0238419D01*
X0004900Y0237821D02*
X0023490Y0237821D01*
X0023738Y0237222D02*
X0004900Y0237222D01*
X0004900Y0236624D02*
X0024115Y0236624D01*
X0024714Y0236025D02*
X0004900Y0236025D01*
X0004900Y0235427D02*
X0026012Y0235427D01*
X0027336Y0235427D02*
X0033886Y0235427D01*
X0033896Y0235423D02*
X0035200Y0235423D01*
X0036405Y0235922D01*
X0037327Y0236844D01*
X0037826Y0238049D01*
X0037826Y0239353D01*
X0037327Y0240558D01*
X0036405Y0241480D01*
X0035200Y0241979D01*
X0033896Y0241979D01*
X0032691Y0241480D01*
X0031769Y0240558D01*
X0031270Y0239353D01*
X0031270Y0238049D01*
X0031769Y0236844D01*
X0032691Y0235922D01*
X0033896Y0235423D01*
X0035210Y0235427D02*
X0056012Y0235427D01*
X0056022Y0235423D02*
X0057326Y0235423D01*
X0058531Y0235922D01*
X0059453Y0236844D01*
X0059952Y0238049D01*
X0059952Y0239353D01*
X0059453Y0240558D01*
X0058531Y0241480D01*
X0057326Y0241979D01*
X0056022Y0241979D01*
X0054817Y0241480D01*
X0053895Y0240558D01*
X0053396Y0239353D01*
X0053396Y0238049D01*
X0053895Y0236844D01*
X0054817Y0235922D01*
X0056022Y0235423D01*
X0057336Y0235427D02*
X0063886Y0235427D01*
X0063896Y0235423D02*
X0065200Y0235423D01*
X0066405Y0235922D01*
X0067327Y0236844D01*
X0067826Y0238049D01*
X0067826Y0239353D01*
X0067327Y0240558D01*
X0066405Y0241480D01*
X0065200Y0241979D01*
X0063896Y0241979D01*
X0062691Y0241480D01*
X0061769Y0240558D01*
X0061270Y0239353D01*
X0061270Y0238049D01*
X0061769Y0236844D01*
X0062691Y0235922D01*
X0063896Y0235423D01*
X0065210Y0235427D02*
X0086012Y0235427D01*
X0086022Y0235423D02*
X0087326Y0235423D01*
X0088531Y0235922D01*
X0089453Y0236844D01*
X0089952Y0238049D01*
X0089952Y0239353D01*
X0089453Y0240558D01*
X0088531Y0241480D01*
X0087326Y0241979D01*
X0086022Y0241979D01*
X0084817Y0241480D01*
X0083895Y0240558D01*
X0083396Y0239353D01*
X0083396Y0238049D01*
X0083895Y0236844D01*
X0084817Y0235922D01*
X0086022Y0235423D01*
X0087336Y0235427D02*
X0093886Y0235427D01*
X0093896Y0235423D02*
X0095200Y0235423D01*
X0096405Y0235922D01*
X0097327Y0236844D01*
X0097826Y0238049D01*
X0097826Y0239353D01*
X0097327Y0240558D01*
X0096405Y0241480D01*
X0095200Y0241979D01*
X0093896Y0241979D01*
X0092691Y0241480D01*
X0091769Y0240558D01*
X0091270Y0239353D01*
X0091270Y0238049D01*
X0091769Y0236844D01*
X0092691Y0235922D01*
X0093896Y0235423D01*
X0095210Y0235427D02*
X0116012Y0235427D01*
X0116022Y0235423D02*
X0117326Y0235423D01*
X0118531Y0235922D01*
X0119453Y0236844D01*
X0119952Y0238049D01*
X0119952Y0239353D01*
X0119453Y0240558D01*
X0118531Y0241480D01*
X0117326Y0241979D01*
X0116022Y0241979D01*
X0114817Y0241480D01*
X0113895Y0240558D01*
X0113396Y0239353D01*
X0113396Y0238049D01*
X0113895Y0236844D01*
X0114817Y0235922D01*
X0116022Y0235423D01*
X0117336Y0235427D02*
X0123886Y0235427D01*
X0123896Y0235423D02*
X0125200Y0235423D01*
X0126405Y0235922D01*
X0127327Y0236844D01*
X0127826Y0238049D01*
X0127826Y0239353D01*
X0127327Y0240558D01*
X0126405Y0241480D01*
X0125200Y0241979D01*
X0123896Y0241979D01*
X0122691Y0241480D01*
X0121769Y0240558D01*
X0121270Y0239353D01*
X0121270Y0238049D01*
X0121769Y0236844D01*
X0122691Y0235922D01*
X0123896Y0235423D01*
X0125210Y0235427D02*
X0146012Y0235427D01*
X0146022Y0235423D02*
X0147326Y0235423D01*
X0148531Y0235922D01*
X0149453Y0236844D01*
X0149952Y0238049D01*
X0149952Y0239353D01*
X0149453Y0240558D01*
X0148531Y0241480D01*
X0147326Y0241979D01*
X0146022Y0241979D01*
X0144817Y0241480D01*
X0143895Y0240558D01*
X0143396Y0239353D01*
X0143396Y0238049D01*
X0143895Y0236844D01*
X0144817Y0235922D01*
X0146022Y0235423D01*
X0147336Y0235427D02*
X0153886Y0235427D01*
X0153896Y0235423D02*
X0155200Y0235423D01*
X0156405Y0235922D01*
X0157327Y0236844D01*
X0157826Y0238049D01*
X0157826Y0239353D01*
X0157327Y0240558D01*
X0156405Y0241480D01*
X0155200Y0241979D01*
X0153896Y0241979D01*
X0152691Y0241480D01*
X0151769Y0240558D01*
X0151270Y0239353D01*
X0151270Y0238049D01*
X0151769Y0236844D01*
X0152691Y0235922D01*
X0153896Y0235423D01*
X0155210Y0235427D02*
X0173700Y0235427D01*
X0173700Y0236025D02*
X0156508Y0236025D01*
X0157107Y0236624D02*
X0173700Y0236624D01*
X0173700Y0237222D02*
X0157484Y0237222D01*
X0157732Y0237821D02*
X0173700Y0237821D01*
X0173700Y0238419D02*
X0157826Y0238419D01*
X0157826Y0239018D02*
X0173700Y0239018D01*
X0173700Y0239616D02*
X0157717Y0239616D01*
X0157469Y0240215D02*
X0173700Y0240215D01*
X0173700Y0240813D02*
X0157071Y0240813D01*
X0156473Y0241412D02*
X0173700Y0241412D01*
X0173700Y0234828D02*
X0004900Y0234828D01*
X0004900Y0234230D02*
X0173700Y0234230D01*
X0173700Y0233631D02*
X0004900Y0233631D01*
X0004900Y0233033D02*
X0173700Y0233033D01*
X0173700Y0232434D02*
X0004900Y0232434D01*
X0004900Y0231836D02*
X0173700Y0231836D01*
X0173700Y0231237D02*
X0004900Y0231237D01*
X0004900Y0230639D02*
X0173700Y0230639D01*
X0173700Y0230040D02*
X0004900Y0230040D01*
X0004900Y0229442D02*
X0173700Y0229442D01*
X0173700Y0228843D02*
X0004900Y0228843D01*
X0004900Y0228245D02*
X0173700Y0228245D01*
X0173700Y0227646D02*
X0004900Y0227646D01*
X0004900Y0227048D02*
X0040812Y0227048D01*
X0040884Y0227119D02*
X0040181Y0226416D01*
X0039800Y0225497D01*
X0039800Y0224503D01*
X0040181Y0223584D01*
X0040884Y0222881D01*
X0041803Y0222500D01*
X0042797Y0222500D01*
X0043716Y0222881D01*
X0044419Y0223584D01*
X0044800Y0224503D01*
X0044800Y0225497D01*
X0044419Y0226416D01*
X0043716Y0227119D01*
X0042797Y0227500D01*
X0041803Y0227500D01*
X0040884Y0227119D01*
X0040214Y0226449D02*
X0004900Y0226449D01*
X0004900Y0225851D02*
X0039946Y0225851D01*
X0039800Y0225252D02*
X0004900Y0225252D01*
X0004900Y0224654D02*
X0039800Y0224654D01*
X0039985Y0224055D02*
X0004900Y0224055D01*
X0004900Y0223457D02*
X0040308Y0223457D01*
X0040938Y0222858D02*
X0012256Y0222858D01*
X0011342Y0223237D02*
X0009258Y0223237D01*
X0007333Y0222440D01*
X0005860Y0220967D01*
X0005063Y0219042D01*
X0005063Y0216958D01*
X0005860Y0215033D01*
X0007333Y0213560D01*
X0009258Y0212763D01*
X0011342Y0212763D01*
X0013267Y0213560D01*
X0014740Y0215033D01*
X0015537Y0216958D01*
X0015537Y0219042D01*
X0014740Y0220967D01*
X0013267Y0222440D01*
X0011342Y0223237D01*
X0013447Y0222260D02*
X0173700Y0222260D01*
X0173700Y0222858D02*
X0163662Y0222858D01*
X0163716Y0222881D02*
X0164419Y0223584D01*
X0164800Y0224503D01*
X0164800Y0225497D01*
X0164419Y0226416D01*
X0163716Y0227119D01*
X0162797Y0227500D01*
X0161803Y0227500D01*
X0160884Y0227119D01*
X0160181Y0226416D01*
X0159800Y0225497D01*
X0159800Y0224503D01*
X0160181Y0223584D01*
X0160884Y0222881D01*
X0161803Y0222500D01*
X0162797Y0222500D01*
X0163716Y0222881D01*
X0164292Y0223457D02*
X0173700Y0223457D01*
X0173700Y0224055D02*
X0164615Y0224055D01*
X0164800Y0224654D02*
X0173700Y0224654D01*
X0173700Y0225252D02*
X0164800Y0225252D01*
X0164654Y0225851D02*
X0173700Y0225851D01*
X0173700Y0226449D02*
X0164386Y0226449D01*
X0163788Y0227048D02*
X0173700Y0227048D01*
X0173700Y0221661D02*
X0014045Y0221661D01*
X0014644Y0221063D02*
X0119827Y0221063D01*
X0119884Y0221119D02*
X0119181Y0220416D01*
X0118800Y0219497D01*
X0118800Y0218503D01*
X0119181Y0217584D01*
X0119884Y0216881D01*
X0120803Y0216500D01*
X0121797Y0216500D01*
X0122716Y0216881D01*
X0123419Y0217584D01*
X0123800Y0218503D01*
X0123800Y0219497D01*
X0123419Y0220416D01*
X0122716Y0221119D01*
X0121797Y0221500D01*
X0120803Y0221500D01*
X0119884Y0221119D01*
X0119229Y0220464D02*
X0014948Y0220464D01*
X0015196Y0219866D02*
X0118953Y0219866D01*
X0118800Y0219267D02*
X0015444Y0219267D01*
X0015537Y0218669D02*
X0118800Y0218669D01*
X0118979Y0218070D02*
X0015537Y0218070D01*
X0015537Y0217472D02*
X0119293Y0217472D01*
X0119902Y0216873D02*
X0015502Y0216873D01*
X0015254Y0216274D02*
X0163159Y0216274D01*
X0163063Y0216042D02*
X0163860Y0217967D01*
X0165333Y0219440D01*
X0167258Y0220237D01*
X0169342Y0220237D01*
X0171267Y0219440D01*
X0172740Y0217967D01*
X0173537Y0216042D01*
X0173537Y0213958D01*
X0172740Y0212033D01*
X0171267Y0210560D01*
X0169342Y0209763D01*
X0167258Y0209763D01*
X0165333Y0210560D01*
X0163860Y0212033D01*
X0163063Y0213958D01*
X0163063Y0216042D01*
X0163063Y0215676D02*
X0015006Y0215676D01*
X0014758Y0215077D02*
X0163063Y0215077D01*
X0163063Y0214479D02*
X0014185Y0214479D01*
X0013587Y0213880D02*
X0163095Y0213880D01*
X0163343Y0213282D02*
X0012595Y0213282D01*
X0008005Y0213282D02*
X0004900Y0213282D01*
X0004900Y0213880D02*
X0007013Y0213880D01*
X0006415Y0214479D02*
X0004900Y0214479D01*
X0004900Y0215077D02*
X0005842Y0215077D01*
X0005594Y0215676D02*
X0004900Y0215676D01*
X0004900Y0216274D02*
X0005346Y0216274D01*
X0005098Y0216873D02*
X0004900Y0216873D01*
X0004900Y0217472D02*
X0005063Y0217472D01*
X0005063Y0218070D02*
X0004900Y0218070D01*
X0004900Y0218669D02*
X0005063Y0218669D01*
X0005156Y0219267D02*
X0004900Y0219267D01*
X0004900Y0219866D02*
X0005404Y0219866D01*
X0005652Y0220464D02*
X0004900Y0220464D01*
X0004900Y0221063D02*
X0005956Y0221063D01*
X0006555Y0221661D02*
X0004900Y0221661D01*
X0004900Y0222260D02*
X0007153Y0222260D01*
X0008344Y0222858D02*
X0004900Y0222858D01*
X0004900Y0212683D02*
X0163591Y0212683D01*
X0163839Y0212085D02*
X0004900Y0212085D01*
X0004900Y0211486D02*
X0164407Y0211486D01*
X0165006Y0210888D02*
X0004900Y0210888D01*
X0004900Y0210289D02*
X0165987Y0210289D01*
X0170613Y0210289D02*
X0234987Y0210289D01*
X0234333Y0210560D02*
X0236258Y0209763D01*
X0238342Y0209763D01*
X0240267Y0210560D01*
X0241740Y0212033D01*
X0242537Y0213958D01*
X0242537Y0216042D01*
X0241740Y0217967D01*
X0240267Y0219440D01*
X0238342Y0220237D01*
X0236258Y0220237D01*
X0234333Y0219440D01*
X0232860Y0217967D01*
X0232063Y0216042D01*
X0232063Y0213958D01*
X0232860Y0212033D01*
X0234333Y0210560D01*
X0234006Y0210888D02*
X0171594Y0210888D01*
X0172193Y0211486D02*
X0233407Y0211486D01*
X0232839Y0212085D02*
X0172761Y0212085D01*
X0173009Y0212683D02*
X0232591Y0212683D01*
X0232343Y0213282D02*
X0173257Y0213282D01*
X0173505Y0213880D02*
X0232095Y0213880D01*
X0232063Y0214479D02*
X0173537Y0214479D01*
X0173537Y0215077D02*
X0232063Y0215077D01*
X0232063Y0215676D02*
X0173537Y0215676D01*
X0173441Y0216274D02*
X0232159Y0216274D01*
X0232407Y0216873D02*
X0173193Y0216873D01*
X0172945Y0217472D02*
X0232655Y0217472D01*
X0232964Y0218070D02*
X0172636Y0218070D01*
X0172038Y0218669D02*
X0233562Y0218669D01*
X0234161Y0219267D02*
X0171439Y0219267D01*
X0170238Y0219866D02*
X0235362Y0219866D01*
X0239238Y0219866D02*
X0242700Y0219866D01*
X0242700Y0219267D02*
X0240439Y0219267D01*
X0241038Y0218669D02*
X0242700Y0218669D01*
X0242700Y0218070D02*
X0241636Y0218070D01*
X0241945Y0217472D02*
X0242700Y0217472D01*
X0242700Y0216873D02*
X0242193Y0216873D01*
X0242441Y0216274D02*
X0242700Y0216274D01*
X0242700Y0215676D02*
X0242537Y0215676D01*
X0242537Y0215077D02*
X0242700Y0215077D01*
X0242700Y0214479D02*
X0242537Y0214479D01*
X0242505Y0213880D02*
X0242700Y0213880D01*
X0242700Y0213282D02*
X0242257Y0213282D01*
X0242009Y0212683D02*
X0242700Y0212683D01*
X0242700Y0212085D02*
X0241761Y0212085D01*
X0241193Y0211486D02*
X0242700Y0211486D01*
X0242700Y0210888D02*
X0240594Y0210888D01*
X0239613Y0210289D02*
X0242700Y0210289D01*
X0242700Y0209691D02*
X0004900Y0209691D01*
X0004900Y0209092D02*
X0242700Y0209092D01*
X0242700Y0208494D02*
X0004900Y0208494D01*
X0004900Y0207895D02*
X0242700Y0207895D01*
X0242700Y0207297D02*
X0004900Y0207297D01*
X0004900Y0206698D02*
X0242700Y0206698D01*
X0242700Y0206100D02*
X0004900Y0206100D01*
X0004900Y0205501D02*
X0242700Y0205501D01*
X0242700Y0204903D02*
X0004900Y0204903D01*
X0004900Y0204304D02*
X0242700Y0204304D01*
X0242700Y0203706D02*
X0004900Y0203706D01*
X0004900Y0203107D02*
X0242700Y0203107D01*
X0242700Y0202509D02*
X0004900Y0202509D01*
X0004900Y0201910D02*
X0016397Y0201910D01*
X0016656Y0202018D02*
X0015278Y0201447D01*
X0014223Y0200392D01*
X0013652Y0199014D01*
X0013652Y0197522D01*
X0014223Y0196144D01*
X0015278Y0195089D01*
X0016656Y0194518D01*
X0018148Y0194518D01*
X0019527Y0195089D01*
X0020581Y0196144D01*
X0021152Y0197522D01*
X0021152Y0199014D01*
X0020581Y0200392D01*
X0019527Y0201447D01*
X0018148Y0202018D01*
X0016656Y0202018D01*
X0015143Y0201312D02*
X0004900Y0201312D01*
X0004900Y0200713D02*
X0014545Y0200713D01*
X0014108Y0200115D02*
X0004900Y0200115D01*
X0004900Y0199516D02*
X0013861Y0199516D01*
X0013652Y0198918D02*
X0004900Y0198918D01*
X0004900Y0198319D02*
X0013652Y0198319D01*
X0013652Y0197721D02*
X0004900Y0197721D01*
X0004900Y0197122D02*
X0013818Y0197122D01*
X0014066Y0196524D02*
X0004900Y0196524D01*
X0004900Y0195925D02*
X0014442Y0195925D01*
X0015040Y0195327D02*
X0004900Y0195327D01*
X0004900Y0194728D02*
X0016149Y0194728D01*
X0018656Y0194728D02*
X0026149Y0194728D01*
X0026656Y0194518D02*
X0028148Y0194518D01*
X0029527Y0195089D01*
X0030581Y0196144D01*
X0031152Y0197522D01*
X0031152Y0199014D01*
X0030581Y0200392D01*
X0029527Y0201447D01*
X0028148Y0202018D01*
X0026656Y0202018D01*
X0025278Y0201447D01*
X0024223Y0200392D01*
X0023652Y0199014D01*
X0023652Y0197522D01*
X0024223Y0196144D01*
X0025278Y0195089D01*
X0026656Y0194518D01*
X0025040Y0195327D02*
X0019765Y0195327D01*
X0020363Y0195925D02*
X0024442Y0195925D01*
X0024066Y0196524D02*
X0020739Y0196524D01*
X0020987Y0197122D02*
X0023818Y0197122D01*
X0023652Y0197721D02*
X0021152Y0197721D01*
X0021152Y0198319D02*
X0023652Y0198319D01*
X0023652Y0198918D02*
X0021152Y0198918D01*
X0020944Y0199516D02*
X0023861Y0199516D01*
X0024108Y0200115D02*
X0020696Y0200115D01*
X0020260Y0200713D02*
X0024545Y0200713D01*
X0025143Y0201312D02*
X0019662Y0201312D01*
X0018408Y0201910D02*
X0026397Y0201910D01*
X0028408Y0201910D02*
X0116397Y0201910D01*
X0116656Y0202018D02*
X0115278Y0201447D01*
X0114223Y0200392D01*
X0113652Y0199014D01*
X0113652Y0197522D01*
X0114223Y0196144D01*
X0115278Y0195089D01*
X0116656Y0194518D01*
X0118148Y0194518D01*
X0119527Y0195089D01*
X0120581Y0196144D01*
X0121152Y0197522D01*
X0121152Y0199014D01*
X0120581Y0200392D01*
X0119527Y0201447D01*
X0118148Y0202018D01*
X0116656Y0202018D01*
X0115143Y0201312D02*
X0029662Y0201312D01*
X0030260Y0200713D02*
X0114545Y0200713D01*
X0114108Y0200115D02*
X0030696Y0200115D01*
X0030944Y0199516D02*
X0113861Y0199516D01*
X0113652Y0198918D02*
X0031152Y0198918D01*
X0031152Y0198319D02*
X0113652Y0198319D01*
X0113652Y0197721D02*
X0031152Y0197721D01*
X0030987Y0197122D02*
X0113818Y0197122D01*
X0114066Y0196524D02*
X0030739Y0196524D01*
X0030363Y0195925D02*
X0114442Y0195925D01*
X0115040Y0195327D02*
X0029765Y0195327D01*
X0028656Y0194728D02*
X0116149Y0194728D01*
X0118656Y0194728D02*
X0126149Y0194728D01*
X0126656Y0194518D02*
X0128148Y0194518D01*
X0129527Y0195089D01*
X0130581Y0196144D01*
X0131152Y0197522D01*
X0131152Y0199014D01*
X0130581Y0200392D01*
X0129527Y0201447D01*
X0128148Y0202018D01*
X0126656Y0202018D01*
X0125278Y0201447D01*
X0124223Y0200392D01*
X0123652Y0199014D01*
X0123652Y0197522D01*
X0124223Y0196144D01*
X0125278Y0195089D01*
X0126656Y0194518D01*
X0125040Y0195327D02*
X0119765Y0195327D01*
X0120363Y0195925D02*
X0124442Y0195925D01*
X0124066Y0196524D02*
X0120739Y0196524D01*
X0120987Y0197122D02*
X0123818Y0197122D01*
X0123652Y0197721D02*
X0121152Y0197721D01*
X0121152Y0198319D02*
X0123652Y0198319D01*
X0123652Y0198918D02*
X0121152Y0198918D01*
X0120944Y0199516D02*
X0123861Y0199516D01*
X0124108Y0200115D02*
X0120696Y0200115D01*
X0120260Y0200713D02*
X0124545Y0200713D01*
X0125143Y0201312D02*
X0119662Y0201312D01*
X0118408Y0201910D02*
X0126397Y0201910D01*
X0128408Y0201910D02*
X0242700Y0201910D01*
X0242700Y0201312D02*
X0129662Y0201312D01*
X0130260Y0200713D02*
X0242700Y0200713D01*
X0242700Y0200115D02*
X0130696Y0200115D01*
X0130944Y0199516D02*
X0182766Y0199516D01*
X0182127Y0199252D02*
X0181048Y0198173D01*
X0180465Y0196763D01*
X0180465Y0195237D01*
X0181048Y0193827D01*
X0182127Y0192748D01*
X0183537Y0192165D01*
X0185063Y0192165D01*
X0186473Y0192748D01*
X0187552Y0193827D01*
X0188135Y0195237D01*
X0188135Y0196763D01*
X0187552Y0198173D01*
X0186473Y0199252D01*
X0185063Y0199835D01*
X0183537Y0199835D01*
X0182127Y0199252D01*
X0181794Y0198918D02*
X0131152Y0198918D01*
X0131152Y0198319D02*
X0181195Y0198319D01*
X0180861Y0197721D02*
X0131152Y0197721D01*
X0130987Y0197122D02*
X0180613Y0197122D01*
X0180465Y0196524D02*
X0130739Y0196524D01*
X0130363Y0195925D02*
X0180465Y0195925D01*
X0180465Y0195327D02*
X0129765Y0195327D01*
X0128656Y0194728D02*
X0180675Y0194728D01*
X0180923Y0194130D02*
X0004900Y0194130D01*
X0004900Y0193531D02*
X0181345Y0193531D01*
X0181943Y0192933D02*
X0172993Y0192933D01*
X0172714Y0192969D02*
X0172513Y0192969D01*
X0172513Y0185631D01*
X0171913Y0185631D01*
X0171913Y0185031D01*
X0164575Y0185031D01*
X0164575Y0184830D01*
X0164705Y0183837D01*
X0164965Y0182870D01*
X0165348Y0181945D01*
X0165849Y0181078D01*
X0166458Y0180283D01*
X0167166Y0179575D01*
X0167961Y0178966D01*
X0168828Y0178465D01*
X0169753Y0178082D01*
X0170720Y0177823D01*
X0171713Y0177692D01*
X0171913Y0177692D01*
X0171913Y0185031D01*
X0172513Y0185031D01*
X0172513Y0177692D01*
X0172714Y0177692D01*
X0173707Y0177823D01*
X0174674Y0178082D01*
X0175599Y0178465D01*
X0176466Y0178966D01*
X0177261Y0179575D01*
X0177969Y0180283D01*
X0178578Y0181078D01*
X0179079Y0181945D01*
X0179462Y0182870D01*
X0179721Y0183837D01*
X0179852Y0184830D01*
X0179852Y0185031D01*
X0172513Y0185031D01*
X0172513Y0185631D01*
X0179852Y0185631D01*
X0179852Y0185831D01*
X0179721Y0186824D01*
X0179462Y0187791D01*
X0179079Y0188716D01*
X0178578Y0189584D01*
X0177969Y0190378D01*
X0177261Y0191086D01*
X0176466Y0191696D01*
X0175599Y0192196D01*
X0174674Y0192579D01*
X0173707Y0192839D01*
X0172714Y0192969D01*
X0172513Y0192933D02*
X0171913Y0192933D01*
X0171913Y0192969D02*
X0171713Y0192969D01*
X0170720Y0192839D01*
X0169753Y0192579D01*
X0168828Y0192196D01*
X0167961Y0191696D01*
X0167166Y0191086D01*
X0166458Y0190378D01*
X0165849Y0189584D01*
X0165348Y0188716D01*
X0164965Y0187791D01*
X0164705Y0186824D01*
X0164575Y0185831D01*
X0164575Y0185631D01*
X0171913Y0185631D01*
X0171913Y0192969D01*
X0171434Y0192933D02*
X0004900Y0192933D01*
X0004900Y0192334D02*
X0169160Y0192334D01*
X0168030Y0191736D02*
X0128830Y0191736D01*
X0128148Y0192018D02*
X0126656Y0192018D01*
X0125278Y0191447D01*
X0124223Y0190392D01*
X0123652Y0189014D01*
X0123652Y0187522D01*
X0124223Y0186144D01*
X0125278Y0185089D01*
X0126656Y0184518D01*
X0128148Y0184518D01*
X0129527Y0185089D01*
X0130581Y0186144D01*
X0131152Y0187522D01*
X0131152Y0189014D01*
X0130581Y0190392D01*
X0129527Y0191447D01*
X0128148Y0192018D01*
X0129836Y0191137D02*
X0167233Y0191137D01*
X0166619Y0190539D02*
X0130435Y0190539D01*
X0130769Y0189940D02*
X0166122Y0189940D01*
X0165709Y0189341D02*
X0131017Y0189341D01*
X0131152Y0188743D02*
X0165363Y0188743D01*
X0165111Y0188144D02*
X0131152Y0188144D01*
X0131152Y0187546D02*
X0164899Y0187546D01*
X0164739Y0186947D02*
X0130914Y0186947D01*
X0130667Y0186349D02*
X0164643Y0186349D01*
X0164575Y0185750D02*
X0130188Y0185750D01*
X0129590Y0185152D02*
X0171913Y0185152D01*
X0171913Y0185750D02*
X0172513Y0185750D01*
X0172513Y0185152D02*
X0223646Y0185152D01*
X0223646Y0185031D02*
X0216307Y0185031D01*
X0216307Y0184830D01*
X0216438Y0183837D01*
X0216697Y0182870D01*
X0217080Y0181945D01*
X0217581Y0181078D01*
X0218190Y0180283D01*
X0218898Y0179575D01*
X0219693Y0178966D01*
X0220560Y0178465D01*
X0221485Y0178082D01*
X0222452Y0177823D01*
X0223445Y0177692D01*
X0223646Y0177692D01*
X0223646Y0185031D01*
X0224246Y0185031D01*
X0224246Y0185631D01*
X0231584Y0185631D01*
X0231584Y0185831D01*
X0231454Y0186824D01*
X0231194Y0187791D01*
X0230811Y0188716D01*
X0230311Y0189584D01*
X0229701Y0190378D01*
X0228993Y0191086D01*
X0228199Y0191696D01*
X0227331Y0192196D01*
X0226406Y0192579D01*
X0225439Y0192839D01*
X0224446Y0192969D01*
X0224246Y0192969D01*
X0224246Y0185631D01*
X0223646Y0185631D01*
X0223646Y0192969D01*
X0223445Y0192969D01*
X0222452Y0192839D01*
X0221485Y0192579D01*
X0220560Y0192196D01*
X0219693Y0191696D01*
X0218898Y0191086D01*
X0218190Y0190378D01*
X0217581Y0189584D01*
X0217080Y0188716D01*
X0216697Y0187791D01*
X0216438Y0186824D01*
X0216307Y0185831D01*
X0216307Y0185631D01*
X0223646Y0185631D01*
X0223646Y0185031D01*
X0223646Y0184553D02*
X0224246Y0184553D01*
X0224246Y0185031D02*
X0224246Y0177692D01*
X0224446Y0177692D01*
X0225439Y0177823D01*
X0226406Y0178082D01*
X0227331Y0178465D01*
X0228199Y0178966D01*
X0228993Y0179575D01*
X0229701Y0180283D01*
X0230311Y0181078D01*
X0230811Y0181945D01*
X0231194Y0182870D01*
X0231454Y0183837D01*
X0231584Y0184830D01*
X0231584Y0185031D01*
X0224246Y0185031D01*
X0224246Y0185152D02*
X0242700Y0185152D01*
X0242700Y0185750D02*
X0231584Y0185750D01*
X0231516Y0186349D02*
X0242700Y0186349D01*
X0242700Y0186947D02*
X0231421Y0186947D01*
X0231260Y0187546D02*
X0242700Y0187546D01*
X0242700Y0188144D02*
X0231048Y0188144D01*
X0230796Y0188743D02*
X0242700Y0188743D01*
X0242700Y0189341D02*
X0230450Y0189341D01*
X0230037Y0189940D02*
X0242700Y0189940D01*
X0242700Y0190539D02*
X0229540Y0190539D01*
X0228926Y0191137D02*
X0242700Y0191137D01*
X0242700Y0191736D02*
X0228129Y0191736D01*
X0226999Y0192334D02*
X0242700Y0192334D01*
X0242700Y0192933D02*
X0224725Y0192933D01*
X0224246Y0192933D02*
X0223646Y0192933D01*
X0223166Y0192933D02*
X0214172Y0192933D01*
X0214304Y0193021D02*
X0214838Y0193555D01*
X0215258Y0194183D01*
X0215547Y0194881D01*
X0215694Y0195622D01*
X0215694Y0195700D01*
X0212159Y0195700D01*
X0212159Y0192165D01*
X0212237Y0192165D01*
X0212978Y0192312D01*
X0213676Y0192601D01*
X0214304Y0193021D01*
X0214814Y0193531D02*
X0242700Y0193531D01*
X0242700Y0194130D02*
X0215222Y0194130D01*
X0215484Y0194728D02*
X0242700Y0194728D01*
X0242700Y0195327D02*
X0215636Y0195327D01*
X0215694Y0196300D02*
X0212159Y0196300D01*
X0211559Y0196300D01*
X0211559Y0195700D01*
X0208024Y0195700D01*
X0208024Y0195622D01*
X0208171Y0194881D01*
X0208460Y0194183D01*
X0208880Y0193555D01*
X0209414Y0193021D01*
X0210042Y0192601D01*
X0210740Y0192312D01*
X0211481Y0192165D01*
X0211559Y0192165D01*
X0211559Y0195700D01*
X0212159Y0195700D01*
X0212159Y0196300D01*
X0212159Y0199835D01*
X0212237Y0199835D01*
X0212978Y0199688D01*
X0213676Y0199399D01*
X0214304Y0198979D01*
X0214838Y0198445D01*
X0215258Y0197817D01*
X0215547Y0197119D01*
X0215694Y0196378D01*
X0215694Y0196300D01*
X0215665Y0196524D02*
X0242700Y0196524D01*
X0242700Y0197122D02*
X0215546Y0197122D01*
X0215298Y0197721D02*
X0242700Y0197721D01*
X0242700Y0198319D02*
X0214922Y0198319D01*
X0214366Y0198918D02*
X0242700Y0198918D01*
X0242700Y0199516D02*
X0213393Y0199516D01*
X0212159Y0199516D02*
X0211559Y0199516D01*
X0211559Y0199835D02*
X0211481Y0199835D01*
X0210740Y0199688D01*
X0210042Y0199399D01*
X0209414Y0198979D01*
X0208880Y0198445D01*
X0208460Y0197817D01*
X0208171Y0197119D01*
X0208024Y0196378D01*
X0208024Y0196300D01*
X0211559Y0196300D01*
X0211559Y0199835D01*
X0211559Y0198918D02*
X0212159Y0198918D01*
X0212159Y0198319D02*
X0211559Y0198319D01*
X0211559Y0197721D02*
X0212159Y0197721D01*
X0212159Y0197122D02*
X0211559Y0197122D01*
X0211559Y0196524D02*
X0212159Y0196524D01*
X0212159Y0195925D02*
X0242700Y0195925D01*
X0242700Y0184553D02*
X0231548Y0184553D01*
X0231469Y0183955D02*
X0242700Y0183955D01*
X0242700Y0183356D02*
X0231325Y0183356D01*
X0231148Y0182758D02*
X0242700Y0182758D01*
X0242700Y0182159D02*
X0230900Y0182159D01*
X0230589Y0181561D02*
X0242700Y0181561D01*
X0242700Y0180962D02*
X0230222Y0180962D01*
X0229763Y0180364D02*
X0242700Y0180364D01*
X0242700Y0179765D02*
X0229183Y0179765D01*
X0228460Y0179167D02*
X0242700Y0179167D01*
X0242700Y0178568D02*
X0227510Y0178568D01*
X0225987Y0177970D02*
X0242700Y0177970D01*
X0242700Y0177371D02*
X0131090Y0177371D01*
X0131152Y0177522D02*
X0130581Y0176144D01*
X0129527Y0175089D01*
X0128148Y0174518D01*
X0126656Y0174518D01*
X0125278Y0175089D01*
X0124223Y0176144D01*
X0123652Y0177522D01*
X0123652Y0179014D01*
X0124223Y0180392D01*
X0125278Y0181447D01*
X0126656Y0182018D01*
X0128148Y0182018D01*
X0129527Y0181447D01*
X0130581Y0180392D01*
X0131152Y0179014D01*
X0131152Y0177522D01*
X0131152Y0177970D02*
X0170172Y0177970D01*
X0168649Y0178568D02*
X0131152Y0178568D01*
X0131089Y0179167D02*
X0167699Y0179167D01*
X0166976Y0179765D02*
X0130841Y0179765D01*
X0130593Y0180364D02*
X0166396Y0180364D01*
X0165937Y0180962D02*
X0130011Y0180962D01*
X0129251Y0181561D02*
X0165570Y0181561D01*
X0165259Y0182159D02*
X0004900Y0182159D01*
X0004900Y0181561D02*
X0015553Y0181561D01*
X0015278Y0181447D02*
X0014223Y0180392D01*
X0013652Y0179014D01*
X0013652Y0177522D01*
X0014223Y0176144D01*
X0015278Y0175089D01*
X0016656Y0174518D01*
X0018148Y0174518D01*
X0019527Y0175089D01*
X0020581Y0176144D01*
X0021152Y0177522D01*
X0021152Y0179014D01*
X0020581Y0180392D01*
X0019527Y0181447D01*
X0018148Y0182018D01*
X0016656Y0182018D01*
X0015278Y0181447D01*
X0014794Y0180962D02*
X0004900Y0180962D01*
X0004900Y0180364D02*
X0014212Y0180364D01*
X0013964Y0179765D02*
X0004900Y0179765D01*
X0004900Y0179167D02*
X0013716Y0179167D01*
X0013652Y0178568D02*
X0004900Y0178568D01*
X0004900Y0177970D02*
X0013652Y0177970D01*
X0013715Y0177371D02*
X0004900Y0177371D01*
X0004900Y0176773D02*
X0013963Y0176773D01*
X0014211Y0176174D02*
X0004900Y0176174D01*
X0004900Y0175576D02*
X0014791Y0175576D01*
X0015547Y0174977D02*
X0004900Y0174977D01*
X0004900Y0174379D02*
X0242700Y0174379D01*
X0242700Y0174977D02*
X0129258Y0174977D01*
X0130014Y0175576D02*
X0242700Y0175576D01*
X0242700Y0176174D02*
X0130594Y0176174D01*
X0130842Y0176773D02*
X0242700Y0176773D01*
X0242700Y0173780D02*
X0004900Y0173780D01*
X0004900Y0173182D02*
X0242700Y0173182D01*
X0242700Y0172583D02*
X0004900Y0172583D01*
X0004900Y0171985D02*
X0016577Y0171985D01*
X0016656Y0172018D02*
X0015278Y0171447D01*
X0014223Y0170392D01*
X0013652Y0169014D01*
X0013652Y0167522D01*
X0014223Y0166144D01*
X0015278Y0165089D01*
X0016656Y0164518D01*
X0018148Y0164518D01*
X0019527Y0165089D01*
X0020581Y0166144D01*
X0021152Y0167522D01*
X0021152Y0169014D01*
X0020581Y0170392D01*
X0019527Y0171447D01*
X0018148Y0172018D01*
X0016656Y0172018D01*
X0015217Y0171386D02*
X0004900Y0171386D01*
X0004900Y0170788D02*
X0014619Y0170788D01*
X0014139Y0170189D02*
X0004900Y0170189D01*
X0004900Y0169591D02*
X0013891Y0169591D01*
X0013652Y0168992D02*
X0004900Y0168992D01*
X0004900Y0168394D02*
X0013652Y0168394D01*
X0013652Y0167795D02*
X0004900Y0167795D01*
X0004900Y0167197D02*
X0013787Y0167197D01*
X0014035Y0166598D02*
X0004900Y0166598D01*
X0004900Y0166000D02*
X0014367Y0166000D01*
X0014966Y0165401D02*
X0004900Y0165401D01*
X0004900Y0164803D02*
X0015969Y0164803D01*
X0018836Y0164803D02*
X0025969Y0164803D01*
X0026656Y0164518D02*
X0028148Y0164518D01*
X0029527Y0165089D01*
X0030581Y0166144D01*
X0031152Y0167522D01*
X0031152Y0169014D01*
X0030581Y0170392D01*
X0029527Y0171447D01*
X0028148Y0172018D01*
X0026656Y0172018D01*
X0025278Y0171447D01*
X0024223Y0170392D01*
X0023652Y0169014D01*
X0023652Y0167522D01*
X0024223Y0166144D01*
X0025278Y0165089D01*
X0026656Y0164518D01*
X0024966Y0165401D02*
X0019839Y0165401D01*
X0020437Y0166000D02*
X0024367Y0166000D01*
X0024035Y0166598D02*
X0020770Y0166598D01*
X0021018Y0167197D02*
X0023787Y0167197D01*
X0023652Y0167795D02*
X0021152Y0167795D01*
X0021152Y0168394D02*
X0023652Y0168394D01*
X0023652Y0168992D02*
X0021152Y0168992D01*
X0020913Y0169591D02*
X0023891Y0169591D01*
X0024139Y0170189D02*
X0020665Y0170189D01*
X0020186Y0170788D02*
X0024619Y0170788D01*
X0025217Y0171386D02*
X0019587Y0171386D01*
X0018228Y0171985D02*
X0026577Y0171985D01*
X0028228Y0171985D02*
X0116577Y0171985D01*
X0116656Y0172018D02*
X0115278Y0171447D01*
X0114223Y0170392D01*
X0113652Y0169014D01*
X0113652Y0167522D01*
X0114223Y0166144D01*
X0115278Y0165089D01*
X0116656Y0164518D01*
X0118148Y0164518D01*
X0119527Y0165089D01*
X0120581Y0166144D01*
X0121152Y0167522D01*
X0121152Y0169014D01*
X0120581Y0170392D01*
X0119527Y0171447D01*
X0118148Y0172018D01*
X0116656Y0172018D01*
X0115217Y0171386D02*
X0029587Y0171386D01*
X0030186Y0170788D02*
X0114619Y0170788D01*
X0114139Y0170189D02*
X0030665Y0170189D01*
X0030913Y0169591D02*
X0113891Y0169591D01*
X0113652Y0168992D02*
X0031152Y0168992D01*
X0031152Y0168394D02*
X0113652Y0168394D01*
X0113652Y0167795D02*
X0031152Y0167795D01*
X0031018Y0167197D02*
X0113787Y0167197D01*
X0114035Y0166598D02*
X0030770Y0166598D01*
X0030437Y0166000D02*
X0114367Y0166000D01*
X0114966Y0165401D02*
X0029839Y0165401D01*
X0028836Y0164803D02*
X0115969Y0164803D01*
X0118836Y0164803D02*
X0125969Y0164803D01*
X0126656Y0164518D02*
X0128148Y0164518D01*
X0129527Y0165089D01*
X0130581Y0166144D01*
X0131152Y0167522D01*
X0131152Y0169014D01*
X0130581Y0170392D01*
X0129527Y0171447D01*
X0128148Y0172018D01*
X0126656Y0172018D01*
X0125278Y0171447D01*
X0124223Y0170392D01*
X0123652Y0169014D01*
X0123652Y0167522D01*
X0124223Y0166144D01*
X0125278Y0165089D01*
X0126656Y0164518D01*
X0124966Y0165401D02*
X0119839Y0165401D01*
X0120437Y0166000D02*
X0124367Y0166000D01*
X0124035Y0166598D02*
X0120770Y0166598D01*
X0121018Y0167197D02*
X0123787Y0167197D01*
X0123652Y0167795D02*
X0121152Y0167795D01*
X0121152Y0168394D02*
X0123652Y0168394D01*
X0123652Y0168992D02*
X0121152Y0168992D01*
X0120913Y0169591D02*
X0123891Y0169591D01*
X0124139Y0170189D02*
X0120665Y0170189D01*
X0120186Y0170788D02*
X0124619Y0170788D01*
X0125217Y0171386D02*
X0119587Y0171386D01*
X0118228Y0171985D02*
X0126577Y0171985D01*
X0128228Y0171985D02*
X0242700Y0171985D01*
X0242700Y0171386D02*
X0129587Y0171386D01*
X0130186Y0170788D02*
X0242700Y0170788D01*
X0242700Y0170189D02*
X0130665Y0170189D01*
X0130913Y0169591D02*
X0242700Y0169591D01*
X0242700Y0168992D02*
X0131152Y0168992D01*
X0131152Y0168394D02*
X0242700Y0168394D01*
X0242700Y0167795D02*
X0131152Y0167795D01*
X0131018Y0167197D02*
X0242700Y0167197D01*
X0242700Y0166598D02*
X0130770Y0166598D01*
X0130437Y0166000D02*
X0242700Y0166000D01*
X0242700Y0165401D02*
X0129839Y0165401D01*
X0128836Y0164803D02*
X0242700Y0164803D01*
X0242700Y0164204D02*
X0004900Y0164204D01*
X0004900Y0163605D02*
X0242700Y0163605D01*
X0242700Y0163007D02*
X0004900Y0163007D01*
X0004900Y0162408D02*
X0242700Y0162408D01*
X0242700Y0161810D02*
X0128650Y0161810D01*
X0128148Y0162018D02*
X0126656Y0162018D01*
X0125278Y0161447D01*
X0124223Y0160392D01*
X0123652Y0159014D01*
X0123652Y0157522D01*
X0124223Y0156144D01*
X0125278Y0155089D01*
X0126656Y0154518D01*
X0128148Y0154518D01*
X0129527Y0155089D01*
X0130581Y0156144D01*
X0131152Y0157522D01*
X0131152Y0159014D01*
X0130581Y0160392D01*
X0129527Y0161447D01*
X0128148Y0162018D01*
X0129762Y0161211D02*
X0242700Y0161211D01*
X0242700Y0160613D02*
X0130360Y0160613D01*
X0130738Y0160014D02*
X0242700Y0160014D01*
X0242700Y0159416D02*
X0130986Y0159416D01*
X0131152Y0158817D02*
X0242700Y0158817D01*
X0242700Y0158219D02*
X0131152Y0158219D01*
X0131152Y0157620D02*
X0242700Y0157620D01*
X0242700Y0157022D02*
X0130945Y0157022D01*
X0130697Y0156423D02*
X0242700Y0156423D01*
X0242700Y0155825D02*
X0239337Y0155825D01*
X0240267Y0155440D02*
X0238342Y0156237D01*
X0236258Y0156237D01*
X0234333Y0155440D01*
X0232860Y0153967D01*
X0232063Y0152042D01*
X0232063Y0149958D01*
X0232860Y0148033D01*
X0234333Y0146560D01*
X0236258Y0145763D01*
X0238342Y0145763D01*
X0240267Y0146560D01*
X0241740Y0148033D01*
X0242537Y0149958D01*
X0242537Y0152042D01*
X0241740Y0153967D01*
X0240267Y0155440D01*
X0240480Y0155226D02*
X0242700Y0155226D01*
X0242700Y0154628D02*
X0241078Y0154628D01*
X0241677Y0154029D02*
X0242700Y0154029D01*
X0242700Y0153431D02*
X0241962Y0153431D01*
X0242210Y0152832D02*
X0242700Y0152832D01*
X0242700Y0152234D02*
X0242457Y0152234D01*
X0242537Y0151635D02*
X0242700Y0151635D01*
X0242700Y0151037D02*
X0242537Y0151037D01*
X0242537Y0150438D02*
X0242700Y0150438D01*
X0242700Y0149840D02*
X0242488Y0149840D01*
X0242700Y0149241D02*
X0242240Y0149241D01*
X0241992Y0148643D02*
X0242700Y0148643D01*
X0242700Y0148044D02*
X0241744Y0148044D01*
X0241152Y0147446D02*
X0242700Y0147446D01*
X0242700Y0146847D02*
X0240553Y0146847D01*
X0239514Y0146249D02*
X0242700Y0146249D01*
X0242700Y0145650D02*
X0130088Y0145650D01*
X0130581Y0146144D02*
X0131152Y0147522D01*
X0131152Y0149014D01*
X0130581Y0150392D01*
X0129527Y0151447D01*
X0128148Y0152018D01*
X0126656Y0152018D01*
X0125278Y0151447D01*
X0124223Y0150392D01*
X0123652Y0149014D01*
X0123652Y0147522D01*
X0124223Y0146144D01*
X0125278Y0145089D01*
X0126656Y0144518D01*
X0128148Y0144518D01*
X0129527Y0145089D01*
X0130581Y0146144D01*
X0130625Y0146249D02*
X0146086Y0146249D01*
X0145333Y0146560D02*
X0147258Y0145763D01*
X0149342Y0145763D01*
X0151267Y0146560D01*
X0152740Y0148033D01*
X0153537Y0149958D01*
X0153537Y0152042D01*
X0152740Y0153967D01*
X0151267Y0155440D01*
X0149342Y0156237D01*
X0147258Y0156237D01*
X0145333Y0155440D01*
X0143860Y0153967D01*
X0143063Y0152042D01*
X0143063Y0149958D01*
X0143860Y0148033D01*
X0145333Y0146560D01*
X0145047Y0146847D02*
X0130873Y0146847D01*
X0131121Y0147446D02*
X0144448Y0147446D01*
X0143856Y0148044D02*
X0131152Y0148044D01*
X0131152Y0148643D02*
X0143608Y0148643D01*
X0143360Y0149241D02*
X0131058Y0149241D01*
X0130810Y0149840D02*
X0143112Y0149840D01*
X0143063Y0150438D02*
X0130535Y0150438D01*
X0129937Y0151037D02*
X0143063Y0151037D01*
X0143063Y0151635D02*
X0129072Y0151635D01*
X0128414Y0154628D02*
X0144522Y0154628D01*
X0145120Y0155226D02*
X0129664Y0155226D01*
X0130263Y0155825D02*
X0146263Y0155825D01*
X0143923Y0154029D02*
X0004900Y0154029D01*
X0004900Y0153431D02*
X0143638Y0153431D01*
X0143390Y0152832D02*
X0004900Y0152832D01*
X0004900Y0152234D02*
X0143143Y0152234D01*
X0140089Y0145052D02*
X0129437Y0145052D01*
X0128148Y0142018D02*
X0126656Y0142018D01*
X0125278Y0141447D01*
X0124223Y0140392D01*
X0123652Y0139014D01*
X0123652Y0137522D01*
X0124223Y0136144D01*
X0125278Y0135089D01*
X0126656Y0134518D01*
X0128148Y0134518D01*
X0129527Y0135089D01*
X0130581Y0136144D01*
X0131152Y0137522D01*
X0131152Y0139014D01*
X0130581Y0140392D01*
X0129527Y0141447D01*
X0128148Y0142018D01*
X0129493Y0141461D02*
X0139700Y0141461D01*
X0139700Y0142059D02*
X0004900Y0142059D01*
X0004900Y0141461D02*
X0015311Y0141461D01*
X0015278Y0141447D02*
X0014223Y0140392D01*
X0013652Y0139014D01*
X0013652Y0137522D01*
X0014223Y0136144D01*
X0015278Y0135089D01*
X0016656Y0134518D01*
X0018148Y0134518D01*
X0019527Y0135089D01*
X0020581Y0136144D01*
X0021152Y0137522D01*
X0021152Y0139014D01*
X0020581Y0140392D01*
X0019527Y0141447D01*
X0018148Y0142018D01*
X0016656Y0142018D01*
X0015278Y0141447D01*
X0014693Y0140862D02*
X0004900Y0140862D01*
X0004900Y0140264D02*
X0014170Y0140264D01*
X0013922Y0139665D02*
X0004900Y0139665D01*
X0004900Y0139067D02*
X0013674Y0139067D01*
X0013652Y0138468D02*
X0004900Y0138468D01*
X0004900Y0137870D02*
X0013652Y0137870D01*
X0013756Y0137271D02*
X0004900Y0137271D01*
X0004900Y0136672D02*
X0014004Y0136672D01*
X0014293Y0136074D02*
X0004900Y0136074D01*
X0004900Y0135475D02*
X0014891Y0135475D01*
X0015789Y0134877D02*
X0004900Y0134877D01*
X0004900Y0134278D02*
X0139700Y0134278D01*
X0139700Y0133680D02*
X0004900Y0133680D01*
X0004900Y0133081D02*
X0139700Y0133081D01*
X0139700Y0132483D02*
X0004900Y0132483D01*
X0004900Y0131884D02*
X0016335Y0131884D01*
X0016656Y0132018D02*
X0015278Y0131447D01*
X0014223Y0130392D01*
X0013652Y0129014D01*
X0013652Y0127522D01*
X0014223Y0126144D01*
X0015278Y0125089D01*
X0016656Y0124518D01*
X0018148Y0124518D01*
X0019527Y0125089D01*
X0020581Y0126144D01*
X0021152Y0127522D01*
X0021152Y0129014D01*
X0020581Y0130392D01*
X0019527Y0131447D01*
X0018148Y0132018D01*
X0016656Y0132018D01*
X0015117Y0131286D02*
X0004900Y0131286D01*
X0004900Y0130687D02*
X0014519Y0130687D01*
X0014098Y0130089D02*
X0004900Y0130089D01*
X0004900Y0129490D02*
X0013850Y0129490D01*
X0013652Y0128892D02*
X0004900Y0128892D01*
X0004900Y0128293D02*
X0013652Y0128293D01*
X0013652Y0127695D02*
X0004900Y0127695D01*
X0004900Y0127096D02*
X0013829Y0127096D01*
X0014077Y0126498D02*
X0004900Y0126498D01*
X0004900Y0125899D02*
X0014467Y0125899D01*
X0015066Y0125301D02*
X0004900Y0125301D01*
X0004900Y0124702D02*
X0016211Y0124702D01*
X0018594Y0124702D02*
X0026211Y0124702D01*
X0026309Y0124662D02*
X0027033Y0124518D01*
X0027102Y0124518D01*
X0027102Y0127968D01*
X0023652Y0127968D01*
X0023652Y0127898D01*
X0023796Y0127174D01*
X0024079Y0126491D01*
X0024490Y0125877D01*
X0025012Y0125355D01*
X0025626Y0124945D01*
X0026309Y0124662D01*
X0027102Y0124702D02*
X0027702Y0124702D01*
X0027702Y0124518D02*
X0027772Y0124518D01*
X0028496Y0124662D01*
X0029179Y0124945D01*
X0029793Y0125355D01*
X0030315Y0125877D01*
X0030726Y0126491D01*
X0031008Y0127174D01*
X0031152Y0127898D01*
X0031152Y0127968D01*
X0027702Y0127968D01*
X0027702Y0124518D01*
X0027702Y0125301D02*
X0027102Y0125301D01*
X0027102Y0125899D02*
X0027702Y0125899D01*
X0027702Y0126498D02*
X0027102Y0126498D01*
X0027102Y0127096D02*
X0027702Y0127096D01*
X0027702Y0127695D02*
X0027102Y0127695D01*
X0027102Y0127968D02*
X0027702Y0127968D01*
X0027702Y0128568D01*
X0027102Y0128568D01*
X0027102Y0127968D01*
X0027102Y0128293D02*
X0021152Y0128293D01*
X0021152Y0127695D02*
X0023693Y0127695D01*
X0023829Y0127096D02*
X0020976Y0127096D01*
X0020728Y0126498D02*
X0024077Y0126498D01*
X0024475Y0125899D02*
X0020337Y0125899D01*
X0019739Y0125301D02*
X0025093Y0125301D01*
X0028594Y0124702D02*
X0116211Y0124702D01*
X0116309Y0124662D02*
X0117033Y0124518D01*
X0117102Y0124518D01*
X0117102Y0127968D01*
X0113652Y0127968D01*
X0113652Y0127898D01*
X0113796Y0127174D01*
X0114079Y0126491D01*
X0114490Y0125877D01*
X0115012Y0125355D01*
X0115626Y0124945D01*
X0116309Y0124662D01*
X0117102Y0124702D02*
X0117702Y0124702D01*
X0117702Y0124518D02*
X0117772Y0124518D01*
X0118496Y0124662D01*
X0119179Y0124945D01*
X0119793Y0125355D01*
X0120315Y0125877D01*
X0120726Y0126491D01*
X0121008Y0127174D01*
X0121152Y0127898D01*
X0121152Y0127968D01*
X0117702Y0127968D01*
X0117702Y0124518D01*
X0117702Y0125301D02*
X0117102Y0125301D01*
X0117102Y0125899D02*
X0117702Y0125899D01*
X0117702Y0126498D02*
X0117102Y0126498D01*
X0117102Y0127096D02*
X0117702Y0127096D01*
X0117702Y0127695D02*
X0117102Y0127695D01*
X0117102Y0127968D02*
X0117702Y0127968D01*
X0117702Y0128568D01*
X0117102Y0128568D01*
X0117102Y0127968D01*
X0117102Y0128293D02*
X0027702Y0128293D01*
X0027702Y0128568D02*
X0031152Y0128568D01*
X0031152Y0128637D01*
X0031008Y0129362D01*
X0030726Y0130044D01*
X0030315Y0130658D01*
X0029793Y0131181D01*
X0029179Y0131591D01*
X0028496Y0131874D01*
X0027772Y0132018D01*
X0027702Y0132018D01*
X0027702Y0128568D01*
X0027702Y0128892D02*
X0027102Y0128892D01*
X0027102Y0128568D02*
X0027102Y0132018D01*
X0027033Y0132018D01*
X0026309Y0131874D01*
X0025626Y0131591D01*
X0025012Y0131181D01*
X0024490Y0130658D01*
X0024079Y0130044D01*
X0023796Y0129362D01*
X0023652Y0128637D01*
X0023652Y0128568D01*
X0027102Y0128568D01*
X0027102Y0129490D02*
X0027702Y0129490D01*
X0027702Y0130089D02*
X0027102Y0130089D01*
X0027102Y0130687D02*
X0027702Y0130687D01*
X0027702Y0131286D02*
X0027102Y0131286D01*
X0027102Y0131884D02*
X0027702Y0131884D01*
X0028442Y0131884D02*
X0116363Y0131884D01*
X0116309Y0131874D02*
X0115626Y0131591D01*
X0115012Y0131181D01*
X0114490Y0130658D01*
X0114079Y0130044D01*
X0113796Y0129362D01*
X0113652Y0128637D01*
X0113652Y0128568D01*
X0117102Y0128568D01*
X0117102Y0132018D01*
X0117033Y0132018D01*
X0116309Y0131874D01*
X0117102Y0131884D02*
X0117702Y0131884D01*
X0117702Y0132018D02*
X0117702Y0128568D01*
X0121152Y0128568D01*
X0121152Y0128637D01*
X0121008Y0129362D01*
X0120726Y0130044D01*
X0120315Y0130658D01*
X0119793Y0131181D01*
X0119179Y0131591D01*
X0118496Y0131874D01*
X0117772Y0132018D01*
X0117702Y0132018D01*
X0117702Y0131286D02*
X0117102Y0131286D01*
X0117102Y0130687D02*
X0117702Y0130687D01*
X0117702Y0130089D02*
X0117102Y0130089D01*
X0117102Y0129490D02*
X0117702Y0129490D01*
X0117702Y0128892D02*
X0117102Y0128892D01*
X0117702Y0128293D02*
X0123652Y0128293D01*
X0123652Y0127695D02*
X0121112Y0127695D01*
X0120976Y0127096D02*
X0123829Y0127096D01*
X0123652Y0127522D02*
X0124223Y0126144D01*
X0125278Y0125089D01*
X0126656Y0124518D01*
X0128148Y0124518D01*
X0129527Y0125089D01*
X0130581Y0126144D01*
X0131152Y0127522D01*
X0131152Y0129014D01*
X0130581Y0130392D01*
X0129527Y0131447D01*
X0128148Y0132018D01*
X0126656Y0132018D01*
X0125278Y0131447D01*
X0124223Y0130392D01*
X0123652Y0129014D01*
X0123652Y0127522D01*
X0124077Y0126498D02*
X0120728Y0126498D01*
X0120330Y0125899D02*
X0124467Y0125899D01*
X0125066Y0125301D02*
X0119712Y0125301D01*
X0118594Y0124702D02*
X0126211Y0124702D01*
X0128594Y0124702D02*
X0139700Y0124702D01*
X0139700Y0124104D02*
X0004900Y0124104D01*
X0004900Y0123505D02*
X0139700Y0123505D01*
X0139700Y0122907D02*
X0004900Y0122907D01*
X0004900Y0122308D02*
X0139700Y0122308D01*
X0139700Y0121710D02*
X0128892Y0121710D01*
X0129527Y0121447D02*
X0128148Y0122018D01*
X0126656Y0122018D01*
X0125278Y0121447D01*
X0124223Y0120392D01*
X0123652Y0119014D01*
X0123652Y0117522D01*
X0124223Y0116144D01*
X0125278Y0115089D01*
X0126656Y0114518D01*
X0128148Y0114518D01*
X0129527Y0115089D01*
X0130581Y0116144D01*
X0131152Y0117522D01*
X0131152Y0119014D01*
X0130581Y0120392D01*
X0129527Y0121447D01*
X0129862Y0121111D02*
X0139700Y0121111D01*
X0139700Y0120513D02*
X0130461Y0120513D01*
X0130779Y0119914D02*
X0139700Y0119914D01*
X0139700Y0119316D02*
X0131027Y0119316D01*
X0131152Y0118717D02*
X0139700Y0118717D01*
X0139700Y0118119D02*
X0131152Y0118119D01*
X0131152Y0117520D02*
X0139700Y0117520D01*
X0139700Y0116922D02*
X0130904Y0116922D01*
X0130656Y0116323D02*
X0139700Y0116323D01*
X0139700Y0115725D02*
X0130163Y0115725D01*
X0129564Y0115126D02*
X0139700Y0115126D01*
X0139700Y0114528D02*
X0128172Y0114528D01*
X0126633Y0114528D02*
X0118172Y0114528D01*
X0118148Y0114518D02*
X0119527Y0115089D01*
X0120581Y0116144D01*
X0121152Y0117522D01*
X0121152Y0119014D01*
X0120581Y0120392D01*
X0119527Y0121447D01*
X0118148Y0122018D01*
X0116656Y0122018D01*
X0115278Y0121447D01*
X0114223Y0120392D01*
X0113652Y0119014D01*
X0113652Y0117522D01*
X0114223Y0116144D01*
X0115278Y0115089D01*
X0116656Y0114518D01*
X0118148Y0114518D01*
X0116633Y0114528D02*
X0028172Y0114528D01*
X0028148Y0114518D02*
X0029527Y0115089D01*
X0030581Y0116144D01*
X0031152Y0117522D01*
X0031152Y0119014D01*
X0030581Y0120392D01*
X0029527Y0121447D01*
X0028148Y0122018D01*
X0026656Y0122018D01*
X0025278Y0121447D01*
X0024223Y0120392D01*
X0023652Y0119014D01*
X0023652Y0117522D01*
X0024223Y0116144D01*
X0025278Y0115089D01*
X0026656Y0114518D01*
X0028148Y0114518D01*
X0026633Y0114528D02*
X0018172Y0114528D01*
X0018148Y0114518D02*
X0019527Y0115089D01*
X0020581Y0116144D01*
X0021152Y0117522D01*
X0021152Y0119014D01*
X0020581Y0120392D01*
X0019527Y0121447D01*
X0018148Y0122018D01*
X0016656Y0122018D01*
X0015278Y0121447D01*
X0014223Y0120392D01*
X0013652Y0119014D01*
X0013652Y0117522D01*
X0014223Y0116144D01*
X0015278Y0115089D01*
X0016656Y0114518D01*
X0018148Y0114518D01*
X0016633Y0114528D02*
X0004900Y0114528D01*
X0004900Y0115126D02*
X0015241Y0115126D01*
X0014642Y0115725D02*
X0004900Y0115725D01*
X0004900Y0116323D02*
X0014149Y0116323D01*
X0013901Y0116922D02*
X0004900Y0116922D01*
X0004900Y0117520D02*
X0013653Y0117520D01*
X0013652Y0118119D02*
X0004900Y0118119D01*
X0004900Y0118717D02*
X0013652Y0118717D01*
X0013777Y0119316D02*
X0004900Y0119316D01*
X0004900Y0119914D02*
X0014025Y0119914D01*
X0014344Y0120513D02*
X0004900Y0120513D01*
X0004900Y0121111D02*
X0014943Y0121111D01*
X0015913Y0121710D02*
X0004900Y0121710D01*
X0004900Y0113929D02*
X0139700Y0113929D01*
X0139700Y0113331D02*
X0004900Y0113331D01*
X0004900Y0112732D02*
X0139700Y0112732D01*
X0139700Y0112134D02*
X0004900Y0112134D01*
X0004900Y0111535D02*
X0015491Y0111535D01*
X0015278Y0111447D02*
X0014223Y0110392D01*
X0013652Y0109014D01*
X0013652Y0107522D01*
X0014223Y0106144D01*
X0015278Y0105089D01*
X0016656Y0104518D01*
X0018148Y0104518D01*
X0019527Y0105089D01*
X0020581Y0106144D01*
X0021152Y0107522D01*
X0021152Y0109014D01*
X0020581Y0110392D01*
X0019527Y0111447D01*
X0018148Y0112018D01*
X0016656Y0112018D01*
X0015278Y0111447D01*
X0014768Y0110937D02*
X0004900Y0110937D01*
X0004900Y0110338D02*
X0014201Y0110338D01*
X0013953Y0109739D02*
X0004900Y0109739D01*
X0004900Y0109141D02*
X0013705Y0109141D01*
X0013652Y0108542D02*
X0004900Y0108542D01*
X0004900Y0107944D02*
X0013652Y0107944D01*
X0013725Y0107345D02*
X0004900Y0107345D01*
X0004900Y0106747D02*
X0013973Y0106747D01*
X0014221Y0106148D02*
X0004900Y0106148D01*
X0004900Y0105550D02*
X0014817Y0105550D01*
X0015609Y0104951D02*
X0004900Y0104951D01*
X0004900Y0104353D02*
X0139700Y0104353D01*
X0139700Y0104951D02*
X0129195Y0104951D01*
X0129527Y0105089D02*
X0128148Y0104518D01*
X0126656Y0104518D01*
X0125278Y0105089D01*
X0124223Y0106144D01*
X0123652Y0107522D01*
X0123652Y0109014D01*
X0124223Y0110392D01*
X0125278Y0111447D01*
X0126656Y0112018D01*
X0128148Y0112018D01*
X0129527Y0111447D01*
X0130581Y0110392D01*
X0131152Y0109014D01*
X0131152Y0107522D01*
X0130581Y0106144D01*
X0129527Y0105089D01*
X0129988Y0105550D02*
X0139700Y0105550D01*
X0139700Y0106148D02*
X0130583Y0106148D01*
X0130831Y0106747D02*
X0139700Y0106747D01*
X0139700Y0107345D02*
X0131079Y0107345D01*
X0131152Y0107944D02*
X0139700Y0107944D01*
X0139700Y0108542D02*
X0131152Y0108542D01*
X0131100Y0109141D02*
X0139700Y0109141D01*
X0139700Y0109739D02*
X0130852Y0109739D01*
X0130604Y0110338D02*
X0139700Y0110338D01*
X0139700Y0110937D02*
X0130037Y0110937D01*
X0129314Y0111535D02*
X0139700Y0111535D01*
X0139700Y0103754D02*
X0004900Y0103754D01*
X0004900Y0103156D02*
X0139700Y0103156D01*
X0139700Y0102557D02*
X0004900Y0102557D01*
X0004900Y0101959D02*
X0016514Y0101959D01*
X0016656Y0102018D02*
X0015278Y0101447D01*
X0014223Y0100392D01*
X0013652Y0099014D01*
X0013652Y0097522D01*
X0014223Y0096144D01*
X0015278Y0095089D01*
X0016656Y0094518D01*
X0018148Y0094518D01*
X0019527Y0095089D01*
X0020581Y0096144D01*
X0021152Y0097522D01*
X0021152Y0099014D01*
X0020581Y0100392D01*
X0019527Y0101447D01*
X0018148Y0102018D01*
X0016656Y0102018D01*
X0015192Y0101360D02*
X0004900Y0101360D01*
X0004900Y0100762D02*
X0014593Y0100762D01*
X0014129Y0100163D02*
X0004900Y0100163D01*
X0004900Y0099565D02*
X0013881Y0099565D01*
X0013652Y0098966D02*
X0004900Y0098966D01*
X0004900Y0098368D02*
X0013652Y0098368D01*
X0013652Y0097769D02*
X0004900Y0097769D01*
X0004900Y0097171D02*
X0013798Y0097171D01*
X0014046Y0096572D02*
X0004900Y0096572D01*
X0004900Y0095974D02*
X0014393Y0095974D01*
X0014992Y0095375D02*
X0004900Y0095375D01*
X0004900Y0094777D02*
X0016031Y0094777D01*
X0018774Y0094777D02*
X0026031Y0094777D01*
X0026309Y0094662D02*
X0025626Y0094945D01*
X0025012Y0095355D01*
X0024490Y0095877D01*
X0024079Y0096491D01*
X0023796Y0097174D01*
X0023652Y0097898D01*
X0023652Y0097968D01*
X0027102Y0097968D01*
X0027102Y0098568D01*
X0023652Y0098568D01*
X0023652Y0098637D01*
X0023796Y0099362D01*
X0024079Y0100044D01*
X0024490Y0100658D01*
X0025012Y0101181D01*
X0025626Y0101591D01*
X0026309Y0101874D01*
X0027033Y0102018D01*
X0027102Y0102018D01*
X0027102Y0098568D01*
X0027702Y0098568D01*
X0027702Y0102018D01*
X0027772Y0102018D01*
X0028496Y0101874D01*
X0029179Y0101591D01*
X0029793Y0101181D01*
X0030315Y0100658D01*
X0030726Y0100044D01*
X0031008Y0099362D01*
X0031152Y0098637D01*
X0031152Y0098568D01*
X0027702Y0098568D01*
X0027702Y0097968D01*
X0027702Y0094518D01*
X0027772Y0094518D01*
X0028496Y0094662D01*
X0029179Y0094945D01*
X0029793Y0095355D01*
X0030315Y0095877D01*
X0030726Y0096491D01*
X0031008Y0097174D01*
X0031152Y0097898D01*
X0031152Y0097968D01*
X0027702Y0097968D01*
X0027102Y0097968D01*
X0027102Y0094518D01*
X0027033Y0094518D01*
X0026309Y0094662D01*
X0027102Y0094777D02*
X0027702Y0094777D01*
X0027702Y0095375D02*
X0027102Y0095375D01*
X0027102Y0095974D02*
X0027702Y0095974D01*
X0027702Y0096572D02*
X0027102Y0096572D01*
X0027102Y0097171D02*
X0027702Y0097171D01*
X0027702Y0097769D02*
X0027102Y0097769D01*
X0027102Y0098368D02*
X0021152Y0098368D01*
X0021152Y0098966D02*
X0023718Y0098966D01*
X0023881Y0099565D02*
X0020924Y0099565D01*
X0020676Y0100163D02*
X0024159Y0100163D01*
X0024593Y0100762D02*
X0020212Y0100762D01*
X0019613Y0101360D02*
X0025281Y0101360D01*
X0026737Y0101959D02*
X0018290Y0101959D01*
X0019195Y0104951D02*
X0025609Y0104951D01*
X0025278Y0105089D02*
X0026656Y0104518D01*
X0028148Y0104518D01*
X0029527Y0105089D01*
X0030581Y0106144D01*
X0031152Y0107522D01*
X0031152Y0109014D01*
X0030581Y0110392D01*
X0029527Y0111447D01*
X0028148Y0112018D01*
X0026656Y0112018D01*
X0025278Y0111447D01*
X0024223Y0110392D01*
X0023652Y0109014D01*
X0023652Y0107522D01*
X0024223Y0106144D01*
X0025278Y0105089D01*
X0024817Y0105550D02*
X0019988Y0105550D01*
X0020583Y0106148D02*
X0024221Y0106148D01*
X0023973Y0106747D02*
X0020831Y0106747D01*
X0021079Y0107345D02*
X0023725Y0107345D01*
X0023652Y0107944D02*
X0021152Y0107944D01*
X0021152Y0108542D02*
X0023652Y0108542D01*
X0023705Y0109141D02*
X0021100Y0109141D01*
X0020852Y0109739D02*
X0023953Y0109739D01*
X0024201Y0110338D02*
X0020604Y0110338D01*
X0020037Y0110937D02*
X0024768Y0110937D01*
X0025491Y0111535D02*
X0019314Y0111535D01*
X0019564Y0115126D02*
X0025241Y0115126D01*
X0024642Y0115725D02*
X0020163Y0115725D01*
X0020656Y0116323D02*
X0024149Y0116323D01*
X0023901Y0116922D02*
X0020904Y0116922D01*
X0021152Y0117520D02*
X0023653Y0117520D01*
X0023652Y0118119D02*
X0021152Y0118119D01*
X0021152Y0118717D02*
X0023652Y0118717D01*
X0023777Y0119316D02*
X0021027Y0119316D01*
X0020779Y0119914D02*
X0024025Y0119914D01*
X0024344Y0120513D02*
X0020461Y0120513D01*
X0019862Y0121111D02*
X0024943Y0121111D01*
X0025913Y0121710D02*
X0018892Y0121710D01*
X0021152Y0128892D02*
X0023703Y0128892D01*
X0023850Y0129490D02*
X0020955Y0129490D01*
X0020707Y0130089D02*
X0024109Y0130089D01*
X0024519Y0130687D02*
X0020286Y0130687D01*
X0019687Y0131286D02*
X0025170Y0131286D01*
X0026363Y0131884D02*
X0018470Y0131884D01*
X0019016Y0134877D02*
X0025789Y0134877D01*
X0025278Y0135089D02*
X0026656Y0134518D01*
X0028148Y0134518D01*
X0029527Y0135089D01*
X0030581Y0136144D01*
X0031152Y0137522D01*
X0031152Y0139014D01*
X0030581Y0140392D01*
X0029527Y0141447D01*
X0028148Y0142018D01*
X0026656Y0142018D01*
X0025278Y0141447D01*
X0024223Y0140392D01*
X0023652Y0139014D01*
X0023652Y0137522D01*
X0024223Y0136144D01*
X0025278Y0135089D01*
X0024891Y0135475D02*
X0019913Y0135475D01*
X0020512Y0136074D02*
X0024293Y0136074D01*
X0024004Y0136672D02*
X0020801Y0136672D01*
X0021048Y0137271D02*
X0023756Y0137271D01*
X0023652Y0137870D02*
X0021152Y0137870D01*
X0021152Y0138468D02*
X0023652Y0138468D01*
X0023674Y0139067D02*
X0021130Y0139067D01*
X0020883Y0139665D02*
X0023922Y0139665D01*
X0024170Y0140264D02*
X0020635Y0140264D01*
X0020111Y0140862D02*
X0024693Y0140862D01*
X0025311Y0141461D02*
X0019493Y0141461D01*
X0018148Y0144518D02*
X0016656Y0144518D01*
X0015278Y0145089D01*
X0014223Y0146144D01*
X0013652Y0147522D01*
X0013652Y0149014D01*
X0014223Y0150392D01*
X0015278Y0151447D01*
X0016656Y0152018D01*
X0018148Y0152018D01*
X0019527Y0151447D01*
X0020581Y0150392D01*
X0021152Y0149014D01*
X0021152Y0147522D01*
X0020581Y0146144D01*
X0019527Y0145089D01*
X0018148Y0144518D01*
X0019437Y0145052D02*
X0025367Y0145052D01*
X0025278Y0145089D02*
X0026656Y0144518D01*
X0028148Y0144518D01*
X0029527Y0145089D01*
X0030581Y0146144D01*
X0031152Y0147522D01*
X0031152Y0149014D01*
X0030581Y0150392D01*
X0029527Y0151447D01*
X0028148Y0152018D01*
X0026656Y0152018D01*
X0025278Y0151447D01*
X0024223Y0150392D01*
X0023652Y0149014D01*
X0023652Y0147522D01*
X0024223Y0146144D01*
X0025278Y0145089D01*
X0024717Y0145650D02*
X0020088Y0145650D01*
X0020625Y0146249D02*
X0024180Y0146249D01*
X0023932Y0146847D02*
X0020873Y0146847D01*
X0021121Y0147446D02*
X0023684Y0147446D01*
X0023652Y0148044D02*
X0021152Y0148044D01*
X0021152Y0148643D02*
X0023652Y0148643D01*
X0023747Y0149241D02*
X0021058Y0149241D01*
X0020810Y0149840D02*
X0023995Y0149840D01*
X0024270Y0150438D02*
X0020535Y0150438D01*
X0019937Y0151037D02*
X0024868Y0151037D01*
X0025733Y0151635D02*
X0019072Y0151635D01*
X0018148Y0154518D02*
X0016656Y0154518D01*
X0015278Y0155089D01*
X0014223Y0156144D01*
X0013652Y0157522D01*
X0013652Y0159014D01*
X0014223Y0160392D01*
X0015278Y0161447D01*
X0016656Y0162018D01*
X0018148Y0162018D01*
X0019527Y0161447D01*
X0020581Y0160392D01*
X0021152Y0159014D01*
X0021152Y0157522D01*
X0020581Y0156144D01*
X0019527Y0155089D01*
X0018148Y0154518D01*
X0018414Y0154628D02*
X0026391Y0154628D01*
X0026656Y0154518D02*
X0028148Y0154518D01*
X0029527Y0155089D01*
X0030581Y0156144D01*
X0031152Y0157522D01*
X0031152Y0159014D01*
X0030581Y0160392D01*
X0029527Y0161447D01*
X0028148Y0162018D01*
X0026656Y0162018D01*
X0025278Y0161447D01*
X0024223Y0160392D01*
X0023652Y0159014D01*
X0023652Y0157522D01*
X0024223Y0156144D01*
X0025278Y0155089D01*
X0026656Y0154518D01*
X0025140Y0155226D02*
X0019664Y0155226D01*
X0020263Y0155825D02*
X0024542Y0155825D01*
X0024107Y0156423D02*
X0020697Y0156423D01*
X0020945Y0157022D02*
X0023859Y0157022D01*
X0023652Y0157620D02*
X0021152Y0157620D01*
X0021152Y0158219D02*
X0023652Y0158219D01*
X0023652Y0158817D02*
X0021152Y0158817D01*
X0020986Y0159416D02*
X0023819Y0159416D01*
X0024067Y0160014D02*
X0020738Y0160014D01*
X0020360Y0160613D02*
X0024444Y0160613D01*
X0025043Y0161211D02*
X0019762Y0161211D01*
X0018650Y0161810D02*
X0026155Y0161810D01*
X0028650Y0161810D02*
X0116155Y0161810D01*
X0116656Y0162018D02*
X0115278Y0161447D01*
X0114223Y0160392D01*
X0113652Y0159014D01*
X0113652Y0157522D01*
X0114223Y0156144D01*
X0115278Y0155089D01*
X0116656Y0154518D01*
X0118148Y0154518D01*
X0119527Y0155089D01*
X0120581Y0156144D01*
X0121152Y0157522D01*
X0121152Y0159014D01*
X0120581Y0160392D01*
X0119527Y0161447D01*
X0118148Y0162018D01*
X0116656Y0162018D01*
X0115043Y0161211D02*
X0029762Y0161211D01*
X0030360Y0160613D02*
X0114444Y0160613D01*
X0114067Y0160014D02*
X0030738Y0160014D01*
X0030986Y0159416D02*
X0113819Y0159416D01*
X0113652Y0158817D02*
X0031152Y0158817D01*
X0031152Y0158219D02*
X0113652Y0158219D01*
X0113652Y0157620D02*
X0031152Y0157620D01*
X0030945Y0157022D02*
X0113859Y0157022D01*
X0114107Y0156423D02*
X0030697Y0156423D01*
X0030263Y0155825D02*
X0114542Y0155825D01*
X0115140Y0155226D02*
X0029664Y0155226D01*
X0028414Y0154628D02*
X0116391Y0154628D01*
X0118414Y0154628D02*
X0126391Y0154628D01*
X0125140Y0155226D02*
X0119664Y0155226D01*
X0120263Y0155825D02*
X0124542Y0155825D01*
X0124107Y0156423D02*
X0120697Y0156423D01*
X0120945Y0157022D02*
X0123859Y0157022D01*
X0123652Y0157620D02*
X0121152Y0157620D01*
X0121152Y0158219D02*
X0123652Y0158219D01*
X0123652Y0158817D02*
X0121152Y0158817D01*
X0120986Y0159416D02*
X0123819Y0159416D01*
X0124067Y0160014D02*
X0120738Y0160014D01*
X0120360Y0160613D02*
X0124444Y0160613D01*
X0125043Y0161211D02*
X0119762Y0161211D01*
X0118650Y0161810D02*
X0126155Y0161810D01*
X0125733Y0151635D02*
X0119072Y0151635D01*
X0119527Y0151447D02*
X0118148Y0152018D01*
X0116656Y0152018D01*
X0115278Y0151447D01*
X0114223Y0150392D01*
X0113652Y0149014D01*
X0113652Y0147522D01*
X0114223Y0146144D01*
X0115278Y0145089D01*
X0116656Y0144518D01*
X0118148Y0144518D01*
X0119527Y0145089D01*
X0120581Y0146144D01*
X0121152Y0147522D01*
X0121152Y0149014D01*
X0120581Y0150392D01*
X0119527Y0151447D01*
X0119937Y0151037D02*
X0124868Y0151037D01*
X0124270Y0150438D02*
X0120535Y0150438D01*
X0120810Y0149840D02*
X0123995Y0149840D01*
X0123747Y0149241D02*
X0121058Y0149241D01*
X0121152Y0148643D02*
X0123652Y0148643D01*
X0123652Y0148044D02*
X0121152Y0148044D01*
X0121121Y0147446D02*
X0123684Y0147446D01*
X0123932Y0146847D02*
X0120873Y0146847D01*
X0120625Y0146249D02*
X0124180Y0146249D01*
X0124717Y0145650D02*
X0120088Y0145650D01*
X0119437Y0145052D02*
X0125367Y0145052D01*
X0125311Y0141461D02*
X0119493Y0141461D01*
X0119527Y0141447D02*
X0118148Y0142018D01*
X0116656Y0142018D01*
X0115278Y0141447D01*
X0114223Y0140392D01*
X0113652Y0139014D01*
X0113652Y0137522D01*
X0114223Y0136144D01*
X0115278Y0135089D01*
X0116656Y0134518D01*
X0118148Y0134518D01*
X0119527Y0135089D01*
X0120581Y0136144D01*
X0121152Y0137522D01*
X0121152Y0139014D01*
X0120581Y0140392D01*
X0119527Y0141447D01*
X0120111Y0140862D02*
X0124693Y0140862D01*
X0124170Y0140264D02*
X0120635Y0140264D01*
X0120883Y0139665D02*
X0123922Y0139665D01*
X0123674Y0139067D02*
X0121130Y0139067D01*
X0121152Y0138468D02*
X0123652Y0138468D01*
X0123652Y0137870D02*
X0121152Y0137870D01*
X0121048Y0137271D02*
X0123756Y0137271D01*
X0124004Y0136672D02*
X0120801Y0136672D01*
X0120512Y0136074D02*
X0124293Y0136074D01*
X0124891Y0135475D02*
X0119913Y0135475D01*
X0119016Y0134877D02*
X0125789Y0134877D01*
X0126335Y0131884D02*
X0118442Y0131884D01*
X0119635Y0131286D02*
X0125117Y0131286D01*
X0124519Y0130687D02*
X0120286Y0130687D01*
X0120696Y0130089D02*
X0124098Y0130089D01*
X0123850Y0129490D02*
X0120955Y0129490D01*
X0121102Y0128892D02*
X0123652Y0128892D01*
X0128470Y0131884D02*
X0139700Y0131884D01*
X0139700Y0131286D02*
X0129687Y0131286D01*
X0130286Y0130687D02*
X0139700Y0130687D01*
X0139700Y0130089D02*
X0130707Y0130089D01*
X0130955Y0129490D02*
X0139700Y0129490D01*
X0139700Y0128892D02*
X0131152Y0128892D01*
X0131152Y0128293D02*
X0139700Y0128293D01*
X0139700Y0127695D02*
X0131152Y0127695D01*
X0130976Y0127096D02*
X0139700Y0127096D01*
X0139700Y0126498D02*
X0130728Y0126498D01*
X0130337Y0125899D02*
X0139700Y0125899D01*
X0139700Y0125301D02*
X0129739Y0125301D01*
X0125913Y0121710D02*
X0118892Y0121710D01*
X0119862Y0121111D02*
X0124943Y0121111D01*
X0124344Y0120513D02*
X0120461Y0120513D01*
X0120779Y0119914D02*
X0124025Y0119914D01*
X0123777Y0119316D02*
X0121027Y0119316D01*
X0121152Y0118717D02*
X0123652Y0118717D01*
X0123652Y0118119D02*
X0121152Y0118119D01*
X0121152Y0117520D02*
X0123653Y0117520D01*
X0123901Y0116922D02*
X0120904Y0116922D01*
X0120656Y0116323D02*
X0124149Y0116323D01*
X0124642Y0115725D02*
X0120163Y0115725D01*
X0119564Y0115126D02*
X0125241Y0115126D01*
X0125491Y0111535D02*
X0119314Y0111535D01*
X0119527Y0111447D02*
X0118148Y0112018D01*
X0116656Y0112018D01*
X0115278Y0111447D01*
X0114223Y0110392D01*
X0113652Y0109014D01*
X0113652Y0107522D01*
X0114223Y0106144D01*
X0115278Y0105089D01*
X0116656Y0104518D01*
X0118148Y0104518D01*
X0119527Y0105089D01*
X0120581Y0106144D01*
X0121152Y0107522D01*
X0121152Y0109014D01*
X0120581Y0110392D01*
X0119527Y0111447D01*
X0120037Y0110937D02*
X0124768Y0110937D01*
X0124201Y0110338D02*
X0120604Y0110338D01*
X0120852Y0109739D02*
X0123953Y0109739D01*
X0123705Y0109141D02*
X0121100Y0109141D01*
X0121152Y0108542D02*
X0123652Y0108542D01*
X0123652Y0107944D02*
X0121152Y0107944D01*
X0121079Y0107345D02*
X0123725Y0107345D01*
X0123973Y0106747D02*
X0120831Y0106747D01*
X0120583Y0106148D02*
X0124221Y0106148D01*
X0124817Y0105550D02*
X0119988Y0105550D01*
X0119195Y0104951D02*
X0125609Y0104951D01*
X0126309Y0101874D02*
X0125626Y0101591D01*
X0125012Y0101181D01*
X0124490Y0100658D01*
X0124079Y0100044D01*
X0123796Y0099362D01*
X0123652Y0098637D01*
X0123652Y0098568D01*
X0127102Y0098568D01*
X0127102Y0097968D01*
X0123652Y0097968D01*
X0123652Y0097898D01*
X0123796Y0097174D01*
X0124079Y0096491D01*
X0124490Y0095877D01*
X0125012Y0095355D01*
X0125626Y0094945D01*
X0126309Y0094662D01*
X0127033Y0094518D01*
X0127102Y0094518D01*
X0127102Y0097968D01*
X0127702Y0097968D01*
X0127702Y0094518D01*
X0127772Y0094518D01*
X0128496Y0094662D01*
X0129179Y0094945D01*
X0129793Y0095355D01*
X0130315Y0095877D01*
X0130726Y0096491D01*
X0131008Y0097174D01*
X0131152Y0097898D01*
X0131152Y0097968D01*
X0127702Y0097968D01*
X0127702Y0098568D01*
X0127102Y0098568D01*
X0127102Y0102018D01*
X0127033Y0102018D01*
X0126309Y0101874D01*
X0126737Y0101959D02*
X0118068Y0101959D01*
X0117772Y0102018D02*
X0117702Y0102018D01*
X0117702Y0098568D01*
X0117102Y0098568D01*
X0117102Y0097968D01*
X0113652Y0097968D01*
X0113652Y0097898D01*
X0113796Y0097174D01*
X0114079Y0096491D01*
X0114490Y0095877D01*
X0115012Y0095355D01*
X0115626Y0094945D01*
X0116309Y0094662D01*
X0117033Y0094518D01*
X0117102Y0094518D01*
X0117102Y0097968D01*
X0117702Y0097968D01*
X0117702Y0094518D01*
X0117772Y0094518D01*
X0118496Y0094662D01*
X0119179Y0094945D01*
X0119793Y0095355D01*
X0120315Y0095877D01*
X0120726Y0096491D01*
X0121008Y0097174D01*
X0121152Y0097898D01*
X0121152Y0097968D01*
X0117702Y0097968D01*
X0117702Y0098568D01*
X0121152Y0098568D01*
X0121152Y0098637D01*
X0121008Y0099362D01*
X0120726Y0100044D01*
X0120315Y0100658D01*
X0119793Y0101181D01*
X0119179Y0101591D01*
X0118496Y0101874D01*
X0117772Y0102018D01*
X0117702Y0101959D02*
X0117102Y0101959D01*
X0117102Y0102018D02*
X0117033Y0102018D01*
X0116309Y0101874D01*
X0115626Y0101591D01*
X0115012Y0101181D01*
X0114490Y0100658D01*
X0114079Y0100044D01*
X0113796Y0099362D01*
X0113652Y0098637D01*
X0113652Y0098568D01*
X0117102Y0098568D01*
X0117102Y0102018D01*
X0116737Y0101959D02*
X0028068Y0101959D01*
X0027702Y0101959D02*
X0027102Y0101959D01*
X0027102Y0101360D02*
X0027702Y0101360D01*
X0027702Y0100762D02*
X0027102Y0100762D01*
X0027102Y0100163D02*
X0027702Y0100163D01*
X0027702Y0099565D02*
X0027102Y0099565D01*
X0027102Y0098966D02*
X0027702Y0098966D01*
X0027702Y0098368D02*
X0117102Y0098368D01*
X0117102Y0098966D02*
X0117702Y0098966D01*
X0117702Y0098368D02*
X0127102Y0098368D01*
X0127102Y0098966D02*
X0127702Y0098966D01*
X0127702Y0098568D02*
X0127702Y0102018D01*
X0127772Y0102018D01*
X0128496Y0101874D01*
X0129179Y0101591D01*
X0129793Y0101181D01*
X0130315Y0100658D01*
X0130726Y0100044D01*
X0131008Y0099362D01*
X0131152Y0098637D01*
X0131152Y0098568D01*
X0127702Y0098568D01*
X0127702Y0098368D02*
X0139700Y0098368D01*
X0139700Y0098966D02*
X0131087Y0098966D01*
X0130924Y0099565D02*
X0139700Y0099565D01*
X0139700Y0100163D02*
X0130646Y0100163D01*
X0130212Y0100762D02*
X0139700Y0100762D01*
X0139700Y0101360D02*
X0129524Y0101360D01*
X0128068Y0101959D02*
X0139700Y0101959D01*
X0139700Y0097769D02*
X0131127Y0097769D01*
X0131007Y0097171D02*
X0139700Y0097171D01*
X0139700Y0096572D02*
X0130759Y0096572D01*
X0130380Y0095974D02*
X0139700Y0095974D01*
X0139700Y0095375D02*
X0129813Y0095375D01*
X0128774Y0094777D02*
X0139700Y0094777D01*
X0139700Y0094178D02*
X0004900Y0094178D01*
X0004900Y0093580D02*
X0139700Y0093580D01*
X0139700Y0092981D02*
X0004900Y0092981D01*
X0004900Y0092383D02*
X0139700Y0092383D01*
X0139700Y0091784D02*
X0128712Y0091784D01*
X0128496Y0091874D02*
X0129179Y0091591D01*
X0129793Y0091181D01*
X0130315Y0090658D01*
X0130726Y0090044D01*
X0131008Y0089362D01*
X0131152Y0088637D01*
X0131152Y0088568D01*
X0127702Y0088568D01*
X0127102Y0088568D01*
X0127102Y0087968D01*
X0123652Y0087968D01*
X0123652Y0087898D01*
X0123796Y0087174D01*
X0124079Y0086491D01*
X0124490Y0085877D01*
X0125012Y0085355D01*
X0125626Y0084945D01*
X0126309Y0084662D01*
X0127033Y0084518D01*
X0127102Y0084518D01*
X0127102Y0087968D01*
X0127702Y0087968D01*
X0127702Y0084518D01*
X0127772Y0084518D01*
X0128496Y0084662D01*
X0129179Y0084945D01*
X0129793Y0085355D01*
X0130315Y0085877D01*
X0130726Y0086491D01*
X0131008Y0087174D01*
X0131152Y0087898D01*
X0131152Y0087968D01*
X0127702Y0087968D01*
X0127702Y0088568D01*
X0127702Y0092018D01*
X0127772Y0092018D01*
X0128496Y0091874D01*
X0127702Y0091784D02*
X0127102Y0091784D01*
X0127102Y0092018D02*
X0127102Y0088568D01*
X0123652Y0088568D01*
X0123652Y0088637D01*
X0123796Y0089362D01*
X0124079Y0090044D01*
X0124490Y0090658D01*
X0125012Y0091181D01*
X0125626Y0091591D01*
X0126309Y0091874D01*
X0127033Y0092018D01*
X0127102Y0092018D01*
X0127102Y0091186D02*
X0127702Y0091186D01*
X0127702Y0090587D02*
X0127102Y0090587D01*
X0127102Y0089989D02*
X0127702Y0089989D01*
X0127702Y0089390D02*
X0127102Y0089390D01*
X0127102Y0088792D02*
X0127702Y0088792D01*
X0127702Y0088193D02*
X0139700Y0088193D01*
X0139700Y0087595D02*
X0131092Y0087595D01*
X0130935Y0086996D02*
X0139700Y0086996D01*
X0139700Y0086398D02*
X0130663Y0086398D01*
X0130237Y0085799D02*
X0139700Y0085799D01*
X0139700Y0085201D02*
X0129562Y0085201D01*
X0128195Y0084602D02*
X0139700Y0084602D01*
X0139700Y0084003D02*
X0004900Y0084003D01*
X0004900Y0083405D02*
X0139700Y0083405D01*
X0139700Y0082806D02*
X0004900Y0082806D01*
X0004900Y0082208D02*
X0139700Y0082208D01*
X0139700Y0081609D02*
X0129134Y0081609D01*
X0129527Y0081447D02*
X0128148Y0082018D01*
X0126656Y0082018D01*
X0125278Y0081447D01*
X0124223Y0080392D01*
X0123652Y0079014D01*
X0123652Y0077522D01*
X0124223Y0076144D01*
X0125278Y0075089D01*
X0126656Y0074518D01*
X0128148Y0074518D01*
X0129527Y0075089D01*
X0130581Y0076144D01*
X0131152Y0077522D01*
X0131152Y0079014D01*
X0130581Y0080392D01*
X0129527Y0081447D01*
X0129962Y0081011D02*
X0139700Y0081011D01*
X0139700Y0080412D02*
X0130561Y0080412D01*
X0130821Y0079814D02*
X0139700Y0079814D01*
X0139700Y0079215D02*
X0131069Y0079215D01*
X0131152Y0078617D02*
X0139700Y0078617D01*
X0139700Y0078018D02*
X0131152Y0078018D01*
X0131110Y0077420D02*
X0139700Y0077420D01*
X0139700Y0076821D02*
X0130862Y0076821D01*
X0130614Y0076223D02*
X0139700Y0076223D01*
X0139700Y0075624D02*
X0130062Y0075624D01*
X0129375Y0075026D02*
X0139700Y0075026D01*
X0139700Y0074427D02*
X0004900Y0074427D01*
X0004900Y0073829D02*
X0139700Y0073829D01*
X0139700Y0073230D02*
X0004900Y0073230D01*
X0004900Y0072632D02*
X0139700Y0072632D01*
X0139700Y0072033D02*
X0004900Y0072033D01*
X0004900Y0071435D02*
X0015266Y0071435D01*
X0015278Y0071447D02*
X0014223Y0070392D01*
X0013652Y0069014D01*
X0013652Y0067522D01*
X0014223Y0066144D01*
X0015278Y0065089D01*
X0016656Y0064518D01*
X0018148Y0064518D01*
X0019527Y0065089D01*
X0020581Y0066144D01*
X0021152Y0067522D01*
X0021152Y0069014D01*
X0020581Y0070392D01*
X0019527Y0071447D01*
X0018148Y0072018D01*
X0016656Y0072018D01*
X0015278Y0071447D01*
X0014668Y0070836D02*
X0004900Y0070836D01*
X0004900Y0070238D02*
X0014159Y0070238D01*
X0013911Y0069639D02*
X0004900Y0069639D01*
X0004900Y0069041D02*
X0013664Y0069041D01*
X0013652Y0068442D02*
X0004900Y0068442D01*
X0004900Y0067844D02*
X0013652Y0067844D01*
X0013767Y0067245D02*
X0004900Y0067245D01*
X0004900Y0066647D02*
X0014015Y0066647D01*
X0014319Y0066048D02*
X0004900Y0066048D01*
X0004900Y0065450D02*
X0014917Y0065450D01*
X0015851Y0064851D02*
X0004900Y0064851D01*
X0004900Y0064253D02*
X0139700Y0064253D01*
X0139700Y0064851D02*
X0128953Y0064851D01*
X0129527Y0065089D02*
X0128148Y0064518D01*
X0126656Y0064518D01*
X0125278Y0065089D01*
X0124223Y0066144D01*
X0123652Y0067522D01*
X0123652Y0069014D01*
X0124223Y0070392D01*
X0125278Y0071447D01*
X0126656Y0072018D01*
X0128148Y0072018D01*
X0129527Y0071447D01*
X0130581Y0070392D01*
X0131152Y0069014D01*
X0131152Y0067522D01*
X0130581Y0066144D01*
X0129527Y0065089D01*
X0129888Y0065450D02*
X0139700Y0065450D01*
X0139700Y0066048D02*
X0130486Y0066048D01*
X0130790Y0066647D02*
X0139700Y0066647D01*
X0139700Y0067245D02*
X0131038Y0067245D01*
X0131152Y0067844D02*
X0139700Y0067844D01*
X0139700Y0068442D02*
X0131152Y0068442D01*
X0131141Y0069041D02*
X0139700Y0069041D01*
X0139700Y0069639D02*
X0130893Y0069639D01*
X0130645Y0070238D02*
X0139700Y0070238D01*
X0139700Y0070836D02*
X0130137Y0070836D01*
X0129539Y0071435D02*
X0139700Y0071435D01*
X0139700Y0063654D02*
X0004900Y0063654D01*
X0004900Y0063056D02*
X0139700Y0063056D01*
X0139700Y0062457D02*
X0004900Y0062457D01*
X0004900Y0061859D02*
X0016272Y0061859D01*
X0016656Y0062018D02*
X0015278Y0061447D01*
X0014223Y0060392D01*
X0013652Y0059014D01*
X0013652Y0057522D01*
X0014223Y0056144D01*
X0015278Y0055089D01*
X0016656Y0054518D01*
X0018148Y0054518D01*
X0019527Y0055089D01*
X0020581Y0056144D01*
X0021152Y0057522D01*
X0021152Y0059014D01*
X0020581Y0060392D01*
X0019527Y0061447D01*
X0018148Y0062018D01*
X0016656Y0062018D01*
X0015091Y0061260D02*
X0004900Y0061260D01*
X0004900Y0060662D02*
X0014493Y0060662D01*
X0014087Y0060063D02*
X0004900Y0060063D01*
X0004900Y0059465D02*
X0013839Y0059465D01*
X0013652Y0058866D02*
X0004900Y0058866D01*
X0004900Y0058268D02*
X0013652Y0058268D01*
X0013652Y0057669D02*
X0004900Y0057669D01*
X0004900Y0057070D02*
X0013839Y0057070D01*
X0014087Y0056472D02*
X0004900Y0056472D01*
X0004900Y0055873D02*
X0014493Y0055873D01*
X0015092Y0055275D02*
X0004900Y0055275D01*
X0004900Y0054676D02*
X0016273Y0054676D01*
X0018531Y0054676D02*
X0026273Y0054676D01*
X0026656Y0054518D02*
X0028148Y0054518D01*
X0029527Y0055089D01*
X0030581Y0056144D01*
X0031152Y0057522D01*
X0031152Y0059014D01*
X0030581Y0060392D01*
X0029527Y0061447D01*
X0028148Y0062018D01*
X0026656Y0062018D01*
X0025278Y0061447D01*
X0024223Y0060392D01*
X0023652Y0059014D01*
X0023652Y0057522D01*
X0024223Y0056144D01*
X0025278Y0055089D01*
X0026656Y0054518D01*
X0025092Y0055275D02*
X0019713Y0055275D01*
X0020311Y0055873D02*
X0024493Y0055873D01*
X0024087Y0056472D02*
X0020717Y0056472D01*
X0020965Y0057070D02*
X0023839Y0057070D01*
X0023652Y0057669D02*
X0021152Y0057669D01*
X0021152Y0058268D02*
X0023652Y0058268D01*
X0023652Y0058866D02*
X0021152Y0058866D01*
X0020966Y0059465D02*
X0023839Y0059465D01*
X0024087Y0060063D02*
X0020718Y0060063D01*
X0020312Y0060662D02*
X0024493Y0060662D01*
X0025091Y0061260D02*
X0019713Y0061260D01*
X0018532Y0061859D02*
X0026272Y0061859D01*
X0028532Y0061859D02*
X0116272Y0061859D01*
X0116656Y0062018D02*
X0115278Y0061447D01*
X0114223Y0060392D01*
X0113652Y0059014D01*
X0113652Y0057522D01*
X0114223Y0056144D01*
X0115278Y0055089D01*
X0116656Y0054518D01*
X0118148Y0054518D01*
X0119527Y0055089D01*
X0120581Y0056144D01*
X0121152Y0057522D01*
X0121152Y0059014D01*
X0120581Y0060392D01*
X0119527Y0061447D01*
X0118148Y0062018D01*
X0116656Y0062018D01*
X0115091Y0061260D02*
X0029713Y0061260D01*
X0030312Y0060662D02*
X0114493Y0060662D01*
X0114087Y0060063D02*
X0030718Y0060063D01*
X0030966Y0059465D02*
X0113839Y0059465D01*
X0113652Y0058866D02*
X0031152Y0058866D01*
X0031152Y0058268D02*
X0113652Y0058268D01*
X0113652Y0057669D02*
X0031152Y0057669D01*
X0030965Y0057070D02*
X0113839Y0057070D01*
X0114087Y0056472D02*
X0030717Y0056472D01*
X0030311Y0055873D02*
X0114493Y0055873D01*
X0115092Y0055275D02*
X0029713Y0055275D01*
X0028531Y0054676D02*
X0116273Y0054676D01*
X0118531Y0054676D02*
X0126273Y0054676D01*
X0126656Y0054518D02*
X0128148Y0054518D01*
X0129527Y0055089D01*
X0130581Y0056144D01*
X0131152Y0057522D01*
X0131152Y0059014D01*
X0130581Y0060392D01*
X0129527Y0061447D01*
X0128148Y0062018D01*
X0126656Y0062018D01*
X0125278Y0061447D01*
X0124223Y0060392D01*
X0123652Y0059014D01*
X0123652Y0057522D01*
X0124223Y0056144D01*
X0125278Y0055089D01*
X0126656Y0054518D01*
X0125092Y0055275D02*
X0119713Y0055275D01*
X0120311Y0055873D02*
X0124493Y0055873D01*
X0124087Y0056472D02*
X0120717Y0056472D01*
X0120965Y0057070D02*
X0123839Y0057070D01*
X0123652Y0057669D02*
X0121152Y0057669D01*
X0121152Y0058268D02*
X0123652Y0058268D01*
X0123652Y0058866D02*
X0121152Y0058866D01*
X0120966Y0059465D02*
X0123839Y0059465D01*
X0124087Y0060063D02*
X0120718Y0060063D01*
X0120312Y0060662D02*
X0124493Y0060662D01*
X0125091Y0061260D02*
X0119713Y0061260D01*
X0118532Y0061859D02*
X0126272Y0061859D01*
X0128532Y0061859D02*
X0139700Y0061859D01*
X0139700Y0061260D02*
X0129713Y0061260D01*
X0130312Y0060662D02*
X0139700Y0060662D01*
X0139700Y0060063D02*
X0130718Y0060063D01*
X0130966Y0059465D02*
X0139700Y0059465D01*
X0139700Y0058866D02*
X0131152Y0058866D01*
X0131152Y0058268D02*
X0139700Y0058268D01*
X0139700Y0057669D02*
X0131152Y0057669D01*
X0130965Y0057070D02*
X0139700Y0057070D01*
X0139700Y0056472D02*
X0130717Y0056472D01*
X0130311Y0055873D02*
X0139700Y0055873D01*
X0139700Y0055275D02*
X0129713Y0055275D01*
X0128531Y0054676D02*
X0139700Y0054676D01*
X0139700Y0054078D02*
X0004900Y0054078D01*
X0004900Y0053479D02*
X0139700Y0053479D01*
X0139700Y0052881D02*
X0004900Y0052881D01*
X0004900Y0052282D02*
X0139700Y0052282D01*
X0139700Y0051684D02*
X0128954Y0051684D01*
X0129527Y0051447D02*
X0128148Y0052018D01*
X0126656Y0052018D01*
X0125278Y0051447D01*
X0124223Y0050392D01*
X0123652Y0049014D01*
X0123652Y0047522D01*
X0124223Y0046144D01*
X0125278Y0045089D01*
X0126656Y0044518D01*
X0128148Y0044518D01*
X0129527Y0045089D01*
X0130581Y0046144D01*
X0131152Y0047522D01*
X0131152Y0049014D01*
X0130581Y0050392D01*
X0129527Y0051447D01*
X0129888Y0051085D02*
X0139700Y0051085D01*
X0139700Y0050487D02*
X0130487Y0050487D01*
X0130790Y0049888D02*
X0139700Y0049888D01*
X0139700Y0049290D02*
X0131038Y0049290D01*
X0131152Y0048691D02*
X0139700Y0048691D01*
X0139700Y0048093D02*
X0131152Y0048093D01*
X0131141Y0047494D02*
X0139700Y0047494D01*
X0139700Y0046896D02*
X0130893Y0046896D01*
X0130645Y0046297D02*
X0139700Y0046297D01*
X0139700Y0045699D02*
X0130137Y0045699D01*
X0129538Y0045100D02*
X0139700Y0045100D01*
X0139700Y0044502D02*
X0004900Y0044502D01*
X0004900Y0045100D02*
X0015267Y0045100D01*
X0015278Y0045089D02*
X0016656Y0044518D01*
X0018148Y0044518D01*
X0019527Y0045089D01*
X0020581Y0046144D01*
X0021152Y0047522D01*
X0021152Y0049014D01*
X0020581Y0050392D01*
X0019527Y0051447D01*
X0018148Y0052018D01*
X0016656Y0052018D01*
X0015278Y0051447D01*
X0014223Y0050392D01*
X0013652Y0049014D01*
X0013652Y0047522D01*
X0014223Y0046144D01*
X0015278Y0045089D01*
X0014668Y0045699D02*
X0004900Y0045699D01*
X0004900Y0046297D02*
X0014160Y0046297D01*
X0013912Y0046896D02*
X0004900Y0046896D01*
X0004900Y0047494D02*
X0013664Y0047494D01*
X0013652Y0048093D02*
X0004900Y0048093D01*
X0004900Y0048691D02*
X0013652Y0048691D01*
X0013767Y0049290D02*
X0004900Y0049290D01*
X0004900Y0049888D02*
X0014015Y0049888D01*
X0014318Y0050487D02*
X0004900Y0050487D01*
X0004900Y0051085D02*
X0014917Y0051085D01*
X0015851Y0051684D02*
X0004900Y0051684D01*
X0004900Y0043903D02*
X0139700Y0043903D01*
X0139700Y0043305D02*
X0004900Y0043305D01*
X0004900Y0042706D02*
X0139700Y0042706D01*
X0139700Y0042108D02*
X0004900Y0042108D01*
X0004900Y0041509D02*
X0015429Y0041509D01*
X0015278Y0041447D02*
X0016656Y0042018D01*
X0018148Y0042018D01*
X0019527Y0041447D01*
X0020581Y0040392D01*
X0021152Y0039014D01*
X0021152Y0037522D01*
X0020581Y0036144D01*
X0019527Y0035089D01*
X0018148Y0034518D01*
X0016656Y0034518D01*
X0015278Y0035089D01*
X0014223Y0036144D01*
X0013652Y0037522D01*
X0013652Y0039014D01*
X0014223Y0040392D01*
X0015278Y0041447D01*
X0014742Y0040911D02*
X0004900Y0040911D01*
X0004900Y0040312D02*
X0014190Y0040312D01*
X0013942Y0039714D02*
X0004900Y0039714D01*
X0004900Y0039115D02*
X0013694Y0039115D01*
X0013652Y0038517D02*
X0004900Y0038517D01*
X0004900Y0037918D02*
X0013652Y0037918D01*
X0013736Y0037320D02*
X0004900Y0037320D01*
X0004900Y0036721D02*
X0013984Y0036721D01*
X0014244Y0036123D02*
X0004900Y0036123D01*
X0004900Y0035524D02*
X0014843Y0035524D01*
X0015672Y0034926D02*
X0004900Y0034926D01*
X0004900Y0034327D02*
X0139700Y0034327D01*
X0139700Y0033729D02*
X0004900Y0033729D01*
X0004900Y0033130D02*
X0139700Y0033130D01*
X0139700Y0032532D02*
X0004900Y0032532D01*
X0004900Y0031933D02*
X0016452Y0031933D01*
X0016656Y0032018D02*
X0015278Y0031447D01*
X0014223Y0030392D01*
X0013652Y0029014D01*
X0013652Y0027522D01*
X0014223Y0026144D01*
X0015278Y0025089D01*
X0016656Y0024518D01*
X0018148Y0024518D01*
X0019527Y0025089D01*
X0020581Y0026144D01*
X0021152Y0027522D01*
X0021152Y0029014D01*
X0020581Y0030392D01*
X0019527Y0031447D01*
X0018148Y0032018D01*
X0016656Y0032018D01*
X0015166Y0031334D02*
X0004900Y0031334D01*
X0004900Y0030736D02*
X0014567Y0030736D01*
X0014118Y0030137D02*
X0004900Y0030137D01*
X0004900Y0029539D02*
X0013870Y0029539D01*
X0013652Y0028940D02*
X0004900Y0028940D01*
X0004900Y0028342D02*
X0013652Y0028342D01*
X0013652Y0027743D02*
X0004900Y0027743D01*
X0004900Y0027145D02*
X0013808Y0027145D01*
X0014056Y0026546D02*
X0004900Y0026546D01*
X0004900Y0025948D02*
X0014419Y0025948D01*
X0015017Y0025349D02*
X0004900Y0025349D01*
X0004900Y0024751D02*
X0016094Y0024751D01*
X0018711Y0024751D02*
X0026094Y0024751D01*
X0026656Y0024518D02*
X0028148Y0024518D01*
X0029527Y0025089D01*
X0030581Y0026144D01*
X0031152Y0027522D01*
X0031152Y0029014D01*
X0030581Y0030392D01*
X0029527Y0031447D01*
X0028148Y0032018D01*
X0026656Y0032018D01*
X0025278Y0031447D01*
X0024223Y0030392D01*
X0023652Y0029014D01*
X0023652Y0027522D01*
X0024223Y0026144D01*
X0025278Y0025089D01*
X0026656Y0024518D01*
X0025017Y0025349D02*
X0019787Y0025349D01*
X0020386Y0025948D02*
X0024419Y0025948D01*
X0024056Y0026546D02*
X0020748Y0026546D01*
X0020996Y0027145D02*
X0023808Y0027145D01*
X0023652Y0027743D02*
X0021152Y0027743D01*
X0021152Y0028342D02*
X0023652Y0028342D01*
X0023652Y0028940D02*
X0021152Y0028940D01*
X0020935Y0029539D02*
X0023870Y0029539D01*
X0024118Y0030137D02*
X0020687Y0030137D01*
X0020237Y0030736D02*
X0024567Y0030736D01*
X0025166Y0031334D02*
X0019639Y0031334D01*
X0018353Y0031933D02*
X0026452Y0031933D01*
X0028353Y0031933D02*
X0116452Y0031933D01*
X0116656Y0032018D02*
X0115278Y0031447D01*
X0114223Y0030392D01*
X0113652Y0029014D01*
X0113652Y0027522D01*
X0114223Y0026144D01*
X0115278Y0025089D01*
X0116656Y0024518D01*
X0118148Y0024518D01*
X0119527Y0025089D01*
X0120581Y0026144D01*
X0121152Y0027522D01*
X0121152Y0029014D01*
X0120581Y0030392D01*
X0119527Y0031447D01*
X0118148Y0032018D01*
X0116656Y0032018D01*
X0115166Y0031334D02*
X0029639Y0031334D01*
X0030237Y0030736D02*
X0114567Y0030736D01*
X0114118Y0030137D02*
X0030687Y0030137D01*
X0030935Y0029539D02*
X0113870Y0029539D01*
X0113652Y0028940D02*
X0031152Y0028940D01*
X0031152Y0028342D02*
X0113652Y0028342D01*
X0113652Y0027743D02*
X0031152Y0027743D01*
X0030996Y0027145D02*
X0113808Y0027145D01*
X0114056Y0026546D02*
X0030748Y0026546D01*
X0030386Y0025948D02*
X0114419Y0025948D01*
X0115017Y0025349D02*
X0029787Y0025349D01*
X0028711Y0024751D02*
X0116094Y0024751D01*
X0118711Y0024751D02*
X0126094Y0024751D01*
X0126656Y0024518D02*
X0128148Y0024518D01*
X0129527Y0025089D01*
X0130581Y0026144D01*
X0131152Y0027522D01*
X0131152Y0029014D01*
X0130581Y0030392D01*
X0129527Y0031447D01*
X0128148Y0032018D01*
X0126656Y0032018D01*
X0125278Y0031447D01*
X0124223Y0030392D01*
X0123652Y0029014D01*
X0123652Y0027522D01*
X0124223Y0026144D01*
X0125278Y0025089D01*
X0126656Y0024518D01*
X0125017Y0025349D02*
X0119787Y0025349D01*
X0120386Y0025948D02*
X0124419Y0025948D01*
X0124056Y0026546D02*
X0120748Y0026546D01*
X0120996Y0027145D02*
X0123808Y0027145D01*
X0123652Y0027743D02*
X0121152Y0027743D01*
X0121152Y0028342D02*
X0123652Y0028342D01*
X0123652Y0028940D02*
X0121152Y0028940D01*
X0120935Y0029539D02*
X0123870Y0029539D01*
X0124118Y0030137D02*
X0120687Y0030137D01*
X0120237Y0030736D02*
X0124567Y0030736D01*
X0125166Y0031334D02*
X0119639Y0031334D01*
X0118353Y0031933D02*
X0126452Y0031933D01*
X0128353Y0031933D02*
X0139700Y0031933D01*
X0139700Y0031334D02*
X0129639Y0031334D01*
X0130237Y0030736D02*
X0139700Y0030736D01*
X0139700Y0030137D02*
X0130687Y0030137D01*
X0130935Y0029539D02*
X0139700Y0029539D01*
X0139700Y0028940D02*
X0131152Y0028940D01*
X0131152Y0028342D02*
X0139700Y0028342D01*
X0139700Y0027743D02*
X0131152Y0027743D01*
X0130996Y0027145D02*
X0139700Y0027145D01*
X0139700Y0026546D02*
X0130748Y0026546D01*
X0130386Y0025948D02*
X0139700Y0025948D01*
X0139700Y0025349D02*
X0129787Y0025349D01*
X0128711Y0024751D02*
X0139700Y0024751D01*
X0139700Y0024152D02*
X0004900Y0024152D01*
X0004900Y0023554D02*
X0139700Y0023554D01*
X0139700Y0022955D02*
X0004900Y0022955D01*
X0004900Y0022357D02*
X0139700Y0022357D01*
X0139700Y0021758D02*
X0004900Y0021758D01*
X0004900Y0021160D02*
X0139700Y0021160D01*
X0139700Y0020561D02*
X0004900Y0020561D01*
X0004900Y0019963D02*
X0139700Y0019963D01*
X0139700Y0019364D02*
X0004900Y0019364D01*
X0004900Y0018766D02*
X0139700Y0018766D01*
X0139700Y0018167D02*
X0004900Y0018167D01*
X0004900Y0017569D02*
X0139700Y0017569D01*
X0139700Y0016970D02*
X0135986Y0016970D01*
X0135342Y0017237D02*
X0133258Y0017237D01*
X0131333Y0016440D01*
X0129860Y0014967D01*
X0129063Y0013042D01*
X0129063Y0010958D01*
X0129860Y0009033D01*
X0131333Y0007560D01*
X0133258Y0006763D01*
X0135342Y0006763D01*
X0137267Y0007560D01*
X0138740Y0009033D01*
X0139537Y0010958D01*
X0139537Y0013042D01*
X0138740Y0014967D01*
X0137267Y0016440D01*
X0135342Y0017237D01*
X0137335Y0016372D02*
X0139700Y0016372D01*
X0139700Y0015773D02*
X0137933Y0015773D01*
X0138532Y0015175D02*
X0139700Y0015175D01*
X0139700Y0014576D02*
X0138901Y0014576D01*
X0139149Y0013978D02*
X0139700Y0013978D01*
X0139700Y0013379D02*
X0139397Y0013379D01*
X0139537Y0012781D02*
X0139700Y0012781D01*
X0139700Y0012182D02*
X0139537Y0012182D01*
X0139537Y0011584D02*
X0139700Y0011584D01*
X0139700Y0010985D02*
X0139537Y0010985D01*
X0139700Y0010387D02*
X0139300Y0010387D01*
X0139052Y0009788D02*
X0139700Y0009788D01*
X0139700Y0009190D02*
X0138804Y0009190D01*
X0138297Y0008591D02*
X0139700Y0008591D01*
X0139700Y0007993D02*
X0137699Y0007993D01*
X0136865Y0007394D02*
X0139700Y0007394D01*
X0139700Y0006796D02*
X0135420Y0006796D01*
X0133180Y0006796D02*
X0011420Y0006796D01*
X0011342Y0006763D02*
X0013267Y0007560D01*
X0014740Y0009033D01*
X0015537Y0010958D01*
X0015537Y0013042D01*
X0014740Y0014967D01*
X0013267Y0016440D01*
X0011342Y0017237D01*
X0009258Y0017237D01*
X0007333Y0016440D01*
X0005860Y0014967D01*
X0005063Y0013042D01*
X0005063Y0010958D01*
X0005860Y0009033D01*
X0007333Y0007560D01*
X0009258Y0006763D01*
X0011342Y0006763D01*
X0012865Y0007394D02*
X0131735Y0007394D01*
X0130901Y0007993D02*
X0013699Y0007993D01*
X0014297Y0008591D02*
X0130303Y0008591D01*
X0129796Y0009190D02*
X0014804Y0009190D01*
X0015052Y0009788D02*
X0129548Y0009788D01*
X0129300Y0010387D02*
X0015300Y0010387D01*
X0015537Y0010985D02*
X0129063Y0010985D01*
X0129063Y0011584D02*
X0015537Y0011584D01*
X0015537Y0012182D02*
X0129063Y0012182D01*
X0129063Y0012781D02*
X0015537Y0012781D01*
X0015397Y0013379D02*
X0129203Y0013379D01*
X0129451Y0013978D02*
X0015149Y0013978D01*
X0014901Y0014576D02*
X0129699Y0014576D01*
X0130068Y0015175D02*
X0014532Y0015175D01*
X0013933Y0015773D02*
X0130667Y0015773D01*
X0131265Y0016372D02*
X0013335Y0016372D01*
X0011986Y0016970D02*
X0132614Y0016970D01*
X0128148Y0034518D02*
X0126656Y0034518D01*
X0125278Y0035089D01*
X0124223Y0036144D01*
X0123652Y0037522D01*
X0123652Y0039014D01*
X0124223Y0040392D01*
X0125278Y0041447D01*
X0126656Y0042018D01*
X0128148Y0042018D01*
X0129527Y0041447D01*
X0130581Y0040392D01*
X0131152Y0039014D01*
X0131152Y0037522D01*
X0130581Y0036144D01*
X0129527Y0035089D01*
X0128148Y0034518D01*
X0129133Y0034926D02*
X0139700Y0034926D01*
X0139700Y0035524D02*
X0129962Y0035524D01*
X0130561Y0036123D02*
X0139700Y0036123D01*
X0139700Y0036721D02*
X0130821Y0036721D01*
X0131069Y0037320D02*
X0139700Y0037320D01*
X0139700Y0037918D02*
X0131152Y0037918D01*
X0131152Y0038517D02*
X0139700Y0038517D01*
X0139700Y0039115D02*
X0131110Y0039115D01*
X0130862Y0039714D02*
X0139700Y0039714D01*
X0139700Y0040312D02*
X0130614Y0040312D01*
X0130063Y0040911D02*
X0139700Y0040911D01*
X0139700Y0041509D02*
X0129376Y0041509D01*
X0125429Y0041509D02*
X0119376Y0041509D01*
X0119527Y0041447D02*
X0118148Y0042018D01*
X0116656Y0042018D01*
X0115278Y0041447D01*
X0114223Y0040392D01*
X0113652Y0039014D01*
X0113652Y0037522D01*
X0114223Y0036144D01*
X0115278Y0035089D01*
X0116656Y0034518D01*
X0118148Y0034518D01*
X0119527Y0035089D01*
X0120581Y0036144D01*
X0121152Y0037522D01*
X0121152Y0039014D01*
X0120581Y0040392D01*
X0119527Y0041447D01*
X0120063Y0040911D02*
X0124742Y0040911D01*
X0124190Y0040312D02*
X0120614Y0040312D01*
X0120862Y0039714D02*
X0123942Y0039714D01*
X0123694Y0039115D02*
X0121110Y0039115D01*
X0121152Y0038517D02*
X0123652Y0038517D01*
X0123652Y0037918D02*
X0121152Y0037918D01*
X0121069Y0037320D02*
X0123736Y0037320D01*
X0123984Y0036721D02*
X0120821Y0036721D01*
X0120561Y0036123D02*
X0124244Y0036123D01*
X0124843Y0035524D02*
X0119962Y0035524D01*
X0119133Y0034926D02*
X0125672Y0034926D01*
X0115672Y0034926D02*
X0029133Y0034926D01*
X0029527Y0035089D02*
X0030581Y0036144D01*
X0031152Y0037522D01*
X0031152Y0039014D01*
X0030581Y0040392D01*
X0029527Y0041447D01*
X0028148Y0042018D01*
X0026656Y0042018D01*
X0025278Y0041447D01*
X0024223Y0040392D01*
X0023652Y0039014D01*
X0023652Y0037522D01*
X0024223Y0036144D01*
X0025278Y0035089D01*
X0026656Y0034518D01*
X0028148Y0034518D01*
X0029527Y0035089D01*
X0029962Y0035524D02*
X0114843Y0035524D01*
X0114244Y0036123D02*
X0030561Y0036123D01*
X0030821Y0036721D02*
X0113984Y0036721D01*
X0113736Y0037320D02*
X0031069Y0037320D01*
X0031152Y0037918D02*
X0113652Y0037918D01*
X0113652Y0038517D02*
X0031152Y0038517D01*
X0031110Y0039115D02*
X0113694Y0039115D01*
X0113942Y0039714D02*
X0030862Y0039714D01*
X0030614Y0040312D02*
X0114190Y0040312D01*
X0114742Y0040911D02*
X0030063Y0040911D01*
X0029376Y0041509D02*
X0115429Y0041509D01*
X0116656Y0044518D02*
X0118148Y0044518D01*
X0119527Y0045089D01*
X0120581Y0046144D01*
X0121152Y0047522D01*
X0121152Y0049014D01*
X0120581Y0050392D01*
X0119527Y0051447D01*
X0118148Y0052018D01*
X0116656Y0052018D01*
X0115278Y0051447D01*
X0114223Y0050392D01*
X0113652Y0049014D01*
X0113652Y0047522D01*
X0114223Y0046144D01*
X0115278Y0045089D01*
X0116656Y0044518D01*
X0115267Y0045100D02*
X0029538Y0045100D01*
X0029527Y0045089D02*
X0030581Y0046144D01*
X0031152Y0047522D01*
X0031152Y0049014D01*
X0030581Y0050392D01*
X0029527Y0051447D01*
X0028148Y0052018D01*
X0026656Y0052018D01*
X0025278Y0051447D01*
X0024223Y0050392D01*
X0023652Y0049014D01*
X0023652Y0047522D01*
X0024223Y0046144D01*
X0025278Y0045089D01*
X0026656Y0044518D01*
X0028148Y0044518D01*
X0029527Y0045089D01*
X0030137Y0045699D02*
X0114668Y0045699D01*
X0114160Y0046297D02*
X0030645Y0046297D01*
X0030893Y0046896D02*
X0113912Y0046896D01*
X0113664Y0047494D02*
X0031141Y0047494D01*
X0031152Y0048093D02*
X0113652Y0048093D01*
X0113652Y0048691D02*
X0031152Y0048691D01*
X0031038Y0049290D02*
X0113767Y0049290D01*
X0114015Y0049888D02*
X0030790Y0049888D01*
X0030487Y0050487D02*
X0114318Y0050487D01*
X0114917Y0051085D02*
X0029888Y0051085D01*
X0028954Y0051684D02*
X0115851Y0051684D01*
X0118954Y0051684D02*
X0125851Y0051684D01*
X0124917Y0051085D02*
X0119888Y0051085D01*
X0120487Y0050487D02*
X0124318Y0050487D01*
X0124015Y0049888D02*
X0120790Y0049888D01*
X0121038Y0049290D02*
X0123767Y0049290D01*
X0123652Y0048691D02*
X0121152Y0048691D01*
X0121152Y0048093D02*
X0123652Y0048093D01*
X0123664Y0047494D02*
X0121141Y0047494D01*
X0120893Y0046896D02*
X0123912Y0046896D01*
X0124160Y0046297D02*
X0120645Y0046297D01*
X0120137Y0045699D02*
X0124668Y0045699D01*
X0125267Y0045100D02*
X0119538Y0045100D01*
X0118148Y0064518D02*
X0116656Y0064518D01*
X0115278Y0065089D01*
X0114223Y0066144D01*
X0113652Y0067522D01*
X0113652Y0069014D01*
X0114223Y0070392D01*
X0115278Y0071447D01*
X0116656Y0072018D01*
X0118148Y0072018D01*
X0119527Y0071447D01*
X0120581Y0070392D01*
X0121152Y0069014D01*
X0121152Y0067522D01*
X0120581Y0066144D01*
X0119527Y0065089D01*
X0118148Y0064518D01*
X0118953Y0064851D02*
X0125851Y0064851D01*
X0124917Y0065450D02*
X0119888Y0065450D01*
X0120486Y0066048D02*
X0124319Y0066048D01*
X0124015Y0066647D02*
X0120790Y0066647D01*
X0121038Y0067245D02*
X0123767Y0067245D01*
X0123652Y0067844D02*
X0121152Y0067844D01*
X0121152Y0068442D02*
X0123652Y0068442D01*
X0123664Y0069041D02*
X0121141Y0069041D01*
X0120893Y0069639D02*
X0123911Y0069639D01*
X0124159Y0070238D02*
X0120645Y0070238D01*
X0120137Y0070836D02*
X0124668Y0070836D01*
X0125266Y0071435D02*
X0119539Y0071435D01*
X0118148Y0074518D02*
X0119527Y0075089D01*
X0120581Y0076144D01*
X0121152Y0077522D01*
X0121152Y0079014D01*
X0120581Y0080392D01*
X0119527Y0081447D01*
X0118148Y0082018D01*
X0116656Y0082018D01*
X0115278Y0081447D01*
X0114223Y0080392D01*
X0113652Y0079014D01*
X0113652Y0077522D01*
X0114223Y0076144D01*
X0115278Y0075089D01*
X0116656Y0074518D01*
X0118148Y0074518D01*
X0119375Y0075026D02*
X0125430Y0075026D01*
X0124742Y0075624D02*
X0120062Y0075624D01*
X0120614Y0076223D02*
X0124190Y0076223D01*
X0123942Y0076821D02*
X0120862Y0076821D01*
X0121110Y0077420D02*
X0123695Y0077420D01*
X0123652Y0078018D02*
X0121152Y0078018D01*
X0121152Y0078617D02*
X0123652Y0078617D01*
X0123736Y0079215D02*
X0121069Y0079215D01*
X0120821Y0079814D02*
X0123984Y0079814D01*
X0124244Y0080412D02*
X0120561Y0080412D01*
X0119962Y0081011D02*
X0124842Y0081011D01*
X0125671Y0081609D02*
X0119134Y0081609D01*
X0118148Y0084518D02*
X0116656Y0084518D01*
X0115278Y0085089D01*
X0114223Y0086144D01*
X0113652Y0087522D01*
X0113652Y0089014D01*
X0114223Y0090392D01*
X0115278Y0091447D01*
X0116656Y0092018D01*
X0118148Y0092018D01*
X0119527Y0091447D01*
X0120581Y0090392D01*
X0121152Y0089014D01*
X0121152Y0087522D01*
X0120581Y0086144D01*
X0119527Y0085089D01*
X0118148Y0084518D01*
X0118352Y0084602D02*
X0126609Y0084602D01*
X0127102Y0084602D02*
X0127702Y0084602D01*
X0127702Y0085201D02*
X0127102Y0085201D01*
X0127102Y0085799D02*
X0127702Y0085799D01*
X0127702Y0086398D02*
X0127102Y0086398D01*
X0127102Y0086996D02*
X0127702Y0086996D01*
X0127702Y0087595D02*
X0127102Y0087595D01*
X0127102Y0088193D02*
X0121152Y0088193D01*
X0121152Y0087595D02*
X0123713Y0087595D01*
X0123870Y0086996D02*
X0120935Y0086996D01*
X0120687Y0086398D02*
X0124142Y0086398D01*
X0124568Y0085799D02*
X0120237Y0085799D01*
X0119638Y0085201D02*
X0125243Y0085201D01*
X0123683Y0088792D02*
X0121152Y0088792D01*
X0120996Y0089390D02*
X0123808Y0089390D01*
X0124056Y0089989D02*
X0120749Y0089989D01*
X0120386Y0090587D02*
X0124442Y0090587D01*
X0125020Y0091186D02*
X0119788Y0091186D01*
X0118712Y0091784D02*
X0126093Y0091784D01*
X0126031Y0094777D02*
X0118774Y0094777D01*
X0117702Y0094777D02*
X0117102Y0094777D01*
X0117102Y0095375D02*
X0117702Y0095375D01*
X0117702Y0095974D02*
X0117102Y0095974D01*
X0117102Y0096572D02*
X0117702Y0096572D01*
X0117702Y0097171D02*
X0117102Y0097171D01*
X0117102Y0097769D02*
X0117702Y0097769D01*
X0117702Y0099565D02*
X0117102Y0099565D01*
X0117102Y0100163D02*
X0117702Y0100163D01*
X0117702Y0100762D02*
X0117102Y0100762D01*
X0117102Y0101360D02*
X0117702Y0101360D01*
X0119524Y0101360D02*
X0125281Y0101360D01*
X0124593Y0100762D02*
X0120212Y0100762D01*
X0120646Y0100163D02*
X0124159Y0100163D01*
X0123881Y0099565D02*
X0120924Y0099565D01*
X0121087Y0098966D02*
X0123718Y0098966D01*
X0123678Y0097769D02*
X0121127Y0097769D01*
X0121007Y0097171D02*
X0123798Y0097171D01*
X0124046Y0096572D02*
X0120759Y0096572D01*
X0120380Y0095974D02*
X0124425Y0095974D01*
X0124992Y0095375D02*
X0119813Y0095375D01*
X0116031Y0094777D02*
X0028774Y0094777D01*
X0029813Y0095375D02*
X0114992Y0095375D01*
X0114425Y0095974D02*
X0030380Y0095974D01*
X0030759Y0096572D02*
X0114046Y0096572D01*
X0113798Y0097171D02*
X0031007Y0097171D01*
X0031127Y0097769D02*
X0113678Y0097769D01*
X0113718Y0098966D02*
X0031087Y0098966D01*
X0030924Y0099565D02*
X0113881Y0099565D01*
X0114159Y0100163D02*
X0030646Y0100163D01*
X0030212Y0100762D02*
X0114593Y0100762D01*
X0115281Y0101360D02*
X0029524Y0101360D01*
X0029195Y0104951D02*
X0115609Y0104951D01*
X0114817Y0105550D02*
X0029988Y0105550D01*
X0030583Y0106148D02*
X0114221Y0106148D01*
X0113973Y0106747D02*
X0030831Y0106747D01*
X0031079Y0107345D02*
X0113725Y0107345D01*
X0113652Y0107944D02*
X0031152Y0107944D01*
X0031152Y0108542D02*
X0113652Y0108542D01*
X0113705Y0109141D02*
X0031100Y0109141D01*
X0030852Y0109739D02*
X0113953Y0109739D01*
X0114201Y0110338D02*
X0030604Y0110338D01*
X0030037Y0110937D02*
X0114768Y0110937D01*
X0115491Y0111535D02*
X0029314Y0111535D01*
X0029564Y0115126D02*
X0115241Y0115126D01*
X0114642Y0115725D02*
X0030163Y0115725D01*
X0030656Y0116323D02*
X0114149Y0116323D01*
X0113901Y0116922D02*
X0030904Y0116922D01*
X0031152Y0117520D02*
X0113653Y0117520D01*
X0113652Y0118119D02*
X0031152Y0118119D01*
X0031152Y0118717D02*
X0113652Y0118717D01*
X0113777Y0119316D02*
X0031027Y0119316D01*
X0030779Y0119914D02*
X0114025Y0119914D01*
X0114344Y0120513D02*
X0030461Y0120513D01*
X0029862Y0121111D02*
X0114943Y0121111D01*
X0115913Y0121710D02*
X0028892Y0121710D01*
X0029712Y0125301D02*
X0115093Y0125301D01*
X0114475Y0125899D02*
X0030330Y0125899D01*
X0030728Y0126498D02*
X0114077Y0126498D01*
X0113829Y0127096D02*
X0030976Y0127096D01*
X0031112Y0127695D02*
X0113693Y0127695D01*
X0113703Y0128892D02*
X0031102Y0128892D01*
X0030955Y0129490D02*
X0113850Y0129490D01*
X0114109Y0130089D02*
X0030696Y0130089D01*
X0030286Y0130687D02*
X0114519Y0130687D01*
X0115170Y0131286D02*
X0029635Y0131286D01*
X0029016Y0134877D02*
X0115789Y0134877D01*
X0114891Y0135475D02*
X0029913Y0135475D01*
X0030512Y0136074D02*
X0114293Y0136074D01*
X0114004Y0136672D02*
X0030801Y0136672D01*
X0031048Y0137271D02*
X0113756Y0137271D01*
X0113652Y0137870D02*
X0031152Y0137870D01*
X0031152Y0138468D02*
X0113652Y0138468D01*
X0113674Y0139067D02*
X0031130Y0139067D01*
X0030883Y0139665D02*
X0113922Y0139665D01*
X0114170Y0140264D02*
X0030635Y0140264D01*
X0030111Y0140862D02*
X0114693Y0140862D01*
X0115311Y0141461D02*
X0029493Y0141461D01*
X0029437Y0145052D02*
X0115367Y0145052D01*
X0114717Y0145650D02*
X0030088Y0145650D01*
X0030625Y0146249D02*
X0114180Y0146249D01*
X0113932Y0146847D02*
X0030873Y0146847D01*
X0031121Y0147446D02*
X0113684Y0147446D01*
X0113652Y0148044D02*
X0031152Y0148044D01*
X0031152Y0148643D02*
X0113652Y0148643D01*
X0113747Y0149241D02*
X0031058Y0149241D01*
X0030810Y0149840D02*
X0113995Y0149840D01*
X0114270Y0150438D02*
X0030535Y0150438D01*
X0029937Y0151037D02*
X0114868Y0151037D01*
X0115733Y0151635D02*
X0029072Y0151635D01*
X0016391Y0154628D02*
X0004900Y0154628D01*
X0004900Y0155226D02*
X0015140Y0155226D01*
X0014542Y0155825D02*
X0004900Y0155825D01*
X0004900Y0156423D02*
X0014107Y0156423D01*
X0013859Y0157022D02*
X0004900Y0157022D01*
X0004900Y0157620D02*
X0013652Y0157620D01*
X0013652Y0158219D02*
X0004900Y0158219D01*
X0004900Y0158817D02*
X0013652Y0158817D01*
X0013819Y0159416D02*
X0004900Y0159416D01*
X0004900Y0160014D02*
X0014067Y0160014D01*
X0014444Y0160613D02*
X0004900Y0160613D01*
X0004900Y0161211D02*
X0015043Y0161211D01*
X0016155Y0161810D02*
X0004900Y0161810D01*
X0004900Y0151635D02*
X0015733Y0151635D01*
X0014868Y0151037D02*
X0004900Y0151037D01*
X0004900Y0150438D02*
X0014270Y0150438D01*
X0013995Y0149840D02*
X0004900Y0149840D01*
X0004900Y0149241D02*
X0013747Y0149241D01*
X0013652Y0148643D02*
X0004900Y0148643D01*
X0004900Y0148044D02*
X0013652Y0148044D01*
X0013684Y0147446D02*
X0004900Y0147446D01*
X0004900Y0146847D02*
X0013932Y0146847D01*
X0014180Y0146249D02*
X0004900Y0146249D01*
X0004900Y0145650D02*
X0014717Y0145650D01*
X0015367Y0145052D02*
X0004900Y0145052D01*
X0004900Y0144453D02*
X0139700Y0144453D01*
X0139700Y0143855D02*
X0004900Y0143855D01*
X0004900Y0143256D02*
X0139700Y0143256D01*
X0139700Y0142658D02*
X0004900Y0142658D01*
X0025278Y0175089D02*
X0026656Y0174518D01*
X0028148Y0174518D01*
X0029527Y0175089D01*
X0030581Y0176144D01*
X0031152Y0177522D01*
X0031152Y0179014D01*
X0030581Y0180392D01*
X0029527Y0181447D01*
X0028148Y0182018D01*
X0026656Y0182018D01*
X0025278Y0181447D01*
X0024223Y0180392D01*
X0023652Y0179014D01*
X0023652Y0177522D01*
X0024223Y0176144D01*
X0025278Y0175089D01*
X0025547Y0174977D02*
X0019258Y0174977D01*
X0020014Y0175576D02*
X0024791Y0175576D01*
X0024211Y0176174D02*
X0020594Y0176174D01*
X0020842Y0176773D02*
X0023963Y0176773D01*
X0023715Y0177371D02*
X0021090Y0177371D01*
X0021152Y0177970D02*
X0023652Y0177970D01*
X0023652Y0178568D02*
X0021152Y0178568D01*
X0021089Y0179167D02*
X0023716Y0179167D01*
X0023964Y0179765D02*
X0020841Y0179765D01*
X0020593Y0180364D02*
X0024212Y0180364D01*
X0024794Y0180962D02*
X0020011Y0180962D01*
X0019251Y0181561D02*
X0025553Y0181561D01*
X0026656Y0184518D02*
X0028148Y0184518D01*
X0029527Y0185089D01*
X0030581Y0186144D01*
X0031152Y0187522D01*
X0031152Y0189014D01*
X0030581Y0190392D01*
X0029527Y0191447D01*
X0028148Y0192018D01*
X0026656Y0192018D01*
X0025278Y0191447D01*
X0024223Y0190392D01*
X0023652Y0189014D01*
X0023652Y0187522D01*
X0024223Y0186144D01*
X0025278Y0185089D01*
X0026656Y0184518D01*
X0026570Y0184553D02*
X0018234Y0184553D01*
X0018148Y0184518D02*
X0019527Y0185089D01*
X0020581Y0186144D01*
X0021152Y0187522D01*
X0021152Y0189014D01*
X0020581Y0190392D01*
X0019527Y0191447D01*
X0018148Y0192018D01*
X0016656Y0192018D01*
X0015278Y0191447D01*
X0014223Y0190392D01*
X0013652Y0189014D01*
X0013652Y0187522D01*
X0014223Y0186144D01*
X0015278Y0185089D01*
X0016656Y0184518D01*
X0018148Y0184518D01*
X0019590Y0185152D02*
X0025215Y0185152D01*
X0024616Y0185750D02*
X0020188Y0185750D01*
X0020667Y0186349D02*
X0024138Y0186349D01*
X0023890Y0186947D02*
X0020914Y0186947D01*
X0021152Y0187546D02*
X0023652Y0187546D01*
X0023652Y0188144D02*
X0021152Y0188144D01*
X0021152Y0188743D02*
X0023652Y0188743D01*
X0023788Y0189341D02*
X0021017Y0189341D01*
X0020769Y0189940D02*
X0024036Y0189940D01*
X0024370Y0190539D02*
X0020435Y0190539D01*
X0019836Y0191137D02*
X0024968Y0191137D01*
X0025975Y0191736D02*
X0018830Y0191736D01*
X0015975Y0191736D02*
X0004900Y0191736D01*
X0004900Y0191137D02*
X0014968Y0191137D01*
X0014370Y0190539D02*
X0004900Y0190539D01*
X0004900Y0189940D02*
X0014036Y0189940D01*
X0013788Y0189341D02*
X0004900Y0189341D01*
X0004900Y0188743D02*
X0013652Y0188743D01*
X0013652Y0188144D02*
X0004900Y0188144D01*
X0004900Y0187546D02*
X0013652Y0187546D01*
X0013890Y0186947D02*
X0004900Y0186947D01*
X0004900Y0186349D02*
X0014138Y0186349D01*
X0014616Y0185750D02*
X0004900Y0185750D01*
X0004900Y0185152D02*
X0015215Y0185152D01*
X0016570Y0184553D02*
X0004900Y0184553D01*
X0004900Y0183955D02*
X0164690Y0183955D01*
X0164611Y0184553D02*
X0128234Y0184553D01*
X0126570Y0184553D02*
X0118234Y0184553D01*
X0118148Y0184518D02*
X0119527Y0185089D01*
X0120581Y0186144D01*
X0121152Y0187522D01*
X0121152Y0189014D01*
X0120581Y0190392D01*
X0119527Y0191447D01*
X0118148Y0192018D01*
X0116656Y0192018D01*
X0115278Y0191447D01*
X0114223Y0190392D01*
X0113652Y0189014D01*
X0113652Y0187522D01*
X0114223Y0186144D01*
X0115278Y0185089D01*
X0116656Y0184518D01*
X0118148Y0184518D01*
X0119590Y0185152D02*
X0125215Y0185152D01*
X0124616Y0185750D02*
X0120188Y0185750D01*
X0120667Y0186349D02*
X0124138Y0186349D01*
X0123890Y0186947D02*
X0120914Y0186947D01*
X0121152Y0187546D02*
X0123652Y0187546D01*
X0123652Y0188144D02*
X0121152Y0188144D01*
X0121152Y0188743D02*
X0123652Y0188743D01*
X0123788Y0189341D02*
X0121017Y0189341D01*
X0120769Y0189940D02*
X0124036Y0189940D01*
X0124370Y0190539D02*
X0120435Y0190539D01*
X0119836Y0191137D02*
X0124968Y0191137D01*
X0125975Y0191736D02*
X0118830Y0191736D01*
X0115975Y0191736D02*
X0028830Y0191736D01*
X0029836Y0191137D02*
X0114968Y0191137D01*
X0114370Y0190539D02*
X0030435Y0190539D01*
X0030769Y0189940D02*
X0114036Y0189940D01*
X0113788Y0189341D02*
X0031017Y0189341D01*
X0031152Y0188743D02*
X0113652Y0188743D01*
X0113652Y0188144D02*
X0031152Y0188144D01*
X0031152Y0187546D02*
X0113652Y0187546D01*
X0113890Y0186947D02*
X0030914Y0186947D01*
X0030667Y0186349D02*
X0114138Y0186349D01*
X0114616Y0185750D02*
X0030188Y0185750D01*
X0029590Y0185152D02*
X0115215Y0185152D01*
X0116570Y0184553D02*
X0028234Y0184553D01*
X0029251Y0181561D02*
X0115553Y0181561D01*
X0115278Y0181447D02*
X0114223Y0180392D01*
X0113652Y0179014D01*
X0113652Y0177522D01*
X0114223Y0176144D01*
X0115278Y0175089D01*
X0116656Y0174518D01*
X0118148Y0174518D01*
X0119527Y0175089D01*
X0120581Y0176144D01*
X0121152Y0177522D01*
X0121152Y0179014D01*
X0120581Y0180392D01*
X0119527Y0181447D01*
X0118148Y0182018D01*
X0116656Y0182018D01*
X0115278Y0181447D01*
X0114794Y0180962D02*
X0030011Y0180962D01*
X0030593Y0180364D02*
X0114212Y0180364D01*
X0113964Y0179765D02*
X0030841Y0179765D01*
X0031089Y0179167D02*
X0113716Y0179167D01*
X0113652Y0178568D02*
X0031152Y0178568D01*
X0031152Y0177970D02*
X0113652Y0177970D01*
X0113715Y0177371D02*
X0031090Y0177371D01*
X0030842Y0176773D02*
X0113963Y0176773D01*
X0114211Y0176174D02*
X0030594Y0176174D01*
X0030014Y0175576D02*
X0114791Y0175576D01*
X0115547Y0174977D02*
X0029258Y0174977D01*
X0004900Y0182758D02*
X0165011Y0182758D01*
X0164834Y0183356D02*
X0004900Y0183356D01*
X0043662Y0222858D02*
X0070938Y0222858D01*
X0070884Y0222881D02*
X0071803Y0222500D01*
X0072797Y0222500D01*
X0073716Y0222881D01*
X0074419Y0223584D01*
X0074800Y0224503D01*
X0074800Y0225497D01*
X0074419Y0226416D01*
X0073716Y0227119D01*
X0072797Y0227500D01*
X0071803Y0227500D01*
X0070884Y0227119D01*
X0070181Y0226416D01*
X0069800Y0225497D01*
X0069800Y0224503D01*
X0070181Y0223584D01*
X0070884Y0222881D01*
X0070308Y0223457D02*
X0044292Y0223457D01*
X0044615Y0224055D02*
X0069985Y0224055D01*
X0069800Y0224654D02*
X0044800Y0224654D01*
X0044800Y0225252D02*
X0069800Y0225252D01*
X0069946Y0225851D02*
X0044654Y0225851D01*
X0044386Y0226449D02*
X0070214Y0226449D01*
X0070812Y0227048D02*
X0043788Y0227048D01*
X0036508Y0236025D02*
X0054714Y0236025D01*
X0054115Y0236624D02*
X0037107Y0236624D01*
X0037484Y0237222D02*
X0053738Y0237222D01*
X0053490Y0237821D02*
X0037732Y0237821D01*
X0037826Y0238419D02*
X0053396Y0238419D01*
X0053396Y0239018D02*
X0037826Y0239018D01*
X0037717Y0239616D02*
X0053505Y0239616D01*
X0053753Y0240215D02*
X0037469Y0240215D01*
X0037071Y0240813D02*
X0054151Y0240813D01*
X0054749Y0241412D02*
X0036473Y0241412D01*
X0032623Y0241412D02*
X0028599Y0241412D01*
X0029197Y0240813D02*
X0032025Y0240813D01*
X0031627Y0240215D02*
X0029595Y0240215D01*
X0029843Y0239616D02*
X0031379Y0239616D01*
X0031270Y0239018D02*
X0029952Y0239018D01*
X0029952Y0238419D02*
X0031270Y0238419D01*
X0031364Y0237821D02*
X0029858Y0237821D01*
X0029610Y0237222D02*
X0031612Y0237222D01*
X0031989Y0236624D02*
X0029233Y0236624D01*
X0028634Y0236025D02*
X0032588Y0236025D01*
X0058634Y0236025D02*
X0062588Y0236025D01*
X0061989Y0236624D02*
X0059233Y0236624D01*
X0059610Y0237222D02*
X0061612Y0237222D01*
X0061364Y0237821D02*
X0059858Y0237821D01*
X0059952Y0238419D02*
X0061270Y0238419D01*
X0061270Y0239018D02*
X0059952Y0239018D01*
X0059843Y0239616D02*
X0061379Y0239616D01*
X0061627Y0240215D02*
X0059595Y0240215D01*
X0059197Y0240813D02*
X0062025Y0240813D01*
X0062623Y0241412D02*
X0058599Y0241412D01*
X0066473Y0241412D02*
X0084749Y0241412D01*
X0084151Y0240813D02*
X0067071Y0240813D01*
X0067469Y0240215D02*
X0083753Y0240215D01*
X0083505Y0239616D02*
X0067717Y0239616D01*
X0067826Y0239018D02*
X0083396Y0239018D01*
X0083396Y0238419D02*
X0067826Y0238419D01*
X0067732Y0237821D02*
X0083490Y0237821D01*
X0083738Y0237222D02*
X0067484Y0237222D01*
X0067107Y0236624D02*
X0084115Y0236624D01*
X0084714Y0236025D02*
X0066508Y0236025D01*
X0073788Y0227048D02*
X0100812Y0227048D01*
X0100884Y0227119D02*
X0100181Y0226416D01*
X0099800Y0225497D01*
X0099800Y0224503D01*
X0100181Y0223584D01*
X0100884Y0222881D01*
X0101803Y0222500D01*
X0102797Y0222500D01*
X0103716Y0222881D01*
X0104419Y0223584D01*
X0104800Y0224503D01*
X0104800Y0225497D01*
X0104419Y0226416D01*
X0103716Y0227119D01*
X0102797Y0227500D01*
X0101803Y0227500D01*
X0100884Y0227119D01*
X0100214Y0226449D02*
X0074386Y0226449D01*
X0074654Y0225851D02*
X0099946Y0225851D01*
X0099800Y0225252D02*
X0074800Y0225252D01*
X0074800Y0224654D02*
X0099800Y0224654D01*
X0099985Y0224055D02*
X0074615Y0224055D01*
X0074292Y0223457D02*
X0100308Y0223457D01*
X0100938Y0222858D02*
X0073662Y0222858D01*
X0088634Y0236025D02*
X0092588Y0236025D01*
X0091989Y0236624D02*
X0089233Y0236624D01*
X0089610Y0237222D02*
X0091612Y0237222D01*
X0091364Y0237821D02*
X0089858Y0237821D01*
X0089952Y0238419D02*
X0091270Y0238419D01*
X0091270Y0239018D02*
X0089952Y0239018D01*
X0089843Y0239616D02*
X0091379Y0239616D01*
X0091627Y0240215D02*
X0089595Y0240215D01*
X0089197Y0240813D02*
X0092025Y0240813D01*
X0092623Y0241412D02*
X0088599Y0241412D01*
X0096473Y0241412D02*
X0114749Y0241412D01*
X0114151Y0240813D02*
X0097071Y0240813D01*
X0097469Y0240215D02*
X0113753Y0240215D01*
X0113505Y0239616D02*
X0097717Y0239616D01*
X0097826Y0239018D02*
X0113396Y0239018D01*
X0113396Y0238419D02*
X0097826Y0238419D01*
X0097732Y0237821D02*
X0113490Y0237821D01*
X0113738Y0237222D02*
X0097484Y0237222D01*
X0097107Y0236624D02*
X0114115Y0236624D01*
X0114714Y0236025D02*
X0096508Y0236025D01*
X0103788Y0227048D02*
X0160812Y0227048D01*
X0160214Y0226449D02*
X0104386Y0226449D01*
X0104654Y0225851D02*
X0159946Y0225851D01*
X0159800Y0225252D02*
X0104800Y0225252D01*
X0104800Y0224654D02*
X0159800Y0224654D01*
X0159985Y0224055D02*
X0104615Y0224055D01*
X0104292Y0223457D02*
X0160308Y0223457D01*
X0160938Y0222858D02*
X0103662Y0222858D01*
X0118634Y0236025D02*
X0122588Y0236025D01*
X0121989Y0236624D02*
X0119233Y0236624D01*
X0119610Y0237222D02*
X0121612Y0237222D01*
X0121364Y0237821D02*
X0119858Y0237821D01*
X0119952Y0238419D02*
X0121270Y0238419D01*
X0121270Y0239018D02*
X0119952Y0239018D01*
X0119843Y0239616D02*
X0121379Y0239616D01*
X0121627Y0240215D02*
X0119595Y0240215D01*
X0119197Y0240813D02*
X0122025Y0240813D01*
X0122623Y0241412D02*
X0118599Y0241412D01*
X0126473Y0241412D02*
X0144749Y0241412D01*
X0144151Y0240813D02*
X0127071Y0240813D01*
X0127469Y0240215D02*
X0143753Y0240215D01*
X0143505Y0239616D02*
X0127717Y0239616D01*
X0127826Y0239018D02*
X0143396Y0239018D01*
X0143396Y0238419D02*
X0127826Y0238419D01*
X0127732Y0237821D02*
X0143490Y0237821D01*
X0143738Y0237222D02*
X0127484Y0237222D01*
X0127107Y0236624D02*
X0144115Y0236624D01*
X0144714Y0236025D02*
X0126508Y0236025D01*
X0122773Y0221063D02*
X0173975Y0221063D01*
X0174573Y0220464D02*
X0123371Y0220464D01*
X0123647Y0219866D02*
X0166362Y0219866D01*
X0165161Y0219267D02*
X0123800Y0219267D01*
X0123800Y0218669D02*
X0164562Y0218669D01*
X0163964Y0218070D02*
X0123621Y0218070D01*
X0123307Y0217472D02*
X0163655Y0217472D01*
X0163407Y0216873D02*
X0122698Y0216873D01*
X0148634Y0236025D02*
X0152588Y0236025D01*
X0151989Y0236624D02*
X0149233Y0236624D01*
X0149610Y0237222D02*
X0151612Y0237222D01*
X0151364Y0237821D02*
X0149858Y0237821D01*
X0149952Y0238419D02*
X0151270Y0238419D01*
X0151270Y0239018D02*
X0149952Y0239018D01*
X0149843Y0239616D02*
X0151379Y0239616D01*
X0151627Y0240215D02*
X0149595Y0240215D01*
X0149197Y0240813D02*
X0152025Y0240813D01*
X0152623Y0241412D02*
X0148599Y0241412D01*
X0169392Y0252784D02*
X0173700Y0252784D01*
X0173700Y0253382D02*
X0170837Y0253382D01*
X0171687Y0253981D02*
X0173700Y0253981D01*
X0173700Y0254579D02*
X0172285Y0254579D01*
X0172799Y0255178D02*
X0173700Y0255178D01*
X0173700Y0255776D02*
X0173047Y0255776D01*
X0173295Y0256375D02*
X0173700Y0256375D01*
X0173700Y0256973D02*
X0173537Y0256973D01*
X0173537Y0257572D02*
X0173700Y0257572D01*
X0173700Y0258170D02*
X0173537Y0258170D01*
X0173537Y0258769D02*
X0173700Y0258769D01*
X0173700Y0259367D02*
X0173402Y0259367D01*
X0173154Y0259966D02*
X0173700Y0259966D01*
X0173700Y0260564D02*
X0172906Y0260564D01*
X0172543Y0261163D02*
X0173700Y0261163D01*
X0173700Y0261761D02*
X0171945Y0261761D01*
X0171346Y0262360D02*
X0173700Y0262360D01*
X0173700Y0262958D02*
X0170014Y0262958D01*
X0185834Y0199516D02*
X0192609Y0199516D01*
X0191970Y0199252D02*
X0190891Y0198173D01*
X0190307Y0196763D01*
X0190307Y0195237D01*
X0190891Y0193827D01*
X0191970Y0192748D01*
X0193380Y0192165D01*
X0194905Y0192165D01*
X0196315Y0192748D01*
X0197394Y0193827D01*
X0197978Y0195237D01*
X0197978Y0196763D01*
X0197394Y0198173D01*
X0196315Y0199252D01*
X0194905Y0199835D01*
X0193380Y0199835D01*
X0191970Y0199252D01*
X0191636Y0198918D02*
X0186806Y0198918D01*
X0187405Y0198319D02*
X0191038Y0198319D01*
X0190704Y0197721D02*
X0187739Y0197721D01*
X0187987Y0197122D02*
X0190456Y0197122D01*
X0190307Y0196524D02*
X0188135Y0196524D01*
X0188135Y0195925D02*
X0190307Y0195925D01*
X0190307Y0195327D02*
X0188135Y0195327D01*
X0187925Y0194728D02*
X0190518Y0194728D01*
X0190766Y0194130D02*
X0187677Y0194130D01*
X0187255Y0193531D02*
X0191187Y0193531D01*
X0191786Y0192933D02*
X0186657Y0192933D01*
X0185472Y0192334D02*
X0192970Y0192334D01*
X0195315Y0192334D02*
X0200844Y0192334D01*
X0201254Y0192165D02*
X0202779Y0192165D01*
X0204189Y0192748D01*
X0205268Y0193827D01*
X0205852Y0195237D01*
X0205852Y0196763D01*
X0205268Y0198173D01*
X0204189Y0199252D01*
X0202779Y0199835D01*
X0201254Y0199835D01*
X0199844Y0199252D01*
X0198765Y0198173D01*
X0198181Y0196763D01*
X0198181Y0195237D01*
X0198765Y0193827D01*
X0199844Y0192748D01*
X0201254Y0192165D01*
X0199660Y0192933D02*
X0196499Y0192933D01*
X0197098Y0193531D02*
X0199061Y0193531D01*
X0198640Y0194130D02*
X0197519Y0194130D01*
X0197767Y0194728D02*
X0198392Y0194728D01*
X0198181Y0195327D02*
X0197978Y0195327D01*
X0197978Y0195925D02*
X0198181Y0195925D01*
X0198181Y0196524D02*
X0197978Y0196524D01*
X0197829Y0197122D02*
X0198330Y0197122D01*
X0198578Y0197721D02*
X0197581Y0197721D01*
X0197247Y0198319D02*
X0198912Y0198319D01*
X0199510Y0198918D02*
X0196649Y0198918D01*
X0195676Y0199516D02*
X0200483Y0199516D01*
X0203550Y0199516D02*
X0210325Y0199516D01*
X0209353Y0198918D02*
X0204523Y0198918D01*
X0205121Y0198319D02*
X0208796Y0198319D01*
X0208420Y0197721D02*
X0205455Y0197721D01*
X0205703Y0197122D02*
X0208172Y0197122D01*
X0208053Y0196524D02*
X0205852Y0196524D01*
X0205852Y0195925D02*
X0211559Y0195925D01*
X0211559Y0195327D02*
X0212159Y0195327D01*
X0212159Y0194728D02*
X0211559Y0194728D01*
X0211559Y0194130D02*
X0212159Y0194130D01*
X0212159Y0193531D02*
X0211559Y0193531D01*
X0211559Y0192933D02*
X0212159Y0192933D01*
X0212159Y0192334D02*
X0211559Y0192334D01*
X0210687Y0192334D02*
X0203189Y0192334D01*
X0204373Y0192933D02*
X0209546Y0192933D01*
X0208904Y0193531D02*
X0204972Y0193531D01*
X0205393Y0194130D02*
X0208496Y0194130D01*
X0208234Y0194728D02*
X0205641Y0194728D01*
X0205852Y0195327D02*
X0208082Y0195327D01*
X0213031Y0192334D02*
X0220893Y0192334D01*
X0219762Y0191736D02*
X0176397Y0191736D01*
X0177194Y0191137D02*
X0218965Y0191137D01*
X0218351Y0190539D02*
X0177808Y0190539D01*
X0178305Y0189940D02*
X0217854Y0189940D01*
X0217441Y0189341D02*
X0178718Y0189341D01*
X0179064Y0188743D02*
X0217095Y0188743D01*
X0216843Y0188144D02*
X0179316Y0188144D01*
X0179528Y0187546D02*
X0216631Y0187546D01*
X0216471Y0186947D02*
X0179688Y0186947D01*
X0179784Y0186349D02*
X0216375Y0186349D01*
X0216307Y0185750D02*
X0179852Y0185750D01*
X0179816Y0184553D02*
X0216344Y0184553D01*
X0216422Y0183955D02*
X0179737Y0183955D01*
X0179592Y0183356D02*
X0216567Y0183356D01*
X0216743Y0182758D02*
X0179416Y0182758D01*
X0179168Y0182159D02*
X0216991Y0182159D01*
X0217302Y0181561D02*
X0178857Y0181561D01*
X0178490Y0180962D02*
X0217669Y0180962D01*
X0218129Y0180364D02*
X0178030Y0180364D01*
X0177451Y0179765D02*
X0218708Y0179765D01*
X0219431Y0179167D02*
X0176728Y0179167D01*
X0175778Y0178568D02*
X0220381Y0178568D01*
X0221904Y0177970D02*
X0174255Y0177970D01*
X0172513Y0177970D02*
X0171913Y0177970D01*
X0171913Y0178568D02*
X0172513Y0178568D01*
X0172513Y0179167D02*
X0171913Y0179167D01*
X0171913Y0179765D02*
X0172513Y0179765D01*
X0172513Y0180364D02*
X0171913Y0180364D01*
X0171913Y0180962D02*
X0172513Y0180962D01*
X0172513Y0181561D02*
X0171913Y0181561D01*
X0171913Y0182159D02*
X0172513Y0182159D01*
X0172513Y0182758D02*
X0171913Y0182758D01*
X0171913Y0183356D02*
X0172513Y0183356D01*
X0172513Y0183955D02*
X0171913Y0183955D01*
X0171913Y0184553D02*
X0172513Y0184553D01*
X0172513Y0186349D02*
X0171913Y0186349D01*
X0171913Y0186947D02*
X0172513Y0186947D01*
X0172513Y0187546D02*
X0171913Y0187546D01*
X0171913Y0188144D02*
X0172513Y0188144D01*
X0172513Y0188743D02*
X0171913Y0188743D01*
X0171913Y0189341D02*
X0172513Y0189341D01*
X0172513Y0189940D02*
X0171913Y0189940D01*
X0171913Y0190539D02*
X0172513Y0190539D01*
X0172513Y0191137D02*
X0171913Y0191137D01*
X0171913Y0191736D02*
X0172513Y0191736D01*
X0172513Y0192334D02*
X0171913Y0192334D01*
X0175266Y0192334D02*
X0183128Y0192334D01*
X0152078Y0154628D02*
X0233522Y0154628D01*
X0234120Y0155226D02*
X0151480Y0155226D01*
X0150337Y0155825D02*
X0235263Y0155825D01*
X0232923Y0154029D02*
X0152677Y0154029D01*
X0152962Y0153431D02*
X0232638Y0153431D01*
X0232390Y0152832D02*
X0153210Y0152832D01*
X0153457Y0152234D02*
X0232143Y0152234D01*
X0232063Y0151635D02*
X0153537Y0151635D01*
X0153537Y0151037D02*
X0232063Y0151037D01*
X0232063Y0150438D02*
X0153537Y0150438D01*
X0153488Y0149840D02*
X0232112Y0149840D01*
X0232360Y0149241D02*
X0153240Y0149241D01*
X0152992Y0148643D02*
X0232608Y0148643D01*
X0232856Y0148044D02*
X0152744Y0148044D01*
X0152152Y0147446D02*
X0233448Y0147446D01*
X0234047Y0146847D02*
X0151553Y0146847D01*
X0150514Y0146249D02*
X0235086Y0146249D01*
X0224246Y0177970D02*
X0223646Y0177970D01*
X0223646Y0178568D02*
X0224246Y0178568D01*
X0224246Y0179167D02*
X0223646Y0179167D01*
X0223646Y0179765D02*
X0224246Y0179765D01*
X0224246Y0180364D02*
X0223646Y0180364D01*
X0223646Y0180962D02*
X0224246Y0180962D01*
X0224246Y0181561D02*
X0223646Y0181561D01*
X0223646Y0182159D02*
X0224246Y0182159D01*
X0224246Y0182758D02*
X0223646Y0182758D01*
X0223646Y0183356D02*
X0224246Y0183356D01*
X0224246Y0183955D02*
X0223646Y0183955D01*
X0223646Y0185750D02*
X0224246Y0185750D01*
X0224246Y0186349D02*
X0223646Y0186349D01*
X0223646Y0186947D02*
X0224246Y0186947D01*
X0224246Y0187546D02*
X0223646Y0187546D01*
X0223646Y0188144D02*
X0224246Y0188144D01*
X0224246Y0188743D02*
X0223646Y0188743D01*
X0223646Y0189341D02*
X0224246Y0189341D01*
X0224246Y0189940D02*
X0223646Y0189940D01*
X0223646Y0190539D02*
X0224246Y0190539D01*
X0224246Y0191137D02*
X0223646Y0191137D01*
X0223646Y0191736D02*
X0224246Y0191736D01*
X0224246Y0192334D02*
X0223646Y0192334D01*
X0139700Y0140862D02*
X0130111Y0140862D01*
X0130635Y0140264D02*
X0139700Y0140264D01*
X0139700Y0139665D02*
X0130883Y0139665D01*
X0131130Y0139067D02*
X0139700Y0139067D01*
X0139700Y0138468D02*
X0131152Y0138468D01*
X0131152Y0137870D02*
X0139700Y0137870D01*
X0139700Y0137271D02*
X0131048Y0137271D01*
X0130801Y0136672D02*
X0139700Y0136672D01*
X0139700Y0136074D02*
X0130512Y0136074D01*
X0129913Y0135475D02*
X0139700Y0135475D01*
X0139700Y0134877D02*
X0129016Y0134877D01*
X0127702Y0101959D02*
X0127102Y0101959D01*
X0127102Y0101360D02*
X0127702Y0101360D01*
X0127702Y0100762D02*
X0127102Y0100762D01*
X0127102Y0100163D02*
X0127702Y0100163D01*
X0127702Y0099565D02*
X0127102Y0099565D01*
X0127102Y0097769D02*
X0127702Y0097769D01*
X0127702Y0097171D02*
X0127102Y0097171D01*
X0127102Y0096572D02*
X0127702Y0096572D01*
X0127702Y0095974D02*
X0127102Y0095974D01*
X0127102Y0095375D02*
X0127702Y0095375D01*
X0127702Y0094777D02*
X0127102Y0094777D01*
X0129785Y0091186D02*
X0139700Y0091186D01*
X0139700Y0090587D02*
X0130363Y0090587D01*
X0130748Y0089989D02*
X0139700Y0089989D01*
X0139700Y0089390D02*
X0130996Y0089390D01*
X0131122Y0088792D02*
X0139700Y0088792D01*
X0116453Y0084602D02*
X0028352Y0084602D01*
X0028148Y0084518D02*
X0029527Y0085089D01*
X0030581Y0086144D01*
X0031152Y0087522D01*
X0031152Y0089014D01*
X0030581Y0090392D01*
X0029527Y0091447D01*
X0028148Y0092018D01*
X0026656Y0092018D01*
X0025278Y0091447D01*
X0024223Y0090392D01*
X0023652Y0089014D01*
X0023652Y0087522D01*
X0024223Y0086144D01*
X0025278Y0085089D01*
X0026656Y0084518D01*
X0028148Y0084518D01*
X0029638Y0085201D02*
X0115166Y0085201D01*
X0114568Y0085799D02*
X0030237Y0085799D01*
X0030687Y0086398D02*
X0114118Y0086398D01*
X0113870Y0086996D02*
X0030935Y0086996D01*
X0031152Y0087595D02*
X0113652Y0087595D01*
X0113652Y0088193D02*
X0031152Y0088193D01*
X0031152Y0088792D02*
X0113652Y0088792D01*
X0113808Y0089390D02*
X0030996Y0089390D01*
X0030749Y0089989D02*
X0114056Y0089989D01*
X0114418Y0090587D02*
X0030386Y0090587D01*
X0029788Y0091186D02*
X0115017Y0091186D01*
X0116093Y0091784D02*
X0028712Y0091784D01*
X0026093Y0091784D02*
X0018712Y0091784D01*
X0018148Y0092018D02*
X0019527Y0091447D01*
X0020581Y0090392D01*
X0021152Y0089014D01*
X0021152Y0087522D01*
X0020581Y0086144D01*
X0019527Y0085089D01*
X0018148Y0084518D01*
X0016656Y0084518D01*
X0015278Y0085089D01*
X0014223Y0086144D01*
X0013652Y0087522D01*
X0013652Y0089014D01*
X0014223Y0090392D01*
X0015278Y0091447D01*
X0016656Y0092018D01*
X0018148Y0092018D01*
X0019788Y0091186D02*
X0025017Y0091186D01*
X0024418Y0090587D02*
X0020386Y0090587D01*
X0020749Y0089989D02*
X0024056Y0089989D01*
X0023808Y0089390D02*
X0020996Y0089390D01*
X0021152Y0088792D02*
X0023652Y0088792D01*
X0023652Y0088193D02*
X0021152Y0088193D01*
X0021152Y0087595D02*
X0023652Y0087595D01*
X0023870Y0086996D02*
X0020935Y0086996D01*
X0020687Y0086398D02*
X0024118Y0086398D01*
X0024568Y0085799D02*
X0020237Y0085799D01*
X0019638Y0085201D02*
X0025166Y0085201D01*
X0026453Y0084602D02*
X0018352Y0084602D01*
X0016453Y0084602D02*
X0004900Y0084602D01*
X0004900Y0085201D02*
X0015166Y0085201D01*
X0014568Y0085799D02*
X0004900Y0085799D01*
X0004900Y0086398D02*
X0014118Y0086398D01*
X0013870Y0086996D02*
X0004900Y0086996D01*
X0004900Y0087595D02*
X0013652Y0087595D01*
X0013652Y0088193D02*
X0004900Y0088193D01*
X0004900Y0088792D02*
X0013652Y0088792D01*
X0013808Y0089390D02*
X0004900Y0089390D01*
X0004900Y0089989D02*
X0014056Y0089989D01*
X0014418Y0090587D02*
X0004900Y0090587D01*
X0004900Y0091186D02*
X0015017Y0091186D01*
X0016093Y0091784D02*
X0004900Y0091784D01*
X0004900Y0081609D02*
X0015671Y0081609D01*
X0015278Y0081447D02*
X0014223Y0080392D01*
X0013652Y0079014D01*
X0013652Y0077522D01*
X0014223Y0076144D01*
X0015278Y0075089D01*
X0016656Y0074518D01*
X0018148Y0074518D01*
X0019527Y0075089D01*
X0020581Y0076144D01*
X0021152Y0077522D01*
X0021152Y0079014D01*
X0020581Y0080392D01*
X0019527Y0081447D01*
X0018148Y0082018D01*
X0016656Y0082018D01*
X0015278Y0081447D01*
X0014842Y0081011D02*
X0004900Y0081011D01*
X0004900Y0080412D02*
X0014244Y0080412D01*
X0013984Y0079814D02*
X0004900Y0079814D01*
X0004900Y0079215D02*
X0013736Y0079215D01*
X0013652Y0078617D02*
X0004900Y0078617D01*
X0004900Y0078018D02*
X0013652Y0078018D01*
X0013695Y0077420D02*
X0004900Y0077420D01*
X0004900Y0076821D02*
X0013942Y0076821D01*
X0014190Y0076223D02*
X0004900Y0076223D01*
X0004900Y0075624D02*
X0014742Y0075624D01*
X0015430Y0075026D02*
X0004900Y0075026D01*
X0019375Y0075026D02*
X0025430Y0075026D01*
X0025278Y0075089D02*
X0026656Y0074518D01*
X0028148Y0074518D01*
X0029527Y0075089D01*
X0030581Y0076144D01*
X0031152Y0077522D01*
X0031152Y0079014D01*
X0030581Y0080392D01*
X0029527Y0081447D01*
X0028148Y0082018D01*
X0026656Y0082018D01*
X0025278Y0081447D01*
X0024223Y0080392D01*
X0023652Y0079014D01*
X0023652Y0077522D01*
X0024223Y0076144D01*
X0025278Y0075089D01*
X0024742Y0075624D02*
X0020062Y0075624D01*
X0020614Y0076223D02*
X0024190Y0076223D01*
X0023942Y0076821D02*
X0020862Y0076821D01*
X0021110Y0077420D02*
X0023695Y0077420D01*
X0023652Y0078018D02*
X0021152Y0078018D01*
X0021152Y0078617D02*
X0023652Y0078617D01*
X0023736Y0079215D02*
X0021069Y0079215D01*
X0020821Y0079814D02*
X0023984Y0079814D01*
X0024244Y0080412D02*
X0020561Y0080412D01*
X0019962Y0081011D02*
X0024842Y0081011D01*
X0025671Y0081609D02*
X0019134Y0081609D01*
X0019539Y0071435D02*
X0025266Y0071435D01*
X0025278Y0071447D02*
X0024223Y0070392D01*
X0023652Y0069014D01*
X0023652Y0067522D01*
X0024223Y0066144D01*
X0025278Y0065089D01*
X0026656Y0064518D01*
X0028148Y0064518D01*
X0029527Y0065089D01*
X0030581Y0066144D01*
X0031152Y0067522D01*
X0031152Y0069014D01*
X0030581Y0070392D01*
X0029527Y0071447D01*
X0028148Y0072018D01*
X0026656Y0072018D01*
X0025278Y0071447D01*
X0024668Y0070836D02*
X0020137Y0070836D01*
X0020645Y0070238D02*
X0024159Y0070238D01*
X0023911Y0069639D02*
X0020893Y0069639D01*
X0021141Y0069041D02*
X0023664Y0069041D01*
X0023652Y0068442D02*
X0021152Y0068442D01*
X0021152Y0067844D02*
X0023652Y0067844D01*
X0023767Y0067245D02*
X0021038Y0067245D01*
X0020790Y0066647D02*
X0024015Y0066647D01*
X0024319Y0066048D02*
X0020486Y0066048D01*
X0019888Y0065450D02*
X0024917Y0065450D01*
X0025851Y0064851D02*
X0018953Y0064851D01*
X0028953Y0064851D02*
X0115851Y0064851D01*
X0114917Y0065450D02*
X0029888Y0065450D01*
X0030486Y0066048D02*
X0114319Y0066048D01*
X0114015Y0066647D02*
X0030790Y0066647D01*
X0031038Y0067245D02*
X0113767Y0067245D01*
X0113652Y0067844D02*
X0031152Y0067844D01*
X0031152Y0068442D02*
X0113652Y0068442D01*
X0113664Y0069041D02*
X0031141Y0069041D01*
X0030893Y0069639D02*
X0113911Y0069639D01*
X0114159Y0070238D02*
X0030645Y0070238D01*
X0030137Y0070836D02*
X0114668Y0070836D01*
X0115266Y0071435D02*
X0029539Y0071435D01*
X0029375Y0075026D02*
X0115430Y0075026D01*
X0114742Y0075624D02*
X0030062Y0075624D01*
X0030614Y0076223D02*
X0114190Y0076223D01*
X0113942Y0076821D02*
X0030862Y0076821D01*
X0031110Y0077420D02*
X0113695Y0077420D01*
X0113652Y0078018D02*
X0031152Y0078018D01*
X0031152Y0078617D02*
X0113652Y0078617D01*
X0113736Y0079215D02*
X0031069Y0079215D01*
X0030821Y0079814D02*
X0113984Y0079814D01*
X0114244Y0080412D02*
X0030561Y0080412D01*
X0029962Y0081011D02*
X0114842Y0081011D01*
X0115671Y0081609D02*
X0029134Y0081609D01*
X0024992Y0095375D02*
X0019813Y0095375D01*
X0020412Y0095974D02*
X0024425Y0095974D01*
X0024046Y0096572D02*
X0020759Y0096572D01*
X0021007Y0097171D02*
X0023798Y0097171D01*
X0023678Y0097769D02*
X0021152Y0097769D01*
X0018954Y0051684D02*
X0025851Y0051684D01*
X0024917Y0051085D02*
X0019888Y0051085D01*
X0020487Y0050487D02*
X0024318Y0050487D01*
X0024015Y0049888D02*
X0020790Y0049888D01*
X0021038Y0049290D02*
X0023767Y0049290D01*
X0023652Y0048691D02*
X0021152Y0048691D01*
X0021152Y0048093D02*
X0023652Y0048093D01*
X0023664Y0047494D02*
X0021141Y0047494D01*
X0020893Y0046896D02*
X0023912Y0046896D01*
X0024160Y0046297D02*
X0020645Y0046297D01*
X0020137Y0045699D02*
X0024668Y0045699D01*
X0025267Y0045100D02*
X0019538Y0045100D01*
X0019376Y0041509D02*
X0025429Y0041509D01*
X0024742Y0040911D02*
X0020063Y0040911D01*
X0020614Y0040312D02*
X0024190Y0040312D01*
X0023942Y0039714D02*
X0020862Y0039714D01*
X0021110Y0039115D02*
X0023694Y0039115D01*
X0023652Y0038517D02*
X0021152Y0038517D01*
X0021152Y0037918D02*
X0023652Y0037918D01*
X0023736Y0037320D02*
X0021069Y0037320D01*
X0020821Y0036721D02*
X0023984Y0036721D01*
X0024244Y0036123D02*
X0020561Y0036123D01*
X0019962Y0035524D02*
X0024843Y0035524D01*
X0025672Y0034926D02*
X0019133Y0034926D01*
X0008614Y0016970D02*
X0004900Y0016970D01*
X0004900Y0016372D02*
X0007265Y0016372D01*
X0006667Y0015773D02*
X0004900Y0015773D01*
X0004900Y0015175D02*
X0006068Y0015175D01*
X0005699Y0014576D02*
X0004900Y0014576D01*
X0004900Y0013978D02*
X0005451Y0013978D01*
X0005203Y0013379D02*
X0004900Y0013379D01*
X0004900Y0012781D02*
X0005063Y0012781D01*
X0005063Y0012182D02*
X0004900Y0012182D01*
X0004900Y0011584D02*
X0005063Y0011584D01*
X0005063Y0010985D02*
X0004900Y0010985D01*
X0004900Y0010387D02*
X0005300Y0010387D01*
X0005548Y0009788D02*
X0004900Y0009788D01*
X0004900Y0009190D02*
X0005796Y0009190D01*
X0006303Y0008591D02*
X0004900Y0008591D01*
X0004900Y0007993D02*
X0006901Y0007993D01*
X0007735Y0007394D02*
X0004900Y0007394D01*
X0004900Y0006796D02*
X0009180Y0006796D01*
X0119258Y0174977D02*
X0125547Y0174977D01*
X0124791Y0175576D02*
X0120014Y0175576D01*
X0120594Y0176174D02*
X0124211Y0176174D01*
X0123963Y0176773D02*
X0120842Y0176773D01*
X0121090Y0177371D02*
X0123715Y0177371D01*
X0123652Y0177970D02*
X0121152Y0177970D01*
X0121152Y0178568D02*
X0123652Y0178568D01*
X0123716Y0179167D02*
X0121089Y0179167D01*
X0120841Y0179765D02*
X0123964Y0179765D01*
X0124212Y0180364D02*
X0120593Y0180364D01*
X0120011Y0180962D02*
X0124794Y0180962D01*
X0125553Y0181561D02*
X0119251Y0181561D01*
D15*
X0121300Y0219000D03*
X0102300Y0225000D03*
X0072300Y0225000D03*
X0042300Y0225000D03*
X0162300Y0225000D03*
M02*
