%
M48
M72
T01C0.0120
T02C0.0276
T03C0.0350
T04C0.0362
T05C0.0787
T06C0.0906
%
T01
X12130Y21900
X10230Y22500
X7230Y22500
X4230Y22500
X16230Y22500
T02
X15455Y23870
X14667Y23870
X12455Y23870
X11667Y23870
X9455Y23870
X8667Y23870
X6455Y23870
X5667Y23870
X3455Y23870
X2667Y23870
T03
X2740Y19827
X2740Y18827
X2740Y17827
X2740Y16827
X2740Y15827
X2740Y14827
X2740Y13827
X2740Y12827
X2740Y11827
X2740Y10827
X2740Y9827
X2740Y8827
X2740Y7827
X2740Y6827
X2740Y5827
X2740Y4827
X2740Y3827
X2740Y2827
X1740Y2827
X1740Y3827
X1740Y4827
X1740Y5827
X1740Y6827
X1740Y7827
X1740Y8827
X1740Y9827
X1740Y10827
X1740Y11827
X1740Y12827
X1740Y13827
X1740Y14827
X1740Y15827
X1740Y16827
X1740Y17827
X1740Y18827
X1740Y19827
X11740Y19827
X11740Y18827
X11740Y17827
X11740Y16827
X11740Y15827
X11740Y14827
X11740Y13827
X11740Y12827
X11740Y11827
X11740Y10827
X11740Y9827
X11740Y8827
X11740Y7827
X11740Y6827
X11740Y5827
X11740Y4827
X11740Y3827
X11740Y2827
X12740Y2827
X12740Y3827
X12740Y4827
X12740Y5827
X12740Y6827
X12740Y7827
X12740Y8827
X12740Y9827
X12740Y10827
X12740Y11827
X12740Y12827
X12740Y13827
X12740Y14827
X12740Y15827
X12740Y16827
X12740Y17827
X12740Y18827
X12740Y19827
T04
X18430Y19600
X19414Y19600
X20202Y19600
X21186Y19600
T05
X1030Y1200
X13430Y1200
X14830Y15100
X16830Y21500
X16830Y25800
X23730Y21500
X23730Y15100
X1030Y21800
X1030Y25800
T06
X17221Y18533
X22395Y18533
M30
